<svg width="48" height="48" viewBox="0 0 48 48" fill="none" xmlns="http://www.w3.org/2000/svg">
<rect width="48" height="48" rx="11.6667" fill="url(#paint0_linear_584_8973)"/>
<g clip-path="url(#clip0_584_8973)">
<path d="M10.0064 22.1986C9.94558 22.688 10.3272 23.1201 10.8204 23.1201H14.1578C14.3518 23.1201 14.5395 23.0513 14.6876 22.926C14.8357 22.8007 14.9346 22.627 14.9667 22.4356C15.609 18.6105 18.6105 15.609 22.4356 14.9668C22.6269 14.9346 22.8007 14.8357 22.926 14.6876C23.0513 14.5395 23.1201 14.3518 23.1201 14.1578V10.8204C23.1201 10.3272 22.688 9.94557 22.1986 10.0064C19.1213 10.3888 16.2142 11.8117 14.013 14.013C11.8117 16.2142 10.3888 19.1213 10.0064 22.1986ZM29.2268 31.3653C27.6699 32.477 25.8442 33.0645 23.9473 33.0645C19.4836 33.0645 15.7068 29.8659 14.9668 25.4587C14.9346 25.2674 14.8358 25.0936 14.6877 24.9683C14.5396 24.843 14.3518 24.7743 14.1578 24.7742H10.8204C10.3272 24.7742 9.94558 25.2063 10.0064 25.6957V25.6957C10.8782 32.7103 16.8714 38 23.9473 38C27.0995 38 30.0805 36.9768 32.5681 35.0412C32.9575 34.7382 32.9932 34.1626 32.6444 33.8137L30.2835 31.4528C30.1462 31.3156 29.9647 31.2314 29.7712 31.2154C29.5777 31.1994 29.3848 31.2525 29.2268 31.3653ZM25.4587 14.9668C29.8658 15.7068 33.0646 19.4836 33.0646 23.9473C33.0646 25.8442 32.477 27.6698 31.3654 29.2268C31.2526 29.3848 31.1994 29.5777 31.2155 29.7712C31.2315 29.9647 31.3156 30.1462 31.4529 30.2835L33.8139 32.6444C34.1627 32.9933 34.7383 32.9575 35.0413 32.5681L35.0413 32.5681C36.9769 30.0806 38 27.0995 38 23.9473C38 16.8714 32.7103 10.8782 25.6957 10.0064H25.6957C25.2063 9.94557 24.7742 10.3272 24.7742 10.8204V14.1578C24.7742 14.3518 24.843 14.5395 24.9683 14.6876C25.0936 14.8357 25.2674 14.9346 25.4587 14.9668Z" fill="#006B84"/>
<path d="M24.4935 18.3105H23.3991C22.9461 18.3105 22.5788 18.6778 22.5788 19.1309V28.7011H25.3138V19.1309C25.3138 18.6778 24.9465 18.3105 24.4935 18.3105ZM26.9544 28.7011H28.8692C29.3222 28.7011 29.6895 28.3338 29.6895 27.8807V21.3183C29.6895 20.8653 29.3222 20.498 28.8692 20.498H26.9544V28.7011ZM20.9382 22.6855H19.0255C18.5725 22.6855 18.2052 23.0528 18.2052 23.5058V27.8807C18.2052 28.3338 18.5725 28.7011 19.0255 28.7011H20.9382V22.6855Z" fill="#006B84"/>
</g>
<defs>
<linearGradient id="paint0_linear_584_8973" x1="43.5" y1="1.46404e-06" x2="6" y2="48" gradientUnits="userSpaceOnUse">
<stop stop-color="#D3F7FF"/>
<stop offset="1" stop-color="white"/>
</linearGradient>
<clipPath id="clip0_584_8973">
<rect width="28" height="28" fill="white" transform="translate(10 10)"/>
</clipPath>
</defs>
</svg>
