<svg width="48" height="48" viewBox="0 0 48 48" fill="none" xmlns="http://www.w3.org/2000/svg">
<rect width="48" height="48" rx="11.6667" fill="url(#paint0_linear_584_8981)"/>
<g clip-path="url(#clip0_584_8981)">
<path d="M16.6164 10C14.8065 10 13.3347 11.4718 13.3347 13.2816C13.3347 15.0915 14.8065 16.6179 16.6164 16.6179C18.4262 16.6179 19.898 15.0915 19.898 13.2816C19.898 11.4718 18.4262 10 16.6164 10ZM34.6653 13.2816C34.6653 11.4718 33.1936 10 31.3837 10C29.5738 10 28.1021 11.4718 28.1021 13.2816C28.1021 15.0915 29.5738 16.6179 31.3837 16.6179C33.1936 16.6179 34.6653 15.0915 34.6653 13.2816ZM19.5805 34.8901C21.4901 36.4924 21.9602 36.9438 22.4713 37.3784C22.9584 37.7925 23.5665 38.0001 24.1747 38.0001C24.7884 38.0001 25.4021 37.7886 25.8892 37.3671C26.7791 36.5967 27.7436 35.7078 28.6109 34.9474C28.1453 34.791 27.7068 34.5413 27.341 34.175C26.3668 33.2021 26.0962 31.7282 26.712 30.4381C25.0392 29.5525 22.9639 29.5548 21.2902 30.4419C21.903 31.7303 21.6329 33.2025 20.6584 34.1759C20.3505 34.4837 19.984 34.7265 19.5805 34.8901Z" fill="#FF5078"/>
<path d="M24 26.4633C24.9062 26.4633 25.6409 25.7287 25.6409 24.8225C25.6409 23.9163 24.9062 23.1816 24 23.1816C23.0938 23.1816 22.3592 23.9163 22.3592 24.8225C22.3592 25.7287 23.0938 26.4633 24 26.4633Z" fill="#FF5078"/>
<path d="M24 20.5153C22.8768 18.4915 20.9379 16.7393 18.1883 16.7393C14.4067 16.7393 11.5553 19.8046 11.5553 23.869C11.5553 27.4592 13.9971 30.0917 17.8562 33.422C18.4243 33.5928 19.0609 33.4522 19.4991 33.0152C20.1714 32.3446 20.1169 31.2528 19.4325 30.6309C15.9105 27.431 14.837 25.9417 14.837 24.2737H16.4778C16.4778 25.3073 17.486 26.6142 20.2522 29.1528C22.534 27.8138 25.4671 27.8167 27.748 29.1529C30.5141 26.6143 31.5224 25.3073 31.5224 24.2737H33.1632C33.1632 25.9417 32.0896 27.431 28.5677 30.6309C27.8872 31.2494 27.8257 32.3414 28.5004 33.0144C29.0536 33.5661 29.9148 33.6283 30.563 33.2067C34.6665 29.4683 36.4449 27.149 36.4449 23.8689C36.4449 19.8045 33.5935 16.7393 29.812 16.7393C27.0613 16.7393 25.1233 18.4915 24 20.5153ZM27.2817 24.8224C27.2817 26.6323 25.8099 28.104 24 28.104C22.1902 28.104 20.7184 26.6323 20.7184 24.8224C20.7184 23.0125 22.1902 21.5408 24 21.5408C25.8099 21.5408 27.2817 23.0125 27.2817 24.8224Z" fill="#FF5078"/>
</g>
<defs>
<linearGradient id="paint0_linear_584_8981" x1="41.5" y1="-5.18436e-08" x2="4" y2="45.5" gradientUnits="userSpaceOnUse">
<stop stop-color="#FFD0DB"/>
<stop offset="1" stop-color="white"/>
</linearGradient>
<clipPath id="clip0_584_8981">
<rect width="28" height="28" fill="white" transform="translate(10 10)"/>
</clipPath>
</defs>
</svg>
