<svg width="48" height="49" viewBox="0 0 48 49" fill="none" xmlns="http://www.w3.org/2000/svg">
<rect y="0.5" width="48" height="48" rx="11.6667" fill="url(#paint0_linear_584_9035)"/>
<path fill-rule="evenodd" clip-rule="evenodd" d="M13.4267 23.5471C13.4267 24.5288 14.2252 25.3277 15.2074 25.3277C16.189 25.3277 16.988 24.5293 16.988 23.5471C16.988 23.2059 16.8912 22.887 16.7238 22.6158L19.9881 19.6577C20.2873 19.8852 20.6597 20.0209 21.0638 20.0209C21.5921 20.0209 22.0674 19.789 22.3938 19.4226L25.2518 21.1403C25.1778 21.3387 25.14 21.5487 25.1402 21.7605C25.1402 22.7421 25.9387 23.5411 26.9209 23.5411C27.9025 23.5411 28.7015 22.7427 28.7015 21.7605C28.7015 21.4077 28.5981 21.0791 28.4209 20.8023L31.7274 17.6977C32.0319 17.9215 32.4 18.042 32.7779 18.0417C33.7595 18.0417 34.5585 17.2433 34.5585 16.2611C34.5585 15.2795 33.7595 14.4805 32.7779 14.4805C31.7963 14.4805 30.9973 15.2789 30.9973 16.2611C30.9973 16.6138 31.1006 16.9425 31.2778 17.2192L27.9714 20.3238C27.6669 20.1 27.2988 19.9795 26.9209 19.9798C26.3926 19.9798 25.9174 20.2117 25.5909 20.5781L22.7329 18.8604C22.8051 18.6673 22.8445 18.4584 22.8445 18.2402C22.8445 17.2586 22.0455 16.4596 21.0638 16.4596C20.0822 16.4596 19.2832 17.258 19.2832 18.2402C19.2828 18.5692 19.3743 18.8918 19.5474 19.1716L16.2831 22.1291C15.9839 21.9016 15.6109 21.7659 15.2074 21.7659C14.2257 21.7665 13.4267 22.5655 13.4267 23.5471ZM17.0372 27.3216C17.2182 27.3216 17.3653 27.4688 17.3653 27.6498V33.3121H18.9053V23.5673C18.9053 23.3863 19.0524 23.2392 19.2334 23.2392H22.8937C23.0752 23.2392 23.2218 23.3863 23.2218 23.5673V33.3121H24.7618V26.1491C24.7618 25.9681 24.9089 25.821 25.0899 25.821H28.7502C28.9312 25.821 29.0783 25.9681 29.0783 26.1491V33.3121H30.6183V21.5062C30.6183 21.3246 30.7654 21.178 30.9464 21.178H34.6066C34.7877 21.178 34.9348 21.3252 34.9348 21.5062V33.3116H36.8428C37.0244 33.3116 37.1709 33.4587 37.1709 33.6397C37.1709 33.8207 37.0244 33.9678 36.8428 33.9678H11.1397C10.9587 33.9678 10.8116 33.8207 10.8116 33.6397C10.8116 33.4587 10.9587 33.3116 11.1397 33.3116H13.0483V27.6498C13.0483 27.4688 13.1954 27.3216 13.3764 27.3216H17.0372Z" fill="#F15D2A"/>
<defs>
<linearGradient id="paint0_linear_584_9035" x1="46" y1="0.500001" x2="6" y2="46.5" gradientUnits="userSpaceOnUse">
<stop stop-color="#FFE6D4"/>
<stop offset="1" stop-color="white"/>
</linearGradient>
</defs>
</svg>
