<svg width="48" height="49" viewBox="0 0 48 49" fill="none" xmlns="http://www.w3.org/2000/svg">
<rect y="0.5" width="48" height="48" rx="11.6667" fill="url(#paint0_linear_584_9087)"/>
<path d="M35.8847 25.1901H35.8777C33.6946 25.0781 31.9704 23.7324 31.2839 23.1094C30.5866 23.742 28.7237 25.2002 26.4014 25.2006H26.3244V28.4819C26.3221 29.3542 26.4579 30.2215 26.7269 31.0513C26.9149 31.6331 27.1746 32.1892 27.5 32.7068C27.5477 32.7825 27.6002 32.863 27.6527 32.9396C28.5282 34.2748 29.7972 35.3048 31.2839 35.887C32.8621 35.271 34.1941 34.1537 35.0753 32.7068C35.858 31.4372 36.2653 29.972 36.25 28.4806V25.1993C36.1236 25.1993 36.0037 25.1993 35.886 25.1901H35.8847Z" fill="#0BAE80"/>
<path d="M12.8941 26.1854C13.298 26.1826 13.6932 26.3024 14.0276 26.5288C14.3608 26.7508 14.618 27.0697 14.7644 27.4423C14.8007 27.5355 14.8409 27.6322 14.8816 27.725C15.0396 28.0937 15.083 28.5014 15.0063 28.8951C14.9296 29.2889 14.7364 29.6505 14.4516 29.933C14.2371 30.1484 14.1167 30.44 14.1167 30.7439C14.1167 31.0479 14.2371 31.3394 14.4516 31.5548L15.999 33.1027C16.1055 33.2095 16.232 33.2942 16.3714 33.3519C16.5108 33.4096 16.6602 33.4391 16.811 33.4387H16.8132C16.963 33.439 17.1113 33.4096 17.2496 33.3521C17.3879 33.2945 17.5133 33.2101 17.6186 33.1036C17.9987 32.7258 18.5125 32.5132 19.0484 32.5121C19.3169 32.5109 19.5827 32.5651 19.8293 32.6713C19.9212 32.7116 20.0179 32.7518 20.1102 32.7877C20.4849 32.9352 20.8058 33.1931 21.0305 33.5272C21.2553 33.8613 21.3731 34.2558 21.3684 34.6585C21.368 34.8088 21.3973 34.9578 21.4546 35.0969C21.5119 35.2359 21.5962 35.3622 21.7025 35.4686C21.8088 35.575 21.9351 35.6593 22.0741 35.7166C22.2131 35.774 22.3621 35.8034 22.5125 35.803H24.7092C25.0126 35.8025 25.3033 35.6817 25.5178 35.4672C25.7323 35.2526 25.8529 34.9618 25.8533 34.6585C25.8505 34.2547 25.9703 33.8596 26.1967 33.5253C26.3238 33.3337 26.4835 33.1659 26.6688 33.0296C26.6561 33.0091 26.6469 32.9859 26.6346 32.9649C26.4931 32.7259 26.3638 32.4799 26.2474 32.2277C26.2352 32.2001 26.2243 32.1726 26.2124 32.145C26.152 32.0105 26.0953 31.8744 26.0423 31.7368C25.524 31.8989 24.991 32.0092 24.4511 32.0663C24.4358 32.0663 24.42 32.0685 24.4073 32.0685C24.2951 32.0685 24.1871 32.0253 24.1058 31.948C24.0244 31.8706 23.9759 31.765 23.9703 31.6529C23.9647 31.5407 24.0024 31.4308 24.0756 31.3457C24.1488 31.2606 24.2519 31.2069 24.3636 31.1956C24.8438 31.1452 25.3179 31.0474 25.7789 30.9038C25.562 30.1141 25.4518 29.299 25.4512 28.4801V24.736C25.4509 24.6746 25.4635 24.6139 25.4881 24.5578C25.5128 24.5016 25.549 24.4513 25.5944 24.41C25.6398 24.3688 25.6933 24.3375 25.7516 24.3183C25.8098 24.2991 25.8714 24.2923 25.9324 24.2985C28.2109 24.5299 30.1001 23.0091 30.7388 22.4194C30.4499 21.0424 29.7652 19.7797 28.7688 18.7864C28.0024 18.0193 27.0746 17.4328 26.0529 17.0695C25.0313 16.7062 23.9415 16.5753 22.8628 16.6863C21.7842 16.7974 20.7439 17.1475 19.8177 17.7113C18.8915 18.2752 18.1027 19.0384 17.5086 19.9455C16.9146 20.8527 16.5304 21.8809 16.3838 22.9552C16.2373 24.0296 16.3322 25.1231 16.6616 26.1562C16.9911 27.1893 17.5467 28.1359 18.2881 28.9271C19.0295 29.7184 19.9381 30.3343 20.9476 30.7301C21.0428 30.7672 21.1221 30.8364 21.1716 30.9257C21.2212 31.0151 21.2379 31.1189 21.2189 31.2193C21.1998 31.3197 21.1463 31.4103 21.0675 31.4753C20.9887 31.5403 20.8896 31.5758 20.7874 31.5754C20.733 31.5752 20.679 31.5649 20.6282 31.5452C19.3132 31.0315 18.1537 30.1858 17.2628 29.0906C16.372 27.9954 15.7801 26.688 15.545 25.2959C15.3099 23.9038 15.4395 22.4745 15.9213 21.1475C16.4031 19.8204 17.2205 18.6408 18.2939 17.7238C19.3672 16.8067 20.66 16.1834 22.046 15.9148C23.432 15.6461 24.8639 15.7411 26.2022 16.1907C27.5405 16.6402 28.7395 17.4289 29.6823 18.4798C30.625 19.5307 31.2793 20.808 31.5814 22.1871C31.5884 22.1932 31.5981 22.1954 31.6046 22.2024L31.6278 22.226L31.6449 22.2431L31.6886 22.2868L31.7223 22.3188C31.7424 22.3385 31.7634 22.3581 31.7888 22.3818L31.8391 22.4277C31.8658 22.4522 31.8934 22.4771 31.9266 22.5047L31.9918 22.5611C32.0251 22.59 32.0592 22.6189 32.0964 22.6486L32.1778 22.7151C32.2492 22.7736 32.3219 22.8306 32.3956 22.8862C32.4394 22.9195 32.4831 22.9527 32.5304 22.9864C32.6163 23.0496 32.7037 23.1109 32.7924 23.1701L32.9171 23.2524C33.0161 23.3162 33.1163 23.378 33.2177 23.4379C33.2759 23.472 33.3363 23.5057 33.3971 23.5389C33.4452 23.5656 33.4933 23.5923 33.5428 23.6181C33.6062 23.6514 33.674 23.6833 33.7374 23.7148C33.7886 23.7398 33.8389 23.7651 33.8914 23.7888C33.9597 23.8198 34.031 23.8491 34.1019 23.8785C34.1544 23.9008 34.2064 23.9222 34.2603 23.9441C34.3359 23.9734 34.4147 23.9992 34.493 24.0259C34.5451 24.0438 34.5958 24.0626 34.6488 24.0793C34.7389 24.1073 34.8321 24.1309 34.9248 24.1545C34.9686 24.1655 35.0123 24.179 35.0561 24.1891C35.1917 24.2201 35.3304 24.2464 35.4708 24.267V22.8446C35.4705 22.541 35.3496 22.25 35.1347 22.0354C34.9199 21.8209 34.6286 21.7005 34.325 21.7006C33.9212 21.7031 33.5262 21.5832 33.1919 21.3567C32.8587 21.1348 32.6016 20.8162 32.4551 20.4436C32.4179 20.3489 32.3789 20.2548 32.3383 20.1615C32.1801 19.7928 32.1363 19.385 32.2129 18.9911C32.2894 18.5973 32.4827 18.2355 32.7675 17.953C32.982 17.7376 33.1024 17.446 33.1024 17.142C33.1024 16.8381 32.982 16.5465 32.7675 16.3311L31.2201 14.7833C31.1165 14.6721 30.9903 14.5845 30.8498 14.5265C30.7094 14.4685 30.5581 14.4415 30.4063 14.4473C30.2566 14.4469 30.1083 14.4763 29.97 14.5338C29.8317 14.5912 29.7063 14.6756 29.6009 14.782C29.3138 15.0604 28.952 15.2495 28.5595 15.3263C28.1669 15.403 27.7606 15.3641 27.3898 15.2142C27.2979 15.1744 27.2012 15.1337 27.1084 15.0978C26.7339 14.9502 26.4131 14.6922 26.1885 14.3581C25.9639 14.024 25.8461 13.6296 25.8506 13.2271C25.8511 13.0767 25.8218 12.9277 25.7645 12.7887C25.7072 12.6497 25.6229 12.5234 25.5166 12.4171C25.4102 12.3107 25.2839 12.2265 25.1449 12.1692C25.0059 12.1118 24.8569 12.0826 24.7066 12.083H22.5125C22.2091 12.0834 21.9183 12.204 21.7038 12.4185C21.4892 12.6329 21.3685 12.9237 21.368 13.2271C21.3707 13.6308 21.2512 14.0258 21.025 14.3602C20.803 14.6933 20.4844 14.9504 20.1119 15.097C20.0174 15.1337 19.9208 15.1744 19.828 15.2142C19.4594 15.3722 19.0518 15.4157 18.6581 15.3391C18.2644 15.2625 17.9028 15.0693 17.6204 14.7846C17.4018 14.5762 17.1114 14.46 16.8095 14.46C16.5075 14.46 16.2171 14.5762 15.9986 14.7846L14.4511 16.3325C14.2365 16.5472 14.116 16.8383 14.116 17.1418C14.116 17.4454 14.2365 17.7365 14.4511 17.9512C14.829 18.3312 15.0415 18.8451 15.0426 19.3809C15.0441 19.6495 14.9898 19.9154 14.8834 20.1619C14.8431 20.2546 14.8029 20.3513 14.7666 20.4441C14.619 20.8185 14.3611 21.1392 14.0271 21.3638C13.6931 21.5883 13.2987 21.7061 12.8963 21.7015C12.7457 21.7006 12.5966 21.7295 12.4573 21.7866C12.318 21.8437 12.1915 21.9279 12.0849 22.0342C11.9783 22.1404 11.8939 22.2668 11.8364 22.4059C11.7789 22.545 11.7495 22.6941 11.75 22.8446V25.0409C11.7504 25.3442 11.871 25.6351 12.0855 25.8496C12.2999 26.0642 12.5907 26.1849 12.8941 26.1854ZM22.7619 17.722C22.7857 17.6688 22.8182 17.62 22.8581 17.5776C22.9419 17.4995 23.0521 17.4561 23.1666 17.4561C23.281 17.4561 23.3913 17.4995 23.475 17.5776C23.5165 17.6179 23.5496 17.6662 23.5721 17.7196C23.5947 17.7729 23.6063 17.8303 23.6063 17.8882C23.6063 17.9461 23.5947 18.0035 23.5721 18.0568C23.5496 18.1102 23.5165 18.1585 23.475 18.1988C23.393 18.2803 23.2821 18.326 23.1666 18.326C23.051 18.326 22.9401 18.2803 22.8581 18.1988C22.7981 18.1369 22.7572 18.059 22.7401 17.9745C22.7231 17.89 22.7306 17.8023 22.7619 17.722ZM18.5903 22.0396C18.1414 23.244 18.1047 24.5633 18.4862 25.7908C18.5205 25.9016 18.5094 26.0215 18.4554 26.1241C18.4013 26.2268 18.3087 26.3037 18.1979 26.3381C18.1554 26.3515 18.1112 26.3583 18.0666 26.3582C17.9735 26.3582 17.8828 26.3285 17.8078 26.2734C17.7327 26.2184 17.6772 26.1408 17.6493 26.0519C17.1566 24.4936 17.2609 22.8077 17.9421 21.322C18.6232 19.8364 19.8325 18.657 21.3348 18.0133C21.4403 17.971 21.5582 17.9715 21.6634 18.0146C21.7686 18.0578 21.8529 18.1402 21.8984 18.2444C21.9439 18.3486 21.947 18.4664 21.9072 18.5729C21.8673 18.6794 21.7875 18.7661 21.6848 18.8148C20.2742 19.4479 19.1647 20.6041 18.5903 22.0396Z" fill="#0BAE80"/>
<defs>
<linearGradient id="paint0_linear_584_9087" x1="44.5" y1="0.500003" x2="3.5" y2="45" gradientUnits="userSpaceOnUse">
<stop stop-color="#D1FFF2"/>
<stop offset="1" stop-color="white"/>
</linearGradient>
</defs>
</svg>
