<svg width="48" height="48" viewBox="0 0 48 48" fill="none" xmlns="http://www.w3.org/2000/svg">
<rect width="48" height="48" rx="11.6667" fill="url(#paint0_linear_1004_3199)"/>
<path d="M31.3182 28.1691C30.3405 27.3097 29.6744 26.1512 29.4238 24.8738C29.3922 24.7393 29.3169 24.6191 29.2097 24.5319C29.1026 24.4447 28.9696 24.3954 28.8314 24.3917C28.6146 24.37 28.3957 24.397 28.1906 24.4705C27.9855 24.544 27.7993 24.6623 27.6456 24.8168C27.4919 24.9713 27.3746 25.158 27.3021 25.3635C27.2297 25.569 27.2039 25.7881 27.2267 26.0048C27.4131 27.0047 27.6752 27.9889 28.0107 28.9491C28.0105 28.9558 28.0089 28.9623 28.0062 28.9684C28.0034 28.9744 27.9995 28.9799 27.9946 28.9844C27.9897 28.9889 27.984 28.9924 27.9777 28.9947C27.9715 28.997 27.9648 28.998 27.9582 28.9977L24.7688 29.0065C24.5774 29.0071 24.3883 29.049 24.2145 29.1292C24.0407 29.2094 23.8861 29.3261 23.7614 29.4713C23.6366 29.6165 23.5446 29.7868 23.4915 29.9708C23.4384 30.1547 23.4255 30.3479 23.4537 30.5373L23.9236 33.7306C24.0142 34.3156 24.3117 34.8487 24.762 35.2331C25.2123 35.6175 25.7855 35.8276 26.3775 35.8253H29.8237C30.6856 35.8752 31.3265 35.4482 32.0777 35.2128C32.1672 35.1921 32.247 35.1416 32.3042 35.0696C32.3613 34.9976 32.3924 34.9084 32.3923 34.8165V29.7493C32.3594 29.5455 32.2632 28.9815 31.3182 28.1691ZM20.872 29.2348L17.8051 29.2305C17.8051 29.2305 17.7811 29.202 17.7727 29.1937C18.0939 28.2763 18.345 27.3359 18.5239 26.3806C18.5457 26.1727 18.5224 25.9625 18.4555 25.7645C18.3886 25.5664 18.2797 25.3851 18.1363 25.233C17.7496 24.7881 16.6007 24.5006 16.3846 25.2737C16.1419 26.5002 15.5018 27.6125 14.5633 28.4386C14.0671 28.7932 13.7058 29.3056 13.5382 29.892C13.5315 29.9159 13.5289 29.9407 13.5303 29.9655V34.8414C13.543 35.324 14.1498 35.2509 14.4569 35.4661C14.9398 35.7074 15.473 35.8307 16.0127 35.8258H19.3246C19.8977 35.8286 20.4528 35.6251 20.8883 35.2524C21.3238 34.8798 21.6108 34.3629 21.6967 33.7962L22.1499 30.7337C22.1796 30.5488 22.1687 30.3597 22.1181 30.1794C22.0675 29.9991 21.9784 29.832 21.8569 29.6895C21.7354 29.547 21.5844 29.4326 21.4143 29.3542C21.2443 29.2758 21.0593 29.2348 20.872 29.2348ZM11.1582 28.8061H12.3053C12.4136 28.8061 12.5174 28.8491 12.5939 28.9256C12.6705 29.0022 12.7135 29.106 12.7135 29.2143V35.4167C12.7136 35.4703 12.703 35.5235 12.6826 35.573C12.6621 35.6226 12.632 35.6677 12.5941 35.7056C12.5562 35.7436 12.5112 35.7737 12.4616 35.7942C12.4121 35.8148 12.359 35.8253 12.3053 35.8253H11.1582C11.1045 35.8253 11.0514 35.8148 11.0019 35.7942C10.9523 35.7737 10.9073 35.7436 10.8694 35.7056C10.8315 35.6677 10.8014 35.6226 10.7809 35.573C10.7605 35.5235 10.7499 35.4703 10.75 35.4167V29.2143C10.75 29.106 10.793 29.0022 10.8696 28.9256C10.9461 28.8491 11.0499 28.8061 11.1582 28.8061ZM33.6133 28.5528H34.8418C34.9501 28.5528 35.0539 28.5958 35.1304 28.6723C35.207 28.7489 35.25 28.8527 35.25 28.961V35.4167C35.2501 35.4703 35.2395 35.5235 35.2191 35.573C35.1986 35.6226 35.1685 35.6677 35.1306 35.7056C35.0927 35.7436 35.0477 35.7737 34.9981 35.7942C34.9486 35.8148 34.8955 35.8253 34.8418 35.8253H33.6133C33.5596 35.8254 33.5065 35.8149 33.4569 35.7943C33.4073 35.7738 33.3622 35.7437 33.3242 35.7058C33.2863 35.6678 33.2562 35.6228 33.2357 35.5731C33.2152 35.5235 33.2046 35.4704 33.2047 35.4167V28.9614C33.2047 28.9078 33.2153 28.8546 33.2358 28.8051C33.2563 28.7555 33.2864 28.7105 33.3244 28.6726C33.3623 28.6347 33.4074 28.6046 33.457 28.5842C33.5065 28.5637 33.5597 28.5532 33.6133 28.5532V28.5528ZM29.125 18.296C29.1252 17.1647 28.8121 16.0554 28.2203 15.0912C27.6286 14.127 26.7814 13.3455 25.7726 12.8334C24.7638 12.3213 23.6329 12.0986 22.5053 12.1899C21.3777 12.2813 20.2974 12.6832 19.3842 13.351C18.4711 14.0189 17.7607 14.9266 17.332 15.9735C16.9032 17.0204 16.7727 18.1656 16.9551 19.2822C17.1374 20.3987 17.6254 21.4429 18.365 22.299C19.1046 23.1551 20.0668 23.7896 21.145 24.1323L22.65 26.1404C22.6908 26.1947 22.7436 26.2388 22.8043 26.2692C22.8651 26.2996 22.9321 26.3154 23 26.3154C23.0679 26.3154 23.1349 26.2996 23.1957 26.2692C23.2564 26.2388 23.3092 26.1947 23.35 26.1404L24.855 24.1323C26.0917 23.7347 27.1708 22.9559 27.9378 21.9076C28.7048 20.8592 29.1204 19.595 29.125 18.296ZM22.58 19.9191C22.4966 19.9998 22.3854 20.0452 22.2694 20.046C22.1547 20.0451 22.0448 19.9996 21.9631 19.9191L20.5019 18.4579C20.4613 18.4174 20.4291 18.3693 20.4072 18.3164C20.3852 18.2635 20.3739 18.2068 20.3739 18.1495C20.3739 18.0922 20.3852 18.0354 20.4072 17.9825C20.4291 17.9296 20.4613 17.8815 20.5019 17.841C20.5845 17.7591 20.6961 17.7131 20.8125 17.7131C20.9289 17.7131 21.0405 17.7591 21.1231 17.841L22.2694 18.9916L24.8769 16.3841C24.9595 16.3022 25.0711 16.2562 25.1875 16.2562C25.3039 16.2562 25.4155 16.3022 25.4981 16.3841C25.5387 16.4246 25.5709 16.4727 25.5928 16.5256C25.6148 16.5785 25.6261 16.6353 25.6261 16.6926C25.6261 16.7499 25.6148 16.8066 25.5928 16.8595C25.5709 16.9125 25.5387 16.9605 25.4981 17.001L22.58 19.9191Z" fill="#2FB88A"/>
<defs>
<linearGradient id="paint0_linear_1004_3199" x1="44.5" y1="2.56424e-06" x2="3.5" y2="44.5" gradientUnits="userSpaceOnUse">
<stop stop-color="#D1FFF2"/>
<stop offset="1" stop-color="white"/>
</linearGradient>
</defs>
</svg>
