<svg width="48" height="48" viewBox="0 0 48 48" fill="none" xmlns="http://www.w3.org/2000/svg">
<rect width="48" height="48" rx="11.6667" fill="url(#paint0_linear_1004_3186)"/>
<path d="M17.9091 22.2039C17.9823 21.4152 18.2129 20.6492 18.5872 19.9512C18.5111 19.8708 18.4072 19.8224 18.2966 19.8159C18.1861 19.8094 18.0772 19.8453 17.9922 19.9162C17.3911 20.4028 16.641 20.668 15.8676 20.6672C15.0942 20.6664 14.3446 20.3997 13.7445 19.9118C13.6652 19.8456 13.5649 19.8098 13.4615 19.8106C13.3582 19.8114 13.2585 19.8488 13.1802 19.9162C12.434 20.5556 11.9433 21.4425 11.7981 22.4143C12.0519 22.2765 12.3362 22.2043 12.625 22.2043L17.9091 22.2039Z" fill="#006B84"/>
<path d="M15.866 19.798C19.1473 19.6938 19.1512 14.9295 15.866 14.8245C12.5804 14.9299 12.5856 19.6938 15.866 19.798ZM36.1931 23.6607C36.1324 23.4909 36.0209 23.344 35.8737 23.2399C35.7266 23.1357 35.5509 23.0795 35.3706 23.0788H30.1049C30.1618 24.0178 30.0052 24.9575 29.6468 25.8272C29.2884 26.697 28.7375 27.4742 28.0355 28.1004C23.9072 31.691 17.5779 28.509 17.8921 23.0788H12.625C12.3931 23.0795 12.171 23.1719 12.007 23.3358C11.8431 23.4998 11.7507 23.7219 11.75 23.9538V24.9338C11.7499 25.0533 11.7734 25.1716 11.8192 25.282C11.8649 25.3924 11.9319 25.4927 12.0164 25.5772C12.1009 25.6617 12.2013 25.7287 12.3117 25.7744C12.4222 25.82 12.5405 25.8435 12.66 25.8433H14.3614C14.6483 26.8293 15.0445 27.78 15.5427 28.6779L14.3264 29.8898C14.16 30.0626 14.0675 30.2935 14.0684 30.5334C14.0693 30.7734 14.1636 31.0035 14.3312 31.1752L16.3394 33.1828C16.5115 33.3521 16.7431 33.4469 16.9845 33.4469C17.2258 33.4469 17.4575 33.3521 17.6296 33.1828L18.8327 31.9753C19.7335 32.4692 20.6852 32.8638 21.6712 33.1522V34.8541C21.6711 34.9736 21.6946 35.0919 21.7403 35.2023C21.7861 35.3127 21.8531 35.4131 21.9376 35.4975C22.0221 35.582 22.1225 35.649 22.2329 35.6947C22.3433 35.7403 22.4617 35.7638 22.5812 35.7637H25.4158C25.5473 35.7594 25.6766 35.7277 25.7952 35.6707C25.9139 35.6137 26.0194 35.5326 26.105 35.4326C26.1906 35.3326 26.2544 35.2159 26.2925 35.0898C26.3305 34.9638 26.3418 34.8312 26.3258 34.7005L26.3564 33.1216C27.3383 32.8655 28.2812 32.4785 29.1599 31.971L30.3717 33.1872C30.5441 33.355 30.7753 33.4485 31.0158 33.4477C31.2563 33.4468 31.4868 33.3518 31.658 33.1828L33.6652 31.1747C33.8335 31.0022 33.9277 30.7707 33.9277 30.5296C33.9277 30.2886 33.8335 30.0571 33.6652 29.8845L32.4582 28.6858C32.9524 27.7836 33.347 26.8304 33.6351 25.8429H35.3365C35.456 25.843 35.5744 25.8196 35.6849 25.7739C35.7953 25.7282 35.8957 25.6612 35.9802 25.5766C36.0647 25.4921 36.1318 25.3917 36.1775 25.2813C36.2232 25.1708 36.2466 25.0524 36.2465 24.9329C36.2699 24.5078 36.2523 24.0815 36.194 23.6598L36.1931 23.6607ZM23.1364 18.3197C23.5999 18.4496 24.0871 18.471 24.5602 18.382C25.0333 18.2931 25.4796 18.0962 25.8642 17.8067C26.2489 17.5173 26.5616 17.143 26.778 16.7131C26.9945 16.2831 27.1089 15.809 27.1124 15.3276C26.9689 11.2033 21.0241 11.2085 20.8789 15.3276C20.8801 16.0036 21.101 16.6609 21.5081 17.2005C21.9153 17.7401 22.4867 18.1329 23.1364 18.3197Z" fill="#006B84"/>
<path d="M18.7924 23.9542C19.6079 30.858 29.5102 29.9847 29.2294 23.0792H18.7661C18.7692 23.2945 18.7722 23.7014 18.7924 23.9542ZM26.9373 18.4689C26.8608 18.4181 26.7703 18.3924 26.6786 18.3956C26.5868 18.3987 26.4983 18.4305 26.4254 18.4864C25.729 19.0229 24.8747 19.3139 23.9956 19.3139C23.1164 19.3139 22.2621 19.0229 21.5657 18.4864C21.4933 18.4295 21.4046 18.3971 21.3126 18.3939C21.2206 18.3908 21.1299 18.417 21.0538 18.4689C20.4285 18.8907 19.9022 19.4431 19.511 20.0879C19.1199 20.7328 18.8732 21.4548 18.788 22.2042H29.2119C29.1243 21.4545 28.8757 20.7325 28.4831 20.0878C28.0905 19.443 27.5632 18.8908 26.9373 18.4689ZM32.1296 19.7328C35.4134 19.6278 35.4121 14.866 32.1296 14.7637C28.84 14.8652 28.8404 19.6291 32.1296 19.7328Z" fill="#006B84"/>
<path d="M30.0957 22.2035H35.3706C35.6646 22.2043 35.9536 22.2796 36.2106 22.4223C36.0913 21.5279 35.6808 20.6978 35.0425 20.0602C34.8443 19.8401 34.5288 19.6078 34.255 19.8502C33.653 20.3355 32.9032 20.6005 32.1299 20.6013C31.3567 20.6021 30.6064 20.3386 30.0033 19.8546C29.9136 19.7812 29.7987 19.746 29.6833 19.7566C29.5678 19.7673 29.4612 19.8229 29.3865 19.9114C29.7718 20.6213 30.0127 21.4005 30.0952 22.2039L30.0957 22.2035Z" fill="#006B84"/>
<defs>
<linearGradient id="paint0_linear_1004_3186" x1="43.5" y1="1.46404e-06" x2="6" y2="48" gradientUnits="userSpaceOnUse">
<stop stop-color="#CDF3FF"/>
<stop offset="1" stop-color="white"/>
</linearGradient>
</defs>
</svg>
