<svg width="48" height="48" viewBox="0 0 48 48" fill="none" xmlns="http://www.w3.org/2000/svg">
<rect width="48" height="48" rx="11.6667" fill="url(#paint0_linear_1004_3167)"/>
<g clip-path="url(#clip0_1004_3167)">
<path d="M37.7231 22.3608C37.2626 24.7213 36.2523 26.994 34.8143 28.9522C34.6502 29.1756 34.3017 29.1259 34.2059 28.8658C34.0231 28.3694 34.1375 28.594 30.2373 23.0304C30.0961 22.8289 30.2019 22.5507 30.4403 22.4895C31.1335 22.3114 31.7429 21.9827 32.2515 21.5056C32.4399 21.3294 32.4492 21.0342 32.273 20.8458C32.0969 20.6579 31.8017 20.6486 31.6132 20.8248C31.0574 21.3459 30.3541 21.6387 29.5129 21.702C29.3905 21.7112 29.2723 21.6539 29.2019 21.5534L27.7786 19.5226C27.4569 19.0619 26.8165 19.4331 26.8311 19.9485C26.8357 20.1089 26.7452 20.2639 26.596 20.3493C22.1137 22.9126 22.4323 22.734 22.3425 22.778C21.6733 23.1054 20.8922 23.1568 20.1804 22.9232C18.1889 22.2637 17.5899 19.83 18.9249 18.2777C19.0834 18.0938 18.7306 18.4158 23.3097 14.4208C23.8124 13.9823 24.1988 13.6255 24.8995 13.1811C30.6255 9.50524 39.7009 12.2085 37.7231 22.3608Z" fill="#F15D2A"/>
<path d="M32.3507 31.6938C32.1827 31.7853 31.9749 31.7617 31.8288 31.6381L24.301 25.2726C24.1026 25.1053 23.8206 25.1408 23.6611 25.3076C23.4855 25.4911 23.4888 25.81 23.6978 25.9855C25.1364 27.1936 20.9922 23.6974 30.3946 31.648C30.5362 31.7676 30.595 31.9604 30.5413 32.1377C30.3692 32.7055 29.9655 33.1783 29.4555 33.4448C29.2932 33.5296 29.0959 33.5085 28.9525 33.3946C26.8662 31.7361 21.8126 27.7071 21.7097 27.6506C21.5349 27.5544 21.3067 27.581 21.1578 27.7299C21.111 27.7764 21.0746 27.8322 21.051 27.8937C21.0273 27.9552 21.017 28.0211 21.0206 28.0869C21.0243 28.1527 21.0418 28.217 21.0721 28.2755C21.1024 28.334 21.1447 28.3855 21.1963 28.4265C28.045 33.868 27.7428 33.622 27.7402 33.6322C27.6443 34.2485 27.2486 34.8171 26.717 35.1363C26.6338 35.1863 26.5371 35.2093 26.4402 35.202C26.3434 35.1947 26.2512 35.1576 26.1764 35.0956L19.7558 29.763C19.6646 29.6869 19.5476 29.6489 19.4291 29.6568C19.4113 29.6568 19.3648 29.6635 19.3433 29.6702C18.9816 29.7464 18.8624 30.2338 19.159 30.4811L24.4096 34.8414C24.5745 34.9783 24.6259 35.2105 24.5322 35.4033C24.1103 36.2717 23.017 36.7512 21.992 36.0345C19.0417 33.9712 12.1401 30.4091 10.3444 22.3731C8.17544 12.6647 16.7257 9.61623 22.6806 12.8986C22.965 13.0554 23.0079 13.4468 22.763 13.6601C21.547 14.7192 18.4678 17.4042 18.414 17.458C16.9917 18.8803 16.8926 21.1719 18.1877 22.6753C19.3685 24.0462 21.3791 24.4123 22.9762 23.4979C27.4211 20.953 27.0934 21.1431 27.1719 21.088C27.3813 20.9408 27.6711 20.9954 27.818 21.205C33.4376 29.2239 33.2123 28.8458 33.3455 29.2192C33.6978 30.1922 33.192 31.2355 32.3507 31.6938Z" fill="#F15D2A"/>
</g>
<defs>
<linearGradient id="paint0_linear_1004_3167" x1="46" y1="8.99037e-07" x2="6" y2="46" gradientUnits="userSpaceOnUse">
<stop stop-color="#FFE6D4"/>
<stop offset="1" stop-color="white"/>
</linearGradient>
<clipPath id="clip0_1004_3167">
<rect width="28" height="28" fill="white" transform="translate(10 10)"/>
</clipPath>
</defs>
</svg>
