<svg width="28" height="29" viewBox="0 0 28 29" fill="none" xmlns="http://www.w3.org/2000/svg">
<g clip-path="url(#clip0_1751_4378)">
<path d="M17.7484 5.25098C17.1928 5.25098 16.7422 5.7016 16.7422 6.25723V13.1435C16.7422 13.6991 17.1928 14.1497 17.7484 14.1497C18.3041 14.1497 18.7547 13.6991 18.7547 13.1435V6.25723C18.7547 5.7016 18.3041 5.25098 17.7484 5.25098ZM18.3259 13.1479C18.3259 13.4672 18.0678 13.7254 17.7484 13.7254C17.4291 13.7254 17.1709 13.4672 17.1709 13.1479V6.2616C17.1709 5.94223 17.4291 5.6841 17.7484 5.6841C18.0678 5.6841 18.3259 5.94223 18.3259 6.2616V13.1479Z" fill="#F15D2A" stroke="#F15D2A" stroke-width="0.5"/>
<path d="M13.3878 5.95973C13.2565 5.53535 12.8672 5.25098 12.4253 5.25098C11.9834 5.25098 11.5984 5.53535 11.4628 5.95973L9.28841 12.846C9.20966 13.1041 9.23154 13.3754 9.35404 13.616C9.47654 13.8566 9.68654 14.0316 9.94466 14.1147C10.0453 14.1454 10.1459 14.1629 10.2465 14.1629C10.404 14.1629 10.5659 14.1235 10.7103 14.0491C10.9465 13.9266 11.1259 13.7166 11.2047 13.4629L13.6284 13.4454V13.4629C13.7903 13.9704 14.3022 14.2941 14.8928 14.1191C15.1509 14.0404 15.3609 13.861 15.4878 13.6247C15.6147 13.3841 15.6365 13.1129 15.5578 12.8547L13.3834 5.96848L13.3878 5.95973ZM15.1115 13.4147C15.0415 13.5504 14.919 13.651 14.7747 13.6991C14.429 13.7997 14.1403 13.6116 14.0484 13.3229L13.9959 13.1566C13.9653 13.0691 13.8865 13.0079 13.7903 13.0079H11.0603C10.9684 13.0079 10.8853 13.0691 10.8547 13.1566L10.7978 13.3272C10.7015 13.6291 10.3778 13.7954 10.0759 13.7035C9.93154 13.6554 9.80904 13.5547 9.73904 13.4191C9.66904 13.2835 9.65591 13.126 9.69966 12.9772L11.874 6.09098C11.9484 5.84598 12.1715 5.6841 12.4253 5.6841C12.679 5.6841 12.9022 5.85035 12.9765 6.09098L15.1509 12.9772C15.199 13.126 15.1815 13.2791 15.1115 13.4191V13.4147Z" fill="#F15D2A" stroke="#F15D2A" stroke-width="0.5"/>
<path d="M12.6301 8.82984C12.5733 8.65047 12.2758 8.65047 12.2189 8.82984L11.3133 11.6955C11.2914 11.7611 11.3045 11.8311 11.3439 11.888C11.3833 11.9448 11.4489 11.9755 11.5189 11.9755H13.3301C13.4001 11.9755 13.4614 11.9448 13.5051 11.888C13.5445 11.8311 13.5576 11.7611 13.5358 11.6955L12.6301 8.82984ZM11.812 11.5467L12.4245 9.61297L13.037 11.5467H11.812Z" fill="#F15D2A" stroke="#F15D2A" stroke-width="0.2"/>
<path d="M20.4002 3.48368C18.5233 1.70743 16.0602 0.806179 13.4702 0.950554C8.68396 1.21743 4.82959 5.1768 4.68959 9.9718C4.60646 12.8287 5.80959 15.5237 7.99709 17.3656C9.01209 18.2231 9.59396 19.5093 9.59396 20.9006V21.2856C9.16959 21.4256 8.85896 21.8237 8.85896 22.2962V26.0631C8.85896 27.1612 9.75584 28.0581 10.854 28.0581H17.1496C18.2477 28.0581 19.1446 27.1612 19.1446 26.0631V22.2962C19.1446 21.8237 18.834 21.4299 18.4096 21.2856V20.9006C18.4096 19.5093 18.9915 18.2187 20.0108 17.3612C22.1108 15.5849 23.3183 12.9949 23.3183 10.2474C23.3183 7.6618 22.2815 5.25555 20.4046 3.4793L20.4002 3.48368ZM18.7115 22.3006V26.0674C18.7115 26.9293 18.0115 27.6337 17.1452 27.6337H10.8496C9.98771 27.6337 9.28334 26.9337 9.28334 26.0674V22.3006C9.28334 21.9506 9.56771 21.6618 9.92209 21.6618H18.0727C18.4227 21.6618 18.7115 21.9462 18.7115 22.3006ZM19.7308 17.0374C18.6152 17.9781 17.9765 19.3868 17.9765 20.9049V21.2331H10.0183V20.9049C10.0183 19.3868 9.37959 17.9781 8.26834 17.0418C6.18584 15.2831 5.03521 12.7149 5.11396 9.9893C5.24959 5.41743 8.92896 1.63743 13.4921 1.38368C15.964 1.25243 18.3133 2.10555 20.1027 3.79868C21.8965 5.49618 22.8808 7.78868 22.8808 10.2562C22.8808 12.8724 21.7302 15.3443 19.7265 17.0374H19.7308Z" fill="#1D5166" stroke="#1D5166"/>
</g>
<defs>
<clipPath id="clip0_1751_4378">
<rect width="28" height="28" fill="white" transform="translate(0 0.5)"/>
</clipPath>
</defs>
</svg>
