<svg width="26" height="16" viewBox="0 0 26 16" fill="none" xmlns="http://www.w3.org/2000/svg">
<path d="M22.126 15.8061C22.126 15.8061 22.126 15.8061 22.104 15.8061C21.62 15.8061 21.1359 15.6965 20.6739 15.4992C20.2118 15.3019 19.8158 15.0389 19.4638 14.6662C19.1557 14.3593 18.9137 14.0085 18.7377 13.6139C18.3857 12.8247 18.4517 11.882 18.9137 11.049C18.9797 10.9613 19.0237 10.8517 19.0677 10.7421C19.1998 10.4352 19.2658 10.1063 19.2878 9.77748C19.3318 8.98827 19.0237 8.22098 18.4957 7.67292C18.2317 7.40985 17.9456 7.21255 17.5936 7.0591C17.4836 7.01525 17.3516 6.97141 17.2416 6.92756C16.2295 6.64257 15.4594 5.89721 15.2394 4.95454C15.1514 4.60378 15.1074 4.25302 15.1294 3.90227C15.1294 3.46382 15.2394 3.02537 15.4154 2.60884C15.5914 2.19232 15.8334 1.81964 16.1415 1.4908C16.8455 0.745436 17.8576 0.306988 18.8917 0.32891C19.3758 0.32891 19.8598 0.438522 20.3219 0.635824C20.7839 0.833126 21.1799 1.11812 21.532 1.46888C21.84 1.77579 22.082 2.12655 22.258 2.52115C22.6101 3.31036 22.5441 4.25302 22.082 5.08608C22.016 5.17377 21.972 5.28338 21.928 5.39299C21.796 5.6999 21.73 6.02874 21.708 6.3795C21.664 7.16871 21.972 7.93599 22.5 8.48405C22.7641 8.74712 23.0501 8.94442 23.4021 9.09788C23.4681 9.1198 23.5121 9.14173 23.5781 9.16365C25.1403 9.71171 26.1084 11.2901 25.8003 12.8247C25.7563 13.0658 25.6683 13.3289 25.5803 13.5481C24.9863 14.9292 23.6442 15.8281 22.148 15.8281M18.8697 1.24965C18.0997 1.24965 17.3516 1.57849 16.8235 2.12655C16.5815 2.3677 16.4055 2.65269 16.2735 2.9596C16.1415 3.26652 16.0755 3.59535 16.0535 3.92419C16.0535 4.18726 16.0535 4.45033 16.1415 4.7134C16.2955 5.32722 16.8015 5.83144 17.4836 6.00682C17.6376 6.05066 17.7916 6.11643 17.9456 6.16028C18.4077 6.35758 18.8037 6.64257 19.1557 6.99333C19.8818 7.73869 20.2778 8.74712 20.2118 9.77748C20.2118 10.2159 20.1018 10.6544 19.9258 11.0709C19.8598 11.2024 19.7938 11.3559 19.7278 11.4874C19.3978 12.0574 19.3538 12.6932 19.5738 13.1974C19.7058 13.5043 19.9038 13.7674 20.1238 13.9866C20.3879 14.2497 20.6739 14.4689 21.0259 14.6004C21.3779 14.7539 21.73 14.8196 22.104 14.8196C23.2481 14.8196 24.2822 14.162 24.7222 13.1097C24.7883 12.9343 24.8543 12.7589 24.8983 12.5616C25.1183 11.4874 24.4142 10.3694 23.2921 9.97478C23.2041 9.95286 23.1381 9.90901 23.0501 9.88709C22.5881 9.68979 22.192 9.4048 21.84 9.05404C21.1139 8.30867 20.7179 7.30024 20.7839 6.26989C20.7839 5.83144 20.8939 5.39299 21.0699 4.97646C21.1359 4.84493 21.2019 4.69147 21.2679 4.55994C21.598 3.98996 21.642 3.35421 21.422 2.84999C21.2899 2.54308 21.0919 2.28001 20.8719 2.06078C20.6079 1.79771 20.3219 1.57849 19.9698 1.44695C19.6178 1.2935 19.2658 1.22773 18.8917 1.22773H18.8697V1.24965Z" fill="#F15D2A"/>
<path d="M3.71027 15.8059C2.21413 15.8059 0.850009 14.9071 0.277958 13.526C0.167948 13.2848 0.101942 13.0437 0.0579379 12.8025C-0.25009 11.268 0.695996 9.68954 2.28014 9.14148C2.34614 9.14148 2.39015 9.09764 2.45615 9.07571C2.80819 8.92226 3.09421 8.72495 3.35824 8.46188C3.90828 7.91382 4.19431 7.14654 4.17231 6.35733C4.17231 6.02849 4.0843 5.69966 3.95229 5.39274C3.90828 5.28313 3.86428 5.19544 3.79827 5.08583C3.33623 4.2747 3.24823 3.31011 3.62226 2.52091C3.79827 2.1263 4.0403 1.77554 4.34832 1.46863C4.67835 1.11787 5.09639 0.832879 5.55843 0.6575C6.02048 0.460198 6.50452 0.372508 6.98856 0.350586C8.02266 0.350586 9.01274 0.767112 9.73881 1.51247C10.0468 1.84131 10.2889 2.21399 10.4649 2.63052C10.6409 3.04704 10.7289 3.48549 10.7509 3.92394C10.7509 4.2747 10.7509 4.62546 10.6409 4.97622C10.4209 5.91888 9.6508 6.66425 8.63871 6.94924C8.5287 6.99308 8.39669 7.015 8.28668 7.08077C7.93465 7.23423 7.64862 7.43153 7.3846 7.6946C6.83455 8.24266 6.54852 9.00994 6.57052 9.79915C6.57052 10.128 6.65853 10.4568 6.79054 10.7857C6.83455 10.8953 6.87855 10.983 6.94456 11.0926C7.4066 11.9037 7.49461 12.8683 7.12057 13.6575C6.94456 14.0521 6.70254 14.4029 6.39451 14.7098C6.06448 15.0605 5.64644 15.3455 5.1844 15.5209C4.72236 15.7182 4.23831 15.8059 3.75427 15.8278H3.73227L3.71027 15.8059ZM1.11403 13.1533C1.55407 14.2056 2.58817 14.8632 3.73227 14.8632C4.1063 14.8632 4.45833 14.7755 4.81037 14.644C5.1624 14.4906 5.44842 14.2933 5.71245 14.0302C5.93247 13.789 6.13048 13.526 6.2625 13.2191C6.50452 12.7148 6.43851 12.0791 6.10848 11.5091C6.04248 11.3776 5.95447 11.246 5.91047 11.0926C5.73445 10.6761 5.64644 10.2376 5.62444 9.79915C5.58044 8.7688 5.97647 7.73844 6.70254 7.015C7.03257 6.66425 7.4506 6.37925 7.91265 6.20387C8.06666 6.13811 8.22067 6.09426 8.37469 6.05042C9.05675 5.85312 9.5848 5.37082 9.71681 4.75699C9.78281 4.49393 9.80482 4.23086 9.80482 3.96779C9.80482 3.63895 9.71681 3.31011 9.5848 3.0032C9.45278 2.69629 9.27677 2.41129 9.03475 2.17015C8.5067 1.60016 7.73663 1.27133 6.96656 1.29325C6.59253 1.29325 6.2405 1.38094 5.88846 1.51247C5.53643 1.66593 5.25041 1.86323 4.98638 2.1263C4.76636 2.36745 4.56834 2.63052 4.43633 2.93743C4.19431 3.44165 4.26032 4.0774 4.59035 4.64738C4.65635 4.77892 4.74436 4.91045 4.78836 5.06391C4.96438 5.48043 5.05239 5.91888 5.07439 6.35733C5.11839 7.38769 4.72236 8.41804 3.99629 9.14148C3.66626 9.49224 3.24823 9.77723 2.78618 9.95261C2.72018 9.99646 2.63217 10.0184 2.54416 10.0403C1.40006 10.4349 0.717997 11.5529 0.938017 12.6271C0.982021 12.8244 1.02603 12.9998 1.11403 13.1752" fill="#F15D2A"/>
<path d="M16.1855 9.18539C16.1855 9.57999 16.1195 9.97459 15.9875 10.3254C15.6794 11.1803 14.9974 11.8599 14.1833 12.2107C13.7873 12.3641 13.3692 12.4518 12.9292 12.4518C12.4891 12.4518 12.0711 12.3641 11.6751 12.2107C10.839 11.8599 10.1789 11.1803 9.8489 10.3254C9.71689 9.97459 9.65088 9.57999 9.65088 9.18539C9.65088 8.79078 9.71689 8.39618 9.8489 8.04542C10.1569 7.19045 10.839 6.51085 11.6751 6.16009C12.0491 6.00663 12.4891 5.91895 12.9292 5.91895C13.3692 5.91895 13.7873 6.00663 14.1833 6.16009C15.0194 6.51085 15.6794 7.19045 15.9875 8.04542C16.1195 8.39618 16.1855 8.79078 16.1855 9.18539Z" fill="#006B84"/>
</svg>
