<svg width="892" height="416" viewBox="0 0 892 416" fill="none" xmlns="http://www.w3.org/2000/svg">
<g clip-path="url(#clip0_1809_4772)">
<rect width="892" height="416" rx="16" fill="white"/>
<g filter="url(#filter0_f_1809_4772)">
<ellipse cx="258.14" cy="162.761" rx="258.14" ry="162.761" transform="matrix(-1 0 0 1 402.279 175.268)" fill="#1D5166" fill-opacity="0.94"/>
</g>
<g clip-path="url(#clip1_1809_4772)">
<mask id="mask0_1809_4772" style="mask-type:luminance" maskUnits="userSpaceOnUse" x="-16" y="-21" width="478" height="478">
<path d="M-15.3689 -20.8467H462V456.522H-15.3689V-20.8467Z" fill="white"/>
</mask>
<g mask="url(#mask0_1809_4772)">
<path d="M454.691 5.12707C453.514 5.12707 452.569 4.18228 452.569 3.00543C452.569 1.82858 453.514 0.883789 454.691 0.883789C455.868 0.883789 456.812 1.82858 456.812 3.00543C456.812 4.18228 455.868 5.12707 454.691 5.12707Z" fill="white" fill-opacity="0.5"/>
<path d="M430.824 5.12707C429.647 5.12707 428.702 4.18228 428.702 3.00543C428.702 1.82858 429.647 0.883789 430.824 0.883789C432.001 0.883789 432.945 1.82858 432.945 3.00543C432.945 4.18228 432.001 5.12707 430.824 5.12707Z" fill="white" fill-opacity="0.5"/>
<path d="M406.953 5.12707C405.776 5.12707 404.831 4.18228 404.831 3.00543C404.831 1.82858 405.776 0.883789 406.953 0.883789C408.129 0.883789 409.074 1.82858 409.074 3.00543C409.074 4.18228 408.129 5.12707 406.953 5.12707Z" fill="white" fill-opacity="0.5"/>
<path d="M383.085 5.12707C381.909 5.12707 380.964 4.18228 380.964 3.00543C380.964 1.82858 381.909 0.883789 383.085 0.883789C384.262 0.883789 385.207 1.82858 385.207 3.00543C385.207 4.18228 384.262 5.12707 383.085 5.12707Z" fill="white" fill-opacity="0.5"/>
<path d="M359.218 5.12707C358.041 5.12707 357.097 4.18228 357.097 3.00543C357.097 1.82858 358.041 0.883789 359.218 0.883789C360.395 0.883789 361.34 1.82858 361.34 3.00543C361.34 4.18228 360.395 5.12707 359.218 5.12707Z" fill="white" fill-opacity="0.5"/>
<path d="M335.347 5.12707C334.17 5.12707 333.225 4.18228 333.225 3.00543C333.225 1.82858 334.17 0.883789 335.347 0.883789C336.524 0.883789 337.469 1.82858 337.469 3.00543C337.469 4.18228 336.524 5.12707 335.347 5.12707Z" fill="white" fill-opacity="0.5"/>
<path d="M311.48 5.12707C310.303 5.12707 309.358 4.18228 309.358 3.00543C309.358 1.82858 310.303 0.883789 311.48 0.883789C312.657 0.883789 313.602 1.82858 313.602 3.00543C313.602 4.18228 312.657 5.12707 311.48 5.12707Z" fill="white" fill-opacity="0.5"/>
<path d="M287.611 5.12707C286.434 5.12707 285.489 4.18228 285.489 3.00543C285.489 1.82858 286.434 0.883789 287.611 0.883789C288.788 0.883789 289.732 1.82858 289.732 3.00543C289.732 4.18228 288.788 5.12707 287.611 5.12707Z" fill="white" fill-opacity="0.5"/>
<path d="M263.746 5.12707C262.569 5.12707 261.624 4.18228 261.624 3.00543C261.624 1.82858 262.569 0.883789 263.746 0.883789C264.922 0.883789 265.867 1.82858 265.867 3.00543C265.867 4.18228 264.922 5.12707 263.746 5.12707Z" fill="white" fill-opacity="0.5"/>
<path d="M239.874 5.12707C238.698 5.12707 237.753 4.18228 237.753 3.00543C237.753 1.82858 238.698 0.883789 239.874 0.883789C241.051 0.883789 241.996 1.82858 241.996 3.00543C241.996 4.18228 241.051 5.12707 239.874 5.12707Z" fill="white" fill-opacity="0.5"/>
<path d="M216.007 5.12707C214.83 5.12707 213.886 4.18228 213.886 3.00543C213.886 1.82858 214.83 0.883789 216.007 0.883789C217.184 0.883789 218.129 1.82858 218.129 3.00543C218.129 4.18228 217.184 5.12707 216.007 5.12707Z" fill="white" fill-opacity="0.5"/>
<path d="M192.136 5.12707C190.959 5.12707 190.015 4.18228 190.015 3.00543C190.015 1.82858 190.959 0.883789 192.136 0.883789C193.313 0.883789 194.258 1.82858 194.258 3.00543C194.258 4.18228 193.313 5.12707 192.136 5.12707Z" fill="white" fill-opacity="0.5"/>
<path d="M168.269 5.12707C167.092 5.12707 166.147 4.18228 166.147 3.00543C166.147 1.82858 167.092 0.883789 168.269 0.883789C169.446 0.883789 170.391 1.82858 170.391 3.00543C170.391 4.18228 169.446 5.12707 168.269 5.12707Z" fill="white" fill-opacity="0.5"/>
<path d="M144.402 5.12707C143.225 5.12707 142.28 4.18228 142.28 3.00543C142.28 1.82858 143.225 0.883789 144.402 0.883789C145.579 0.883789 146.523 1.82858 146.523 3.00543C146.523 4.18228 145.579 5.12707 144.402 5.12707Z" fill="white" fill-opacity="0.5"/>
<path d="M120.535 5.12707C119.358 5.12707 118.413 4.18228 118.413 3.00543C118.413 1.82858 119.358 0.883789 120.535 0.883789C121.711 0.883789 122.656 1.82858 122.656 3.00543C122.656 4.18228 121.711 5.12707 120.535 5.12707Z" fill="white" fill-opacity="0.5"/>
<path d="M96.6635 5.12707C95.4867 5.12707 94.5419 4.18228 94.5419 3.00543C94.5419 1.82858 95.4867 0.883789 96.6635 0.883789C97.8404 0.883789 98.7852 1.82858 98.7852 3.00543C98.7852 4.18228 97.8404 5.12707 96.6635 5.12707Z" fill="white" fill-opacity="0.5"/>
<path d="M72.7963 5.12707C71.6195 5.12707 70.6747 4.18228 70.6747 3.00543C70.6747 1.82858 71.6195 0.883789 72.7963 0.883789C73.9732 0.883789 74.918 1.82858 74.918 3.00543C74.918 4.18228 73.9732 5.12707 72.7963 5.12707Z" fill="white" fill-opacity="0.5"/>
<path d="M48.9272 5.12707C47.7503 5.12707 46.8055 4.18228 46.8055 3.00543C46.8055 1.82858 47.7503 0.883789 48.9272 0.883789C50.104 0.883789 51.0488 1.82858 51.0488 3.00543C51.0488 4.18228 50.104 5.12707 48.9272 5.12707Z" fill="white" fill-opacity="0.5"/>
<path d="M25.058 5.12707C23.8812 5.12707 22.9364 4.18228 22.9364 3.00543C22.9364 1.82858 23.8812 0.883789 25.058 0.883789C26.2349 0.883789 27.1797 1.82858 27.1797 3.00543C27.1797 4.18228 26.2349 5.12707 25.058 5.12707Z" fill="white" fill-opacity="0.5"/>
<path d="M1.19086 5.12707C0.0140157 5.12707 -0.930775 4.18228 -0.930775 3.00543C-0.930775 1.82858 0.0140157 0.883789 1.19086 0.883789C2.36771 0.883789 3.3125 1.82858 3.3125 3.00543C3.3125 4.18228 2.36771 5.12707 1.19086 5.12707Z" fill="white" fill-opacity="0.5"/>
<path d="M442.757 28.9943C441.58 28.9943 440.636 28.0495 440.636 26.8726C440.636 25.6958 441.58 24.751 442.757 24.751C443.934 24.751 444.879 25.6958 444.879 26.8726C444.879 28.0495 443.934 28.9943 442.757 28.9943Z" fill="white" fill-opacity="0.5"/>
<path d="M418.888 28.9943C417.711 28.9943 416.766 28.0495 416.766 26.8726C416.766 25.6958 417.711 24.751 418.888 24.751C420.065 24.751 421.01 25.6958 421.01 26.8726C421.01 28.0495 420.065 28.9943 418.888 28.9943Z" fill="white" fill-opacity="0.5"/>
<path d="M395.021 28.9943C393.844 28.9943 392.899 28.0495 392.899 26.8726C392.899 25.6958 393.844 24.751 395.021 24.751C396.198 24.751 397.143 25.6958 397.143 26.8726C397.143 28.0495 396.198 28.9943 395.021 28.9943Z" fill="white" fill-opacity="0.5"/>
<path d="M371.15 28.9943C369.973 28.9943 369.028 28.0495 369.028 26.8726C369.028 25.6958 369.973 24.751 371.15 24.751C372.327 24.751 373.271 25.6958 373.271 26.8726C373.271 28.0495 372.327 28.9943 371.15 28.9943Z" fill="white" fill-opacity="0.5"/>
<path d="M347.283 28.9943C346.106 28.9943 345.161 28.0495 345.161 26.8726C345.161 25.6958 346.106 24.751 347.283 24.751C348.46 24.751 349.404 25.6958 349.404 26.8726C349.404 28.0495 348.46 28.9943 347.283 28.9943Z" fill="white" fill-opacity="0.5"/>
<path d="M323.415 28.9943C322.239 28.9943 321.294 28.0495 321.294 26.8726C321.294 25.6958 322.239 24.751 323.415 24.751C324.592 24.751 325.537 25.6958 325.537 26.8726C325.537 28.0495 324.592 28.9943 323.415 28.9943Z" fill="white" fill-opacity="0.5"/>
<path d="M299.548 28.9943C298.371 28.9943 297.427 28.0495 297.427 26.8726C297.427 25.6958 298.371 24.751 299.548 24.751C300.725 24.751 301.67 25.6958 301.67 26.8726C301.67 28.0495 300.725 28.9943 299.548 28.9943Z" fill="white" fill-opacity="0.5"/>
<path d="M275.677 28.9943C274.5 28.9943 273.556 28.0495 273.556 26.8726C273.556 25.6958 274.5 24.751 275.677 24.751C276.854 24.751 277.799 25.6958 277.799 26.8726C277.799 28.0495 276.854 28.9943 275.677 28.9943Z" fill="white" fill-opacity="0.5"/>
<path d="M251.81 28.9943C250.633 28.9943 249.688 28.0495 249.688 26.8726C249.688 25.6958 250.633 24.751 251.81 24.751C252.987 24.751 253.932 25.6958 253.932 26.8726C253.932 28.0495 252.987 28.9943 251.81 28.9943Z" fill="white" fill-opacity="0.5"/>
<path d="M227.941 28.9943C226.764 28.9943 225.819 28.0495 225.819 26.8726C225.819 25.6958 226.764 24.751 227.941 24.751C229.118 24.751 230.062 25.6958 230.062 26.8726C230.062 28.0495 229.118 28.9943 227.941 28.9943Z" fill="white" fill-opacity="0.5"/>
<path d="M204.072 28.9943C202.895 28.9943 201.95 28.0495 201.95 26.8726C201.95 25.6958 202.895 24.751 204.072 24.751C205.249 24.751 206.193 25.6958 206.193 26.8726C206.193 28.0495 205.249 28.9943 204.072 28.9943Z" fill="white" fill-opacity="0.5"/>
<path d="M180.205 28.9943C179.028 28.9943 178.083 28.0495 178.083 26.8726C178.083 25.6958 179.028 24.751 180.205 24.751C181.381 24.751 182.326 25.6958 182.326 26.8726C182.326 28.0495 181.381 28.9943 180.205 28.9943Z" fill="white" fill-opacity="0.5"/>
<path d="M156.335 28.9943C155.159 28.9943 154.214 28.0495 154.214 26.8726C154.214 25.6958 155.159 24.751 156.335 24.751C157.512 24.751 158.457 25.6958 158.457 26.8726C158.457 28.0495 157.512 28.9943 156.335 28.9943Z" fill="white" fill-opacity="0.5"/>
<path d="M132.466 28.9943C131.289 28.9943 130.345 28.0495 130.345 26.8726C130.345 25.6958 131.289 24.751 132.466 24.751C133.643 24.751 134.588 25.6958 134.588 26.8726C134.588 28.0495 133.643 28.9943 132.466 28.9943Z" fill="white" fill-opacity="0.5"/>
<path d="M108.597 28.9943C107.42 28.9943 106.475 28.0495 106.475 26.8726C106.475 25.6958 107.42 24.751 108.597 24.751C109.774 24.751 110.719 25.6958 110.719 26.8726C110.719 28.0495 109.774 28.9943 108.597 28.9943Z" fill="white" fill-opacity="0.5"/>
<path d="M84.7319 28.9943C83.555 28.9943 82.6102 28.0495 82.6102 26.8726C82.6102 25.6958 83.555 24.751 84.7319 24.751C85.9087 24.751 86.8535 25.6958 86.8535 26.8726C86.8535 28.0495 85.9087 28.9943 84.7319 28.9943Z" fill="white" fill-opacity="0.5"/>
<path d="M60.8608 28.9943C59.6839 28.9943 58.7391 28.0495 58.7391 26.8726C58.7391 25.6958 59.6839 24.751 60.8608 24.751C62.0376 24.751 62.9824 25.6958 62.9824 26.8726C62.9824 28.0495 62.0376 28.9943 60.8608 28.9943Z" fill="white" fill-opacity="0.5"/>
<path d="M36.9936 28.9943C35.8168 28.9943 34.872 28.0495 34.872 26.8726C34.872 25.6958 35.8168 24.751 36.9936 24.751C38.1704 24.751 39.1152 25.6958 39.1152 26.8726C39.1152 28.0495 38.1704 28.9943 36.9936 28.9943Z" fill="white" fill-opacity="0.5"/>
<path d="M13.1245 28.9943C11.9476 28.9943 11.0028 28.0495 11.0028 26.8726C11.0028 25.6958 11.9476 24.751 13.1245 24.751C14.3013 24.751 15.2461 25.6958 15.2461 26.8726C15.2461 28.0495 14.3013 28.9943 13.1245 28.9943Z" fill="white" fill-opacity="0.5"/>
<path d="M454.691 52.8634C453.514 52.8634 452.569 51.9186 452.569 50.7418C452.569 49.5649 453.514 48.6201 454.691 48.6201C455.868 48.6201 456.812 49.5649 456.812 50.7418C456.812 51.9186 455.868 52.8634 454.691 52.8634Z" fill="white" fill-opacity="0.5"/>
<path d="M430.824 52.8634C429.647 52.8634 428.702 51.9186 428.702 50.7418C428.702 49.5649 429.647 48.6201 430.824 48.6201C432.001 48.6201 432.945 49.5649 432.945 50.7418C432.945 51.9186 432.001 52.8634 430.824 52.8634Z" fill="white" fill-opacity="0.5"/>
<path d="M406.953 52.8634C405.776 52.8634 404.831 51.9186 404.831 50.7418C404.831 49.5649 405.776 48.6201 406.953 48.6201C408.129 48.6201 409.074 49.5649 409.074 50.7418C409.074 51.9186 408.129 52.8634 406.953 52.8634Z" fill="white" fill-opacity="0.5"/>
<path d="M383.085 52.8634C381.909 52.8634 380.964 51.9186 380.964 50.7418C380.964 49.5649 381.909 48.6201 383.085 48.6201C384.262 48.6201 385.207 49.5649 385.207 50.7418C385.207 51.9186 384.262 52.8634 383.085 52.8634Z" fill="white" fill-opacity="0.5"/>
<path d="M359.218 52.8634C358.041 52.8634 357.097 51.9186 357.097 50.7418C357.097 49.5649 358.041 48.6201 359.218 48.6201C360.395 48.6201 361.34 49.5649 361.34 50.7418C361.34 51.9186 360.395 52.8634 359.218 52.8634Z" fill="white" fill-opacity="0.5"/>
<path d="M335.347 52.8634C334.17 52.8634 333.225 51.9186 333.225 50.7418C333.225 49.5649 334.17 48.6201 335.347 48.6201C336.524 48.6201 337.469 49.5649 337.469 50.7418C337.469 51.9186 336.524 52.8634 335.347 52.8634Z" fill="white" fill-opacity="0.5"/>
<path d="M311.48 52.8634C310.303 52.8634 309.358 51.9186 309.358 50.7418C309.358 49.5649 310.303 48.6201 311.48 48.6201C312.657 48.6201 313.602 49.5649 313.602 50.7418C313.602 51.9186 312.657 52.8634 311.48 52.8634Z" fill="white" fill-opacity="0.5"/>
<path d="M287.611 52.8634C286.434 52.8634 285.489 51.9186 285.489 50.7418C285.489 49.5649 286.434 48.6201 287.611 48.6201C288.788 48.6201 289.732 49.5649 289.732 50.7418C289.732 51.9186 288.788 52.8634 287.611 52.8634Z" fill="white" fill-opacity="0.5"/>
<path d="M263.746 52.8634C262.569 52.8634 261.624 51.9186 261.624 50.7418C261.624 49.5649 262.569 48.6201 263.746 48.6201C264.922 48.6201 265.867 49.5649 265.867 50.7418C265.867 51.9186 264.922 52.8634 263.746 52.8634Z" fill="white" fill-opacity="0.5"/>
<path d="M239.874 52.8634C238.698 52.8634 237.753 51.9186 237.753 50.7418C237.753 49.5649 238.698 48.6201 239.874 48.6201C241.051 48.6201 241.996 49.5649 241.996 50.7418C241.996 51.9186 241.051 52.8634 239.874 52.8634Z" fill="white" fill-opacity="0.5"/>
<path d="M216.007 52.8634C214.83 52.8634 213.886 51.9186 213.886 50.7418C213.886 49.5649 214.83 48.6201 216.007 48.6201C217.184 48.6201 218.129 49.5649 218.129 50.7418C218.129 51.9186 217.184 52.8634 216.007 52.8634Z" fill="white" fill-opacity="0.5"/>
<path d="M192.136 52.8634C190.959 52.8634 190.015 51.9186 190.015 50.7418C190.015 49.5649 190.959 48.6201 192.136 48.6201C193.313 48.6201 194.258 49.5649 194.258 50.7418C194.258 51.9186 193.313 52.8634 192.136 52.8634Z" fill="white" fill-opacity="0.5"/>
<path d="M168.269 52.8634C167.092 52.8634 166.147 51.9186 166.147 50.7418C166.147 49.5649 167.092 48.6201 168.269 48.6201C169.446 48.6201 170.391 49.5649 170.391 50.7418C170.391 51.9186 169.446 52.8634 168.269 52.8634Z" fill="white" fill-opacity="0.5"/>
<path d="M144.402 52.8634C143.225 52.8634 142.28 51.9186 142.28 50.7418C142.28 49.5649 143.225 48.6201 144.402 48.6201C145.579 48.6201 146.523 49.5649 146.523 50.7418C146.523 51.9186 145.579 52.8634 144.402 52.8634Z" fill="white" fill-opacity="0.5"/>
<path d="M120.535 52.8634C119.358 52.8634 118.413 51.9186 118.413 50.7418C118.413 49.5649 119.358 48.6201 120.535 48.6201C121.711 48.6201 122.656 49.5649 122.656 50.7418C122.656 51.9186 121.711 52.8634 120.535 52.8634Z" fill="white" fill-opacity="0.5"/>
<path d="M96.6635 52.8634C95.4867 52.8634 94.5419 51.9186 94.5419 50.7418C94.5419 49.5649 95.4867 48.6201 96.6635 48.6201C97.8404 48.6201 98.7852 49.5649 98.7852 50.7418C98.7852 51.9186 97.8404 52.8634 96.6635 52.8634Z" fill="white" fill-opacity="0.5"/>
<path d="M72.7963 52.8634C71.6195 52.8634 70.6747 51.9186 70.6747 50.7418C70.6747 49.5649 71.6195 48.6201 72.7963 48.6201C73.9732 48.6201 74.918 49.5649 74.918 50.7418C74.918 51.9186 73.9732 52.8634 72.7963 52.8634Z" fill="white" fill-opacity="0.5"/>
<path d="M48.9272 52.8634C47.7503 52.8634 46.8055 51.9186 46.8055 50.7418C46.8055 49.5649 47.7503 48.6201 48.9272 48.6201C50.104 48.6201 51.0488 49.5649 51.0488 50.7418C51.0488 51.9186 50.104 52.8634 48.9272 52.8634Z" fill="white" fill-opacity="0.5"/>
<path d="M25.058 52.8634C23.8812 52.8634 22.9364 51.9186 22.9364 50.7418C22.9364 49.5649 23.8812 48.6201 25.058 48.6201C26.2349 48.6201 27.1797 49.5649 27.1797 50.7418C27.1797 51.9186 26.2349 52.8634 25.058 52.8634Z" fill="white" fill-opacity="0.5"/>
<path d="M1.19086 52.8634C0.0140157 52.8634 -0.930775 51.9186 -0.930775 50.7418C-0.930775 49.5649 0.0140157 48.6201 1.19086 48.6201C2.36771 48.6201 3.3125 49.5649 3.3125 50.7418C3.3125 51.9186 2.36771 52.8634 1.19086 52.8634Z" fill="white" fill-opacity="0.5"/>
<path d="M442.757 76.7306C441.58 76.7306 440.636 75.7858 440.636 74.6089C440.636 73.4321 441.58 72.4873 442.757 72.4873C443.934 72.4873 444.879 73.4321 444.879 74.6089C444.879 75.7858 443.934 76.7306 442.757 76.7306Z" fill="white" fill-opacity="0.5"/>
<path d="M418.888 76.7306C417.711 76.7306 416.766 75.7858 416.766 74.6089C416.766 73.4321 417.711 72.4873 418.888 72.4873C420.065 72.4873 421.01 73.4321 421.01 74.6089C421.01 75.7858 420.065 76.7306 418.888 76.7306Z" fill="white" fill-opacity="0.5"/>
<path d="M395.021 76.7306C393.844 76.7306 392.899 75.7858 392.899 74.6089C392.899 73.4321 393.844 72.4873 395.021 72.4873C396.198 72.4873 397.143 73.4321 397.143 74.6089C397.143 75.7858 396.198 76.7306 395.021 76.7306Z" fill="white" fill-opacity="0.5"/>
<path d="M371.15 76.7306C369.973 76.7306 369.028 75.7858 369.028 74.6089C369.028 73.4321 369.973 72.4873 371.15 72.4873C372.327 72.4873 373.271 73.4321 373.271 74.6089C373.271 75.7858 372.327 76.7306 371.15 76.7306Z" fill="white" fill-opacity="0.5"/>
<path d="M347.283 76.7306C346.111 76.7306 345.161 75.7807 345.161 74.6089C345.161 73.4372 346.111 72.4873 347.283 72.4873C348.454 72.4873 349.404 73.4372 349.404 74.6089C349.404 75.7807 348.454 76.7306 347.283 76.7306Z" fill="white" fill-opacity="0.5"/>
<path d="M323.415 76.7306C322.239 76.7306 321.294 75.7858 321.294 74.6089C321.294 73.4321 322.239 72.4873 323.415 72.4873C324.592 72.4873 325.537 73.4321 325.537 74.6089C325.537 75.7858 324.592 76.7306 323.415 76.7306Z" fill="white" fill-opacity="0.5"/>
<path d="M299.548 76.7306C298.371 76.7306 297.427 75.7858 297.427 74.6089C297.427 73.4321 298.371 72.4873 299.548 72.4873C300.725 72.4873 301.67 73.4321 301.67 74.6089C301.67 75.7858 300.725 76.7306 299.548 76.7306Z" fill="white" fill-opacity="0.5"/>
<path d="M275.677 76.7306C274.5 76.7306 273.556 75.7858 273.556 74.6089C273.556 73.4321 274.5 72.4873 275.677 72.4873C276.854 72.4873 277.799 73.4321 277.799 74.6089C277.799 75.7858 276.854 76.7306 275.677 76.7306Z" fill="white" fill-opacity="0.5"/>
<path d="M251.81 76.7306C250.633 76.7306 249.688 75.7858 249.688 74.6089C249.688 73.4321 250.633 72.4873 251.81 72.4873C252.987 72.4873 253.932 73.4321 253.932 74.6089C253.932 75.7858 252.987 76.7306 251.81 76.7306Z" fill="white" fill-opacity="0.5"/>
<path d="M227.939 76.7306C226.767 76.7306 225.817 75.7807 225.817 74.6089C225.817 73.4372 226.767 72.4873 227.939 72.4873C229.111 72.4873 230.061 73.4372 230.061 74.6089C230.061 75.7807 229.111 76.7306 227.939 76.7306Z" fill="white" fill-opacity="0.5"/>
<path d="M204.072 76.7306C202.895 76.7306 201.95 75.7858 201.95 74.6089C201.95 73.4321 202.895 72.4873 204.072 72.4873C205.249 72.4873 206.193 73.4321 206.193 74.6089C206.193 75.7858 205.249 76.7306 204.072 76.7306Z" fill="white" fill-opacity="0.5"/>
<path d="M180.205 76.7306C179.028 76.7306 178.083 75.7858 178.083 74.6089C178.083 73.4321 179.028 72.4873 180.205 72.4873C181.381 72.4873 182.326 73.4321 182.326 74.6089C182.326 75.7858 181.381 76.7306 180.205 76.7306Z" fill="white" fill-opacity="0.5"/>
<path d="M156.335 76.7306C155.159 76.7306 154.214 75.7858 154.214 74.6089C154.214 73.4321 155.159 72.4873 156.335 72.4873C157.512 72.4873 158.457 73.4321 158.457 74.6089C158.457 75.7858 157.512 76.7306 156.335 76.7306Z" fill="white" fill-opacity="0.5"/>
<path d="M132.466 76.7306C131.289 76.7306 130.345 75.7858 130.345 74.6089C130.345 73.4321 131.289 72.4873 132.466 72.4873C133.643 72.4873 134.588 73.4321 134.588 74.6089C134.588 75.7858 133.643 76.7306 132.466 76.7306Z" fill="white" fill-opacity="0.5"/>
<path d="M108.597 76.7306C107.425 76.7306 106.475 75.7807 106.475 74.6089C106.475 73.4372 107.425 72.4873 108.597 72.4873C109.769 72.4873 110.719 73.4372 110.719 74.6089C110.719 75.7807 109.769 76.7306 108.597 76.7306Z" fill="white" fill-opacity="0.5"/>
<path d="M84.7319 76.7306C83.555 76.7306 82.6102 75.7858 82.6102 74.6089C82.6102 73.4321 83.555 72.4873 84.7319 72.4873C85.9087 72.4873 86.8535 73.4321 86.8535 74.6089C86.8535 75.7858 85.9087 76.7306 84.7319 76.7306Z" fill="white" fill-opacity="0.5"/>
<path d="M60.8608 76.7306C59.6839 76.7306 58.7391 75.7858 58.7391 74.6089C58.7391 73.4321 59.6839 72.4873 60.8608 72.4873C62.0376 72.4873 62.9824 73.4321 62.9824 74.6089C62.9824 75.7858 62.0376 76.7306 60.8608 76.7306Z" fill="white" fill-opacity="0.5"/>
<path d="M36.9936 76.7306C35.8168 76.7306 34.872 75.7858 34.872 74.6089C34.872 73.4321 35.8168 72.4873 36.9936 72.4873C38.1704 72.4873 39.1152 73.4321 39.1152 74.6089C39.1152 75.7858 38.1704 76.7306 36.9936 76.7306Z" fill="white" fill-opacity="0.5"/>
<path d="M13.1245 76.7306C11.9476 76.7306 11.0028 75.7858 11.0028 74.6089C11.0028 73.4321 11.9476 72.4873 13.1245 72.4873C14.3013 72.4873 15.2461 73.4321 15.2461 74.6089C15.2461 75.7858 14.3013 76.7306 13.1245 76.7306Z" fill="white" fill-opacity="0.5"/>
<path d="M454.691 100.6C453.514 100.6 452.569 99.6549 452.569 98.4781C452.569 97.3012 453.514 96.3564 454.691 96.3564C455.868 96.3564 456.812 97.3012 456.812 98.4781C456.812 99.6549 455.868 100.6 454.691 100.6Z" fill="white" fill-opacity="0.5"/>
<path d="M430.824 100.6C429.647 100.6 428.702 99.6549 428.702 98.4781C428.702 97.3012 429.647 96.3564 430.824 96.3564C432.001 96.3564 432.945 97.3012 432.945 98.4781C432.945 99.6549 432.001 100.6 430.824 100.6Z" fill="white" fill-opacity="0.5"/>
<path d="M406.953 100.6C405.781 100.6 404.831 99.6498 404.831 98.4781C404.831 97.3063 405.781 96.3564 406.953 96.3564C408.124 96.3564 409.074 97.3063 409.074 98.4781C409.074 99.6498 408.124 100.6 406.953 100.6Z" fill="white" fill-opacity="0.5"/>
<path d="M383.085 100.6C381.909 100.6 380.964 99.6549 380.964 98.4781C380.964 97.3012 381.909 96.3564 383.085 96.3564C384.262 96.3564 385.207 97.3012 385.207 98.4781C385.207 99.6549 384.262 100.6 383.085 100.6Z" fill="white" fill-opacity="0.5"/>
<path d="M359.218 100.6C358.041 100.6 357.097 99.6549 357.097 98.4781C357.097 97.3012 358.041 96.3564 359.218 96.3564C360.395 96.3564 361.34 97.3012 361.34 98.4781C361.34 99.6549 360.395 100.6 359.218 100.6Z" fill="white" fill-opacity="0.5"/>
<path d="M335.347 100.6C334.17 100.6 333.225 99.6549 333.225 98.4781C333.225 97.3012 334.17 96.3564 335.347 96.3564C336.524 96.3564 337.469 97.3012 337.469 98.4781C337.469 99.6549 336.524 100.6 335.347 100.6Z" fill="white" fill-opacity="0.5"/>
<path d="M311.48 100.6C310.303 100.6 309.358 99.6549 309.358 98.4781C309.358 97.3012 310.303 96.3564 311.48 96.3564C312.657 96.3564 313.602 97.3012 313.602 98.4781C313.602 99.6549 312.657 100.6 311.48 100.6Z" fill="white" fill-opacity="0.5"/>
<path d="M287.611 100.6C286.439 100.6 285.489 99.6498 285.489 98.4781C285.489 97.3063 286.439 96.3564 287.611 96.3564C288.783 96.3564 289.732 97.3063 289.732 98.4781C289.732 99.6498 288.783 100.6 287.611 100.6Z" fill="white" fill-opacity="0.5"/>
<path d="M263.746 100.6C262.569 100.6 261.624 99.6549 261.624 98.4781C261.624 97.3012 262.569 96.3564 263.746 96.3564C264.922 96.3564 265.867 97.3012 265.867 98.4781C265.867 99.6549 264.922 100.6 263.746 100.6Z" fill="white" fill-opacity="0.5"/>
<path d="M239.874 100.6C238.698 100.6 237.753 99.6549 237.753 98.4781C237.753 97.3012 238.698 96.3564 239.874 96.3564C241.051 96.3564 241.996 97.3012 241.996 98.4781C241.996 99.6549 241.051 100.6 239.874 100.6Z" fill="white" fill-opacity="0.5"/>
<path d="M216.007 100.6C214.83 100.6 213.886 99.6549 213.886 98.4781C213.886 97.3012 214.83 96.3564 216.007 96.3564C217.184 96.3564 218.129 97.3012 218.129 98.4781C218.129 99.6549 217.184 100.6 216.007 100.6Z" fill="white" fill-opacity="0.5"/>
<path d="M192.136 100.6C190.959 100.6 190.015 99.6549 190.015 98.4781C190.015 97.3012 190.959 96.3564 192.136 96.3564C193.313 96.3564 194.258 97.3012 194.258 98.4781C194.258 99.6549 193.313 100.6 192.136 100.6Z" fill="white" fill-opacity="0.5"/>
<path d="M168.269 100.6C167.097 100.6 166.147 99.6498 166.147 98.4781C166.147 97.3063 167.097 96.3564 168.269 96.3564C169.441 96.3564 170.391 97.3063 170.391 98.4781C170.391 99.6498 169.441 100.6 168.269 100.6Z" fill="white" fill-opacity="0.5"/>
<path d="M144.402 100.6C143.225 100.6 142.28 99.6549 142.28 98.4781C142.28 97.3012 143.225 96.3564 144.402 96.3564C145.579 96.3564 146.523 97.3012 146.523 98.4781C146.523 99.6549 145.579 100.6 144.402 100.6Z" fill="white" fill-opacity="0.5"/>
<path d="M120.535 100.6C119.358 100.6 118.413 99.6549 118.413 98.4781C118.413 97.3012 119.358 96.3564 120.535 96.3564C121.711 96.3564 122.656 97.3012 122.656 98.4781C122.656 99.6549 121.711 100.6 120.535 100.6Z" fill="white" fill-opacity="0.5"/>
<path d="M96.6635 100.6C95.4867 100.6 94.5419 99.6549 94.5419 98.4781C94.5419 97.3012 95.4867 96.3564 96.6635 96.3564C97.8404 96.3564 98.7852 97.3012 98.7852 98.4781C98.7852 99.6549 97.8404 100.6 96.6635 100.6Z" fill="white" fill-opacity="0.5"/>
<path d="M72.7963 100.6C71.6195 100.6 70.6747 99.6549 70.6747 98.4781C70.6747 97.3012 71.6195 96.3564 72.7963 96.3564C73.9732 96.3564 74.918 97.3012 74.918 98.4781C74.918 99.6549 73.9732 100.6 72.7963 100.6Z" fill="white" fill-opacity="0.5"/>
<path d="M48.9272 100.6C47.7554 100.6 46.8055 99.6498 46.8055 98.4781C46.8055 97.3063 47.7554 96.3564 48.9272 96.3564C50.0989 96.3564 51.0488 97.3063 51.0488 98.4781C51.0488 99.6498 50.0989 100.6 48.9272 100.6Z" fill="white" fill-opacity="0.5"/>
<path d="M25.058 100.6C23.8812 100.6 22.9364 99.6549 22.9364 98.4781C22.9364 97.3012 23.8812 96.3564 25.058 96.3564C26.2349 96.3564 27.1797 97.3012 27.1797 98.4781C27.1797 99.6549 26.2349 100.6 25.058 100.6Z" fill="white" fill-opacity="0.5"/>
<path d="M1.19086 100.6C0.0140157 100.6 -0.930775 99.6549 -0.930775 98.4781C-0.930775 97.3012 0.0140157 96.3564 1.19086 96.3564C2.36771 96.3564 3.3125 97.3012 3.3125 98.4781C3.3125 99.6549 2.36771 100.6 1.19086 100.6Z" fill="white" fill-opacity="0.5"/>
<path d="M442.757 124.469C441.58 124.469 440.636 123.524 440.636 122.347C440.636 121.17 441.58 120.226 442.757 120.226C443.934 120.226 444.879 121.17 444.879 122.347C444.879 123.524 443.934 124.469 442.757 124.469Z" fill="white" fill-opacity="0.5"/>
<path d="M418.888 124.469C417.711 124.469 416.766 123.524 416.766 122.347C416.766 121.17 417.711 120.226 418.888 120.226C420.065 120.226 421.01 121.17 421.01 122.347C421.01 123.524 420.065 124.469 418.888 124.469Z" fill="white" fill-opacity="0.5"/>
<path d="M395.021 124.469C393.844 124.469 392.899 123.524 392.899 122.347C392.899 121.17 393.844 120.226 395.021 120.226C396.198 120.226 397.143 121.17 397.143 122.347C397.143 123.524 396.198 124.469 395.021 124.469Z" fill="white" fill-opacity="0.5"/>
<path d="M371.15 124.469C369.973 124.469 369.028 123.524 369.028 122.347C369.028 121.17 369.973 120.226 371.15 120.226C372.327 120.226 373.271 121.17 373.271 122.347C373.271 123.524 372.327 124.469 371.15 124.469Z" fill="white" fill-opacity="0.5"/>
<path d="M347.283 124.469C346.106 124.469 345.161 123.524 345.161 122.347C345.161 121.17 346.106 120.226 347.283 120.226C348.46 120.226 349.404 121.17 349.404 122.347C349.404 123.524 348.46 124.469 347.283 124.469Z" fill="white" fill-opacity="0.5"/>
<path d="M323.415 124.469C322.239 124.469 321.294 123.524 321.294 122.347C321.294 121.17 322.239 120.226 323.415 120.226C324.592 120.226 325.537 121.17 325.537 122.347C325.537 123.524 324.592 124.469 323.415 124.469Z" fill="white" fill-opacity="0.5"/>
<path d="M299.548 124.469C298.371 124.469 297.427 123.524 297.427 122.347C297.427 121.17 298.371 120.226 299.548 120.226C300.725 120.226 301.67 121.17 301.67 122.347C301.67 123.524 300.725 124.469 299.548 124.469Z" fill="white" fill-opacity="0.5"/>
<path d="M275.677 124.469C274.5 124.469 273.556 123.524 273.556 122.347C273.556 121.17 274.5 120.226 275.677 120.226C276.854 120.226 277.799 121.17 277.799 122.347C277.799 123.524 276.854 124.469 275.677 124.469Z" fill="white" fill-opacity="0.5"/>
<path d="M251.81 124.469C250.633 124.469 249.688 123.524 249.688 122.347C249.688 121.17 250.633 120.226 251.81 120.226C252.987 120.226 253.932 121.17 253.932 122.347C253.932 123.524 252.987 124.469 251.81 124.469Z" fill="white" fill-opacity="0.5"/>
<path d="M227.939 124.469C226.762 124.469 225.817 123.524 225.817 122.347C225.817 121.17 226.762 120.226 227.939 120.226C229.116 120.226 230.061 121.17 230.061 122.347C230.061 123.524 229.116 124.469 227.939 124.469Z" fill="white" fill-opacity="0.5"/>
<path d="M204.072 124.469C202.895 124.469 201.95 123.524 201.95 122.347C201.95 121.17 202.895 120.226 204.072 120.226C205.249 120.226 206.193 121.17 206.193 122.347C206.193 123.524 205.249 124.469 204.072 124.469Z" fill="white" fill-opacity="0.5"/>
<path d="M180.205 124.469C179.028 124.469 178.083 123.524 178.083 122.347C178.083 121.17 179.028 120.226 180.205 120.226C181.381 120.226 182.326 121.17 182.326 122.347C182.326 123.524 181.381 124.469 180.205 124.469Z" fill="white" fill-opacity="0.5"/>
<path d="M156.335 124.469C155.159 124.469 154.214 123.524 154.214 122.347C154.214 121.17 155.159 120.226 156.335 120.226C157.512 120.226 158.457 121.17 158.457 122.347C158.457 123.524 157.512 124.469 156.335 124.469Z" fill="white" fill-opacity="0.5"/>
<path d="M132.466 124.469C131.289 124.469 130.345 123.524 130.345 122.347C130.345 121.17 131.289 120.226 132.466 120.226C133.643 120.226 134.588 121.17 134.588 122.347C134.588 123.524 133.643 124.469 132.466 124.469Z" fill="white" fill-opacity="0.5"/>
<path d="M108.597 124.469C107.42 124.469 106.475 123.524 106.475 122.347C106.475 121.17 107.42 120.226 108.597 120.226C109.774 120.226 110.719 121.17 110.719 122.347C110.719 123.524 109.774 124.469 108.597 124.469Z" fill="white" fill-opacity="0.5"/>
<path d="M84.7319 124.469C83.555 124.469 82.6102 123.524 82.6102 122.347C82.6102 121.17 83.555 120.226 84.7319 120.226C85.9087 120.226 86.8535 121.17 86.8535 122.347C86.8535 123.524 85.9087 124.469 84.7319 124.469Z" fill="white" fill-opacity="0.5"/>
<path d="M60.8608 124.469C59.6839 124.469 58.7391 123.524 58.7391 122.347C58.7391 121.17 59.6839 120.226 60.8608 120.226C62.0376 120.226 62.9824 121.17 62.9824 122.347C62.9824 123.524 62.0376 124.469 60.8608 124.469Z" fill="white" fill-opacity="0.5"/>
<path d="M36.9936 124.469C35.8168 124.469 34.872 123.524 34.872 122.347C34.872 121.17 35.8168 120.226 36.9936 120.226C38.1704 120.226 39.1152 121.17 39.1152 122.347C39.1152 123.524 38.1704 124.469 36.9936 124.469Z" fill="white" fill-opacity="0.5"/>
<path d="M13.1245 124.469C11.9476 124.469 11.0028 123.524 11.0028 122.347C11.0028 121.17 11.9476 120.226 13.1245 120.226C14.3013 120.226 15.2461 121.17 15.2461 122.347C15.2461 123.524 14.3013 124.469 13.1245 124.469Z" fill="white" fill-opacity="0.5"/>
<path d="M454.691 148.337C453.514 148.337 452.569 147.392 452.569 146.215C452.569 145.039 453.514 144.094 454.691 144.094C455.868 144.094 456.812 145.039 456.812 146.215C456.812 147.392 455.868 148.337 454.691 148.337Z" fill="white" fill-opacity="0.5"/>
<path d="M430.824 148.336C429.647 148.336 428.702 147.391 428.702 146.214C428.702 145.038 429.647 144.093 430.824 144.093C432.001 144.093 432.945 145.038 432.945 146.214C432.945 147.391 432.001 148.336 430.824 148.336Z" fill="white" fill-opacity="0.5"/>
<path d="M406.953 148.336C405.776 148.336 404.831 147.391 404.831 146.214C404.831 145.038 405.776 144.093 406.953 144.093C408.129 144.093 409.074 145.038 409.074 146.214C409.074 147.391 408.129 148.336 406.953 148.336Z" fill="white" fill-opacity="0.5"/>
<path d="M383.085 148.336C381.909 148.336 380.964 147.391 380.964 146.214C380.964 145.038 381.909 144.093 383.085 144.093C384.262 144.093 385.207 145.038 385.207 146.214C385.207 147.391 384.262 148.336 383.085 148.336Z" fill="white" fill-opacity="0.5"/>
<path d="M359.218 148.336C358.041 148.336 357.097 147.391 357.097 146.214C357.097 145.038 358.041 144.093 359.218 144.093C360.395 144.093 361.34 145.038 361.34 146.214C361.34 147.391 360.395 148.336 359.218 148.336Z" fill="white" fill-opacity="0.5"/>
<path d="M335.347 148.337C334.17 148.337 333.225 147.392 333.225 146.215C333.225 145.039 334.17 144.094 335.347 144.094C336.524 144.094 337.469 145.039 337.469 146.215C337.469 147.392 336.524 148.337 335.347 148.337Z" fill="white" fill-opacity="0.5"/>
<path d="M311.48 148.336C310.303 148.336 309.358 147.391 309.358 146.214C309.358 145.038 310.303 144.093 311.48 144.093C312.657 144.093 313.602 145.038 313.602 146.214C313.602 147.391 312.657 148.336 311.48 148.336Z" fill="white" fill-opacity="0.5"/>
<path d="M287.611 148.336C286.434 148.336 285.489 147.391 285.489 146.214C285.489 145.038 286.434 144.093 287.611 144.093C288.788 144.093 289.732 145.038 289.732 146.214C289.732 147.391 288.788 148.336 287.611 148.336Z" fill="white" fill-opacity="0.5"/>
<path d="M263.746 148.336C262.569 148.336 261.624 147.391 261.624 146.214C261.624 145.038 262.569 144.093 263.746 144.093C264.922 144.093 265.867 145.038 265.867 146.214C265.867 147.391 264.922 148.336 263.746 148.336Z" fill="white" fill-opacity="0.5"/>
<path d="M239.874 148.336C238.698 148.336 237.753 147.391 237.753 146.214C237.753 145.038 238.698 144.093 239.874 144.093C241.051 144.093 241.996 145.038 241.996 146.214C241.996 147.391 241.051 148.336 239.874 148.336Z" fill="white" fill-opacity="0.5"/>
<path d="M216.007 148.337C214.83 148.337 213.886 147.392 213.886 146.215C213.886 145.039 214.83 144.094 216.007 144.094C217.184 144.094 218.129 145.039 218.129 146.215C218.129 147.392 217.184 148.337 216.007 148.337Z" fill="white" fill-opacity="0.5"/>
<path d="M192.136 148.336C190.959 148.336 190.015 147.391 190.015 146.214C190.015 145.038 190.959 144.093 192.136 144.093C193.313 144.093 194.258 145.038 194.258 146.214C194.258 147.391 193.313 148.336 192.136 148.336Z" fill="white" fill-opacity="0.5"/>
<path d="M168.269 148.336C167.092 148.336 166.147 147.391 166.147 146.214C166.147 145.038 167.092 144.093 168.269 144.093C169.446 144.093 170.391 145.038 170.391 146.214C170.391 147.391 169.446 148.336 168.269 148.336Z" fill="white" fill-opacity="0.5"/>
<path d="M144.402 148.336C143.225 148.336 142.28 147.391 142.28 146.214C142.28 145.038 143.225 144.093 144.402 144.093C145.579 144.093 146.523 145.038 146.523 146.214C146.523 147.391 145.579 148.336 144.402 148.336Z" fill="white" fill-opacity="0.5"/>
<path d="M120.535 148.336C119.358 148.336 118.413 147.391 118.413 146.214C118.413 145.038 119.358 144.093 120.535 144.093C121.711 144.093 122.656 145.038 122.656 146.214C122.656 147.391 121.711 148.336 120.535 148.336Z" fill="white" fill-opacity="0.5"/>
<path d="M96.6635 148.337C95.4867 148.337 94.5419 147.392 94.5419 146.215C94.5419 145.039 95.4867 144.094 96.6635 144.094C97.8404 144.094 98.7852 145.039 98.7852 146.215C98.7852 147.392 97.8404 148.337 96.6635 148.337Z" fill="white" fill-opacity="0.5"/>
<path d="M72.7963 148.336C71.6195 148.336 70.6747 147.391 70.6747 146.214C70.6747 145.038 71.6195 144.093 72.7963 144.093C73.9732 144.093 74.918 145.038 74.918 146.214C74.918 147.391 73.9732 148.336 72.7963 148.336Z" fill="white" fill-opacity="0.5"/>
<path d="M48.9272 148.336C47.7503 148.336 46.8055 147.391 46.8055 146.214C46.8055 145.038 47.7503 144.093 48.9272 144.093C50.104 144.093 51.0488 145.038 51.0488 146.214C51.0488 147.391 50.104 148.336 48.9272 148.336Z" fill="white" fill-opacity="0.5"/>
<path d="M25.058 148.336C23.8812 148.336 22.9364 147.391 22.9364 146.214C22.9364 145.038 23.8812 144.093 25.058 144.093C26.2349 144.093 27.1797 145.038 27.1797 146.214C27.1797 147.391 26.2349 148.336 25.058 148.336Z" fill="white" fill-opacity="0.5"/>
<path d="M1.19086 148.336C0.0140157 148.336 -0.930775 147.391 -0.930775 146.214C-0.930775 145.038 0.0140157 144.093 1.19086 144.093C2.36771 144.093 3.3125 145.038 3.3125 146.214C3.3125 147.391 2.36771 148.336 1.19086 148.336Z" fill="white" fill-opacity="0.5"/>
<path d="M442.757 172.205C441.58 172.205 440.636 171.26 440.636 170.084C440.636 168.907 441.58 167.962 442.757 167.962C443.934 167.962 444.879 168.907 444.879 170.084C444.879 171.26 443.934 172.205 442.757 172.205Z" fill="white" fill-opacity="0.5"/>
<path d="M418.888 172.205C417.711 172.205 416.766 171.26 416.766 170.084C416.766 168.907 417.711 167.962 418.888 167.962C420.065 167.962 421.01 168.907 421.01 170.084C421.01 171.26 420.065 172.205 418.888 172.205Z" fill="white" fill-opacity="0.5"/>
<path d="M395.021 172.205C393.844 172.205 392.899 171.26 392.899 170.084C392.899 168.907 393.844 167.962 395.021 167.962C396.198 167.962 397.143 168.907 397.143 170.084C397.143 171.26 396.198 172.205 395.021 172.205Z" fill="white" fill-opacity="0.5"/>
<path d="M371.15 172.205C369.973 172.205 369.028 171.26 369.028 170.084C369.028 168.907 369.973 167.962 371.15 167.962C372.327 167.962 373.271 168.907 373.271 170.084C373.271 171.26 372.327 172.205 371.15 172.205Z" fill="white" fill-opacity="0.5"/>
<path d="M347.283 172.205C346.106 172.205 345.161 171.26 345.161 170.084C345.161 168.907 346.106 167.962 347.283 167.962C348.46 167.962 349.404 168.907 349.404 170.084C349.404 171.26 348.46 172.205 347.283 172.205Z" fill="white" fill-opacity="0.5"/>
<path d="M323.415 172.205C322.239 172.205 321.294 171.26 321.294 170.084C321.294 168.907 322.239 167.962 323.415 167.962C324.592 167.962 325.537 168.907 325.537 170.084C325.537 171.26 324.592 172.205 323.415 172.205Z" fill="white" fill-opacity="0.5"/>
<path d="M299.548 172.205C298.371 172.205 297.427 171.26 297.427 170.084C297.427 168.907 298.371 167.962 299.548 167.962C300.725 167.962 301.67 168.907 301.67 170.084C301.67 171.26 300.725 172.205 299.548 172.205Z" fill="white" fill-opacity="0.5"/>
<path d="M275.677 172.205C274.5 172.205 273.556 171.26 273.556 170.084C273.556 168.907 274.5 167.962 275.677 167.962C276.854 167.962 277.799 168.907 277.799 170.084C277.799 171.26 276.854 172.205 275.677 172.205Z" fill="white" fill-opacity="0.5"/>
<path d="M251.81 172.205C250.633 172.205 249.688 171.26 249.688 170.084C249.688 168.907 250.633 167.962 251.81 167.962C252.987 167.962 253.932 168.907 253.932 170.084C253.932 171.26 252.987 172.205 251.81 172.205Z" fill="white" fill-opacity="0.5"/>
<path d="M227.939 172.205C226.762 172.205 225.817 171.26 225.817 170.084C225.817 168.907 226.762 167.962 227.939 167.962C229.116 167.962 230.061 168.907 230.061 170.084C230.061 171.26 229.116 172.205 227.939 172.205Z" fill="white" fill-opacity="0.5"/>
<path d="M204.072 172.205C202.895 172.205 201.95 171.26 201.95 170.084C201.95 168.907 202.895 167.962 204.072 167.962C205.249 167.962 206.193 168.907 206.193 170.084C206.193 171.26 205.249 172.205 204.072 172.205Z" fill="white" fill-opacity="0.5"/>
<path d="M180.205 172.205C179.028 172.205 178.083 171.26 178.083 170.084C178.083 168.907 179.028 167.962 180.205 167.962C181.381 167.962 182.326 168.907 182.326 170.084C182.326 171.26 181.381 172.205 180.205 172.205Z" fill="white" fill-opacity="0.5"/>
<path d="M156.335 172.205C155.159 172.205 154.214 171.26 154.214 170.084C154.214 168.907 155.159 167.962 156.335 167.962C157.512 167.962 158.457 168.907 158.457 170.084C158.457 171.26 157.512 172.205 156.335 172.205Z" fill="white" fill-opacity="0.5"/>
<path d="M132.466 172.205C131.289 172.205 130.345 171.26 130.345 170.084C130.345 168.907 131.289 167.962 132.466 167.962C133.643 167.962 134.588 168.907 134.588 170.084C134.588 171.26 133.643 172.205 132.466 172.205Z" fill="white" fill-opacity="0.5"/>
<path d="M108.597 172.205C107.42 172.205 106.475 171.26 106.475 170.084C106.475 168.907 107.42 167.962 108.597 167.962C109.774 167.962 110.719 168.907 110.719 170.084C110.719 171.26 109.774 172.205 108.597 172.205Z" fill="white" fill-opacity="0.5"/>
<path d="M84.7319 172.205C83.555 172.205 82.6102 171.26 82.6102 170.084C82.6102 168.907 83.555 167.962 84.7319 167.962C85.9087 167.962 86.8535 168.907 86.8535 170.084C86.8535 171.26 85.9087 172.205 84.7319 172.205Z" fill="white" fill-opacity="0.5"/>
<path d="M60.8608 172.205C59.6839 172.205 58.7391 171.26 58.7391 170.084C58.7391 168.907 59.6839 167.962 60.8608 167.962C62.0376 167.962 62.9824 168.907 62.9824 170.084C62.9824 171.26 62.0376 172.205 60.8608 172.205Z" fill="white" fill-opacity="0.5"/>
<path d="M36.9936 172.205C35.8168 172.205 34.872 171.26 34.872 170.084C34.872 168.907 35.8168 167.962 36.9936 167.962C38.1704 167.962 39.1152 168.907 39.1152 170.084C39.1152 171.26 38.1704 172.205 36.9936 172.205Z" fill="white" fill-opacity="0.5"/>
<path d="M13.1245 172.205C11.9476 172.205 11.0028 171.26 11.0028 170.084C11.0028 168.907 11.9476 167.962 13.1245 167.962C14.3013 167.962 15.2461 168.907 15.2461 170.084C15.2461 171.26 14.3013 172.205 13.1245 172.205Z" fill="white" fill-opacity="0.5"/>
<path d="M454.691 196.074C453.514 196.074 452.569 195.13 452.569 193.953C452.569 192.776 453.514 191.831 454.691 191.831C455.868 191.831 456.812 192.776 456.812 193.953C456.812 195.13 455.868 196.074 454.691 196.074Z" fill="white" fill-opacity="0.5"/>
<path d="M430.824 196.074C429.647 196.074 428.702 195.13 428.702 193.953C428.702 192.776 429.647 191.831 430.824 191.831C432.001 191.831 432.945 192.776 432.945 193.953C432.945 195.13 432.001 196.074 430.824 196.074Z" fill="white" fill-opacity="0.5"/>
<path d="M406.953 196.074C405.781 196.074 404.831 195.124 404.831 193.953C404.831 192.781 405.781 191.831 406.953 191.831C408.124 191.831 409.074 192.781 409.074 193.953C409.074 195.124 408.124 196.074 406.953 196.074Z" fill="white" fill-opacity="0.5"/>
<path d="M383.085 196.074C381.909 196.074 380.964 195.13 380.964 193.953C380.964 192.776 381.909 191.831 383.085 191.831C384.262 191.831 385.207 192.776 385.207 193.953C385.207 195.13 384.262 196.074 383.085 196.074Z" fill="white" fill-opacity="0.5"/>
<path d="M359.218 196.074C358.041 196.074 357.097 195.13 357.097 193.953C357.097 192.776 358.041 191.831 359.218 191.831C360.395 191.831 361.34 192.776 361.34 193.953C361.34 195.13 360.395 196.074 359.218 196.074Z" fill="white" fill-opacity="0.5"/>
<path d="M335.347 196.074C334.17 196.074 333.225 195.13 333.225 193.953C333.225 192.776 334.17 191.831 335.347 191.831C336.524 191.831 337.469 192.776 337.469 193.953C337.469 195.13 336.524 196.074 335.347 196.074Z" fill="white" fill-opacity="0.5"/>
<path d="M311.48 196.074C310.303 196.074 309.358 195.13 309.358 193.953C309.358 192.776 310.303 191.831 311.48 191.831C312.657 191.831 313.602 192.776 313.602 193.953C313.602 195.13 312.657 196.074 311.48 196.074Z" fill="white" fill-opacity="0.5"/>
<path d="M287.611 196.074C286.439 196.074 285.489 195.124 285.489 193.953C285.489 192.781 286.439 191.831 287.611 191.831C288.783 191.831 289.732 192.781 289.732 193.953C289.732 195.124 288.783 196.074 287.611 196.074Z" fill="white" fill-opacity="0.5"/>
<path d="M263.746 196.074C262.569 196.074 261.624 195.13 261.624 193.953C261.624 192.776 262.569 191.831 263.746 191.831C264.922 191.831 265.867 192.776 265.867 193.953C265.867 195.13 264.922 196.074 263.746 196.074Z" fill="white" fill-opacity="0.5"/>
<path d="M239.874 196.074C238.698 196.074 237.753 195.13 237.753 193.953C237.753 192.776 238.698 191.831 239.874 191.831C241.051 191.831 241.996 192.776 241.996 193.953C241.996 195.13 241.051 196.074 239.874 196.074Z" fill="white" fill-opacity="0.5"/>
<path d="M216.007 196.074C214.83 196.074 213.886 195.13 213.886 193.953C213.886 192.776 214.83 191.831 216.007 191.831C217.184 191.831 218.129 192.776 218.129 193.953C218.129 195.13 217.184 196.074 216.007 196.074Z" fill="white" fill-opacity="0.5"/>
<path d="M192.136 196.074C190.959 196.074 190.015 195.13 190.015 193.953C190.015 192.776 190.959 191.831 192.136 191.831C193.313 191.831 194.258 192.776 194.258 193.953C194.258 195.13 193.313 196.074 192.136 196.074Z" fill="white" fill-opacity="0.5"/>
<path d="M168.269 196.074C167.097 196.074 166.147 195.124 166.147 193.953C166.147 192.781 167.097 191.831 168.269 191.831C169.441 191.831 170.391 192.781 170.391 193.953C170.391 195.124 169.441 196.074 168.269 196.074Z" fill="white" fill-opacity="0.5"/>
<path d="M144.402 196.074C143.225 196.074 142.28 195.13 142.28 193.953C142.28 192.776 143.225 191.831 144.402 191.831C145.579 191.831 146.523 192.776 146.523 193.953C146.523 195.13 145.579 196.074 144.402 196.074Z" fill="white" fill-opacity="0.5"/>
<path d="M120.535 196.074C119.358 196.074 118.413 195.13 118.413 193.953C118.413 192.776 119.358 191.831 120.535 191.831C121.711 191.831 122.656 192.776 122.656 193.953C122.656 195.13 121.711 196.074 120.535 196.074Z" fill="white" fill-opacity="0.5"/>
<path d="M96.6635 196.074C95.4867 196.074 94.5419 195.13 94.5419 193.953C94.5419 192.776 95.4867 191.831 96.6635 191.831C97.8404 191.831 98.7852 192.776 98.7852 193.953C98.7852 195.13 97.8404 196.074 96.6635 196.074Z" fill="white" fill-opacity="0.5"/>
<path d="M72.7963 196.074C71.6195 196.074 70.6747 195.13 70.6747 193.953C70.6747 192.776 71.6195 191.831 72.7963 191.831C73.9732 191.831 74.918 192.776 74.918 193.953C74.918 195.13 73.9732 196.074 72.7963 196.074Z" fill="white" fill-opacity="0.5"/>
<path d="M48.9272 196.074C47.7554 196.074 46.8055 195.124 46.8055 193.953C46.8055 192.781 47.7554 191.831 48.9272 191.831C50.0989 191.831 51.0488 192.781 51.0488 193.953C51.0488 195.124 50.0989 196.074 48.9272 196.074Z" fill="white" fill-opacity="0.5"/>
<path d="M25.058 196.074C23.8812 196.074 22.9364 195.13 22.9364 193.953C22.9364 192.776 23.8812 191.831 25.058 191.831C26.2349 191.831 27.1797 192.776 27.1797 193.953C27.1797 195.13 26.2349 196.074 25.058 196.074Z" fill="white" fill-opacity="0.5"/>
<path d="M1.19086 196.074C0.0140157 196.074 -0.930775 195.13 -0.930775 193.953C-0.930775 192.776 0.0140157 191.831 1.19086 191.831C2.36771 191.831 3.3125 192.776 3.3125 193.953C3.3125 195.13 2.36771 196.074 1.19086 196.074Z" fill="white" fill-opacity="0.5"/>
<path d="M442.757 219.942C441.58 219.942 440.636 218.998 440.636 217.821C440.636 216.644 441.58 215.699 442.757 215.699C443.934 215.699 444.879 216.644 444.879 217.821C444.879 218.998 443.934 219.942 442.757 219.942Z" fill="white" fill-opacity="0.5"/>
<path d="M418.888 219.942C417.711 219.942 416.766 218.998 416.766 217.821C416.766 216.644 417.711 215.699 418.888 215.699C420.065 215.699 421.01 216.644 421.01 217.821C421.01 218.998 420.065 219.942 418.888 219.942Z" fill="white" fill-opacity="0.5"/>
<path d="M395.021 219.942C393.844 219.942 392.899 218.998 392.899 217.821C392.899 216.644 393.844 215.699 395.021 215.699C396.198 215.699 397.143 216.644 397.143 217.821C397.143 218.998 396.198 219.942 395.021 219.942Z" fill="white" fill-opacity="0.5"/>
<path d="M371.15 219.942C369.973 219.942 369.028 218.998 369.028 217.821C369.028 216.644 369.973 215.699 371.15 215.699C372.327 215.699 373.271 216.644 373.271 217.821C373.271 218.998 372.327 219.942 371.15 219.942Z" fill="white" fill-opacity="0.5"/>
<path d="M347.283 219.942C346.111 219.942 345.161 218.993 345.161 217.821C345.161 216.649 346.111 215.699 347.283 215.699C348.454 215.699 349.404 216.649 349.404 217.821C349.404 218.993 348.454 219.942 347.283 219.942Z" fill="white" fill-opacity="0.5"/>
<path d="M323.415 219.942C322.239 219.942 321.294 218.998 321.294 217.821C321.294 216.644 322.239 215.699 323.415 215.699C324.592 215.699 325.537 216.644 325.537 217.821C325.537 218.998 324.592 219.942 323.415 219.942Z" fill="white" fill-opacity="0.5"/>
<path d="M299.548 219.942C298.371 219.942 297.427 218.998 297.427 217.821C297.427 216.644 298.371 215.699 299.548 215.699C300.725 215.699 301.67 216.644 301.67 217.821C301.67 218.998 300.725 219.942 299.548 219.942Z" fill="white" fill-opacity="0.5"/>
<path d="M275.677 219.942C274.5 219.942 273.556 218.998 273.556 217.821C273.556 216.644 274.5 215.699 275.677 215.699C276.854 215.699 277.799 216.644 277.799 217.821C277.799 218.998 276.854 219.942 275.677 219.942Z" fill="white" fill-opacity="0.5"/>
<path d="M251.81 219.942C250.633 219.942 249.688 218.998 249.688 217.821C249.688 216.644 250.633 215.699 251.81 215.699C252.987 215.699 253.932 216.644 253.932 217.821C253.932 218.998 252.987 219.942 251.81 219.942Z" fill="white" fill-opacity="0.5"/>
<path d="M227.939 219.942C226.767 219.942 225.817 218.993 225.817 217.821C225.817 216.649 226.767 215.699 227.939 215.699C229.111 215.699 230.061 216.649 230.061 217.821C230.061 218.993 229.111 219.942 227.939 219.942Z" fill="white" fill-opacity="0.5"/>
<path d="M204.072 219.942C202.895 219.942 201.95 218.998 201.95 217.821C201.95 216.644 202.895 215.699 204.072 215.699C205.249 215.699 206.193 216.644 206.193 217.821C206.193 218.998 205.249 219.942 204.072 219.942Z" fill="white" fill-opacity="0.5"/>
<path d="M180.205 219.942C179.028 219.942 178.083 218.998 178.083 217.821C178.083 216.644 179.028 215.699 180.205 215.699C181.381 215.699 182.326 216.644 182.326 217.821C182.326 218.998 181.381 219.942 180.205 219.942Z" fill="white" fill-opacity="0.5"/>
<path d="M156.335 219.942C155.159 219.942 154.214 218.998 154.214 217.821C154.214 216.644 155.159 215.699 156.335 215.699C157.512 215.699 158.457 216.644 158.457 217.821C158.457 218.998 157.512 219.942 156.335 219.942Z" fill="white" fill-opacity="0.5"/>
<path d="M132.466 219.942C131.289 219.942 130.345 218.998 130.345 217.821C130.345 216.644 131.289 215.699 132.466 215.699C133.643 215.699 134.588 216.644 134.588 217.821C134.588 218.998 133.643 219.942 132.466 219.942Z" fill="white" fill-opacity="0.5"/>
<path d="M108.597 219.942C107.425 219.942 106.475 218.993 106.475 217.821C106.475 216.649 107.425 215.699 108.597 215.699C109.769 215.699 110.719 216.649 110.719 217.821C110.719 218.993 109.769 219.942 108.597 219.942Z" fill="white" fill-opacity="0.5"/>
<path d="M84.7319 219.942C83.555 219.942 82.6102 218.998 82.6102 217.821C82.6102 216.644 83.555 215.699 84.7319 215.699C85.9087 215.699 86.8535 216.644 86.8535 217.821C86.8535 218.998 85.9087 219.942 84.7319 219.942Z" fill="white" fill-opacity="0.5"/>
<path d="M60.8608 219.942C59.6839 219.942 58.7391 218.998 58.7391 217.821C58.7391 216.644 59.6839 215.699 60.8608 215.699C62.0376 215.699 62.9824 216.644 62.9824 217.821C62.9824 218.998 62.0376 219.942 60.8608 219.942Z" fill="white" fill-opacity="0.5"/>
<path d="M36.9936 219.942C35.8168 219.942 34.872 218.998 34.872 217.821C34.872 216.644 35.8168 215.699 36.9936 215.699C38.1704 215.699 39.1152 216.644 39.1152 217.821C39.1152 218.998 38.1704 219.942 36.9936 219.942Z" fill="white" fill-opacity="0.5"/>
<path d="M13.1245 219.942C11.9476 219.942 11.0028 218.998 11.0028 217.821C11.0028 216.644 11.9476 215.699 13.1245 215.699C14.3013 215.699 15.2461 216.644 15.2461 217.821C15.2461 218.998 14.3013 219.942 13.1245 219.942Z" fill="white" fill-opacity="0.5"/>
<path d="M454.691 243.812C453.514 243.812 452.569 242.867 452.569 241.69C452.569 240.513 453.514 239.568 454.691 239.568C455.868 239.568 456.812 240.513 456.812 241.69C456.812 242.867 455.868 243.812 454.691 243.812Z" fill="white" fill-opacity="0.5"/>
<path d="M430.824 243.812C429.647 243.812 428.702 242.867 428.702 241.69C428.702 240.513 429.647 239.568 430.824 239.568C432.001 239.568 432.945 240.513 432.945 241.69C432.945 242.867 432.001 243.812 430.824 243.812Z" fill="white" fill-opacity="0.5"/>
<path d="M406.953 243.812C405.776 243.812 404.831 242.867 404.831 241.69C404.831 240.513 405.776 239.568 406.953 239.568C408.129 239.568 409.074 240.513 409.074 241.69C409.074 242.867 408.129 243.812 406.953 243.812Z" fill="white" fill-opacity="0.5"/>
<path d="M383.085 243.812C381.909 243.812 380.964 242.867 380.964 241.69C380.964 240.513 381.909 239.568 383.085 239.568C384.262 239.568 385.207 240.513 385.207 241.69C385.207 242.867 384.262 243.812 383.085 243.812Z" fill="white" fill-opacity="0.5"/>
<path d="M359.218 243.812C358.041 243.812 357.097 242.867 357.097 241.69C357.097 240.513 358.041 239.568 359.218 239.568C360.395 239.568 361.34 240.513 361.34 241.69C361.34 242.867 360.395 243.812 359.218 243.812Z" fill="white" fill-opacity="0.5"/>
<path d="M335.347 243.812C334.17 243.812 333.225 242.867 333.225 241.69C333.225 240.513 334.17 239.568 335.347 239.568C336.524 239.568 337.469 240.513 337.469 241.69C337.469 242.867 336.524 243.812 335.347 243.812Z" fill="white" fill-opacity="0.5"/>
<path d="M311.48 243.812C310.303 243.812 309.358 242.867 309.358 241.69C309.358 240.513 310.303 239.568 311.48 239.568C312.657 239.568 313.602 240.513 313.602 241.69C313.602 242.867 312.657 243.812 311.48 243.812Z" fill="white" fill-opacity="0.5"/>
<path d="M287.611 243.812C286.434 243.812 285.489 242.867 285.489 241.69C285.489 240.513 286.434 239.568 287.611 239.568C288.788 239.568 289.732 240.513 289.732 241.69C289.732 242.867 288.788 243.812 287.611 243.812Z" fill="white" fill-opacity="0.5"/>
<path d="M263.746 243.812C262.569 243.812 261.624 242.867 261.624 241.69C261.624 240.513 262.569 239.568 263.746 239.568C264.922 239.568 265.867 240.513 265.867 241.69C265.867 242.867 264.922 243.812 263.746 243.812Z" fill="white" fill-opacity="0.5"/>
<path d="M239.874 243.812C238.698 243.812 237.753 242.867 237.753 241.69C237.753 240.513 238.698 239.568 239.874 239.568C241.051 239.568 241.996 240.513 241.996 241.69C241.996 242.867 241.051 243.812 239.874 243.812Z" fill="white" fill-opacity="0.5"/>
<path d="M216.007 243.812C214.83 243.812 213.886 242.867 213.886 241.69C213.886 240.513 214.83 239.568 216.007 239.568C217.184 239.568 218.129 240.513 218.129 241.69C218.129 242.867 217.184 243.812 216.007 243.812Z" fill="white" fill-opacity="0.5"/>
<path d="M192.136 243.812C190.959 243.812 190.015 242.867 190.015 241.69C190.015 240.513 190.959 239.568 192.136 239.568C193.313 239.568 194.258 240.513 194.258 241.69C194.258 242.867 193.313 243.812 192.136 243.812Z" fill="white" fill-opacity="0.5"/>
<path d="M168.269 243.812C167.092 243.812 166.147 242.867 166.147 241.69C166.147 240.513 167.092 239.568 168.269 239.568C169.446 239.568 170.391 240.513 170.391 241.69C170.391 242.867 169.446 243.812 168.269 243.812Z" fill="white" fill-opacity="0.5"/>
<path d="M144.402 243.812C143.225 243.812 142.28 242.867 142.28 241.69C142.28 240.513 143.225 239.568 144.402 239.568C145.579 239.568 146.523 240.513 146.523 241.69C146.523 242.867 145.579 243.812 144.402 243.812Z" fill="white" fill-opacity="0.5"/>
<path d="M120.535 243.812C119.358 243.812 118.413 242.867 118.413 241.69C118.413 240.513 119.358 239.568 120.535 239.568C121.711 239.568 122.656 240.513 122.656 241.69C122.656 242.867 121.711 243.812 120.535 243.812Z" fill="white" fill-opacity="0.5"/>
<path d="M96.6635 243.812C95.4867 243.812 94.5419 242.867 94.5419 241.69C94.5419 240.513 95.4867 239.568 96.6635 239.568C97.8404 239.568 98.7852 240.513 98.7852 241.69C98.7852 242.867 97.8404 243.812 96.6635 243.812Z" fill="white" fill-opacity="0.5"/>
<path d="M72.7963 243.812C71.6195 243.812 70.6747 242.867 70.6747 241.69C70.6747 240.513 71.6195 239.568 72.7963 239.568C73.9732 239.568 74.918 240.513 74.918 241.69C74.918 242.867 73.9732 243.812 72.7963 243.812Z" fill="white" fill-opacity="0.5"/>
<path d="M48.9272 243.812C47.7503 243.812 46.8055 242.867 46.8055 241.69C46.8055 240.513 47.7503 239.568 48.9272 239.568C50.104 239.568 51.0488 240.513 51.0488 241.69C51.0488 242.867 50.104 243.812 48.9272 243.812Z" fill="white" fill-opacity="0.5"/>
<path d="M25.058 243.812C23.8812 243.812 22.9364 242.867 22.9364 241.69C22.9364 240.513 23.8812 239.568 25.058 239.568C26.2349 239.568 27.1797 240.513 27.1797 241.69C27.1797 242.867 26.2349 243.812 25.058 243.812Z" fill="white" fill-opacity="0.5"/>
<path d="M1.19086 243.812C0.0140157 243.812 -0.930775 242.867 -0.930775 241.69C-0.930775 240.513 0.0140157 239.568 1.19086 239.568C2.36771 239.568 3.3125 240.513 3.3125 241.69C3.3125 242.867 2.36771 243.812 1.19086 243.812Z" fill="white" fill-opacity="0.5"/>
<path d="M442.757 267.68C441.58 267.68 440.636 266.735 440.636 265.558C440.636 264.381 441.58 263.437 442.757 263.437C443.934 263.437 444.879 264.381 444.879 265.558C444.879 266.735 443.934 267.68 442.757 267.68Z" fill="white" fill-opacity="0.5"/>
<path d="M418.888 267.68C417.711 267.68 416.766 266.735 416.766 265.558C416.766 264.381 417.711 263.437 418.888 263.437C420.065 263.437 421.01 264.381 421.01 265.558C421.01 266.735 420.065 267.68 418.888 267.68Z" fill="white" fill-opacity="0.5"/>
<path d="M395.021 267.68C393.844 267.68 392.899 266.735 392.899 265.558C392.899 264.381 393.844 263.437 395.021 263.437C396.198 263.437 397.143 264.381 397.143 265.558C397.143 266.735 396.198 267.68 395.021 267.68Z" fill="white" fill-opacity="0.5"/>
<path d="M371.15 267.68C369.973 267.68 369.028 266.735 369.028 265.558C369.028 264.381 369.973 263.437 371.15 263.437C372.327 263.437 373.271 264.381 373.271 265.558C373.271 266.735 372.327 267.68 371.15 267.68Z" fill="white" fill-opacity="0.5"/>
<path d="M347.283 267.68C346.106 267.68 345.161 266.735 345.161 265.558C345.161 264.381 346.106 263.437 347.283 263.437C348.46 263.437 349.404 264.381 349.404 265.558C349.404 266.735 348.46 267.68 347.283 267.68Z" fill="white" fill-opacity="0.5"/>
<path d="M323.415 267.68C322.239 267.68 321.294 266.735 321.294 265.558C321.294 264.381 322.239 263.437 323.415 263.437C324.592 263.437 325.537 264.381 325.537 265.558C325.537 266.735 324.592 267.68 323.415 267.68Z" fill="white" fill-opacity="0.5"/>
<path d="M299.548 267.68C298.371 267.68 297.427 266.735 297.427 265.558C297.427 264.381 298.371 263.437 299.548 263.437C300.725 263.437 301.67 264.381 301.67 265.558C301.67 266.735 300.725 267.68 299.548 267.68Z" fill="white" fill-opacity="0.5"/>
<path d="M275.677 267.679C274.5 267.679 273.556 266.734 273.556 265.557C273.556 264.38 274.5 263.436 275.677 263.436C276.854 263.436 277.799 264.38 277.799 265.557C277.799 266.734 276.854 267.679 275.677 267.679Z" fill="white" fill-opacity="0.5"/>
<path d="M251.81 267.68C250.633 267.68 249.688 266.735 249.688 265.558C249.688 264.381 250.633 263.437 251.81 263.437C252.987 263.437 253.932 264.381 253.932 265.558C253.932 266.735 252.987 267.68 251.81 267.68Z" fill="white" fill-opacity="0.5"/>
<path d="M227.939 267.68C226.762 267.68 225.817 266.735 225.817 265.558C225.817 264.381 226.762 263.437 227.939 263.437C229.116 263.437 230.061 264.381 230.061 265.558C230.061 266.735 229.116 267.68 227.939 267.68Z" fill="white" fill-opacity="0.5"/>
<path d="M204.072 267.68C202.895 267.68 201.95 266.735 201.95 265.558C201.95 264.381 202.895 263.437 204.072 263.437C205.249 263.437 206.193 264.381 206.193 265.558C206.193 266.735 205.249 267.68 204.072 267.68Z" fill="white" fill-opacity="0.5"/>
<path d="M180.205 267.68C179.028 267.68 178.083 266.735 178.083 265.558C178.083 264.381 179.028 263.437 180.205 263.437C181.381 263.437 182.326 264.381 182.326 265.558C182.326 266.735 181.381 267.68 180.205 267.68Z" fill="white" fill-opacity="0.5"/>
<path d="M156.335 267.68C155.159 267.68 154.214 266.735 154.214 265.558C154.214 264.381 155.159 263.437 156.335 263.437C157.512 263.437 158.457 264.381 158.457 265.558C158.457 266.735 157.512 267.68 156.335 267.68Z" fill="white" fill-opacity="0.5"/>
<path d="M132.466 267.68C131.289 267.68 130.345 266.735 130.345 265.558C130.345 264.381 131.289 263.437 132.466 263.437C133.643 263.437 134.588 264.381 134.588 265.558C134.588 266.735 133.643 267.68 132.466 267.68Z" fill="white" fill-opacity="0.5"/>
<path d="M108.597 267.68C107.42 267.68 106.475 266.735 106.475 265.558C106.475 264.381 107.42 263.437 108.597 263.437C109.774 263.437 110.719 264.381 110.719 265.558C110.719 266.735 109.774 267.68 108.597 267.68Z" fill="white" fill-opacity="0.5"/>
<path d="M84.7319 267.68C83.555 267.68 82.6102 266.735 82.6102 265.558C82.6102 264.381 83.555 263.437 84.7319 263.437C85.9087 263.437 86.8535 264.381 86.8535 265.558C86.8535 266.735 85.9087 267.68 84.7319 267.68Z" fill="white" fill-opacity="0.5"/>
<path d="M60.8608 267.68C59.6839 267.68 58.7391 266.735 58.7391 265.558C58.7391 264.381 59.6839 263.437 60.8608 263.437C62.0376 263.437 62.9824 264.381 62.9824 265.558C62.9824 266.735 62.0376 267.68 60.8608 267.68Z" fill="white" fill-opacity="0.5"/>
<path d="M36.9936 267.68C35.8168 267.68 34.872 266.735 34.872 265.558C34.872 264.381 35.8168 263.437 36.9936 263.437C38.1704 263.437 39.1152 264.381 39.1152 265.558C39.1152 266.735 38.1704 267.68 36.9936 267.68Z" fill="white" fill-opacity="0.5"/>
<path d="M13.1245 267.68C11.9476 267.68 11.0028 266.735 11.0028 265.558C11.0028 264.381 11.9476 263.437 13.1245 263.437C14.3013 263.437 15.2461 264.381 15.2461 265.558C15.2461 266.735 14.3013 267.68 13.1245 267.68Z" fill="white" fill-opacity="0.5"/>
<path d="M454.691 291.547C453.514 291.547 452.569 290.602 452.569 289.425C452.569 288.249 453.514 287.304 454.691 287.304C455.868 287.304 456.812 288.249 456.812 289.425C456.812 290.602 455.868 291.547 454.691 291.547Z" fill="white" fill-opacity="0.5"/>
<path d="M430.824 291.548C429.647 291.548 428.702 290.603 428.702 289.426C428.702 288.249 429.647 287.305 430.824 287.305C432.001 287.305 432.945 288.249 432.945 289.426C432.945 290.603 432.001 291.548 430.824 291.548Z" fill="white" fill-opacity="0.5"/>
<path d="M406.953 291.548C405.776 291.548 404.831 290.603 404.831 289.426C404.831 288.249 405.776 287.305 406.953 287.305C408.129 287.305 409.074 288.249 409.074 289.426C409.074 290.603 408.129 291.548 406.953 291.548Z" fill="white" fill-opacity="0.5"/>
<path d="M383.085 291.548C381.909 291.548 380.964 290.603 380.964 289.426C380.964 288.249 381.909 287.305 383.085 287.305C384.262 287.305 385.207 288.249 385.207 289.426C385.207 290.603 384.262 291.548 383.085 291.548Z" fill="white" fill-opacity="0.5"/>
<path d="M359.218 291.548C358.041 291.548 357.097 290.603 357.097 289.426C357.097 288.249 358.041 287.305 359.218 287.305C360.395 287.305 361.34 288.249 361.34 289.426C361.34 290.603 360.395 291.548 359.218 291.548Z" fill="white" fill-opacity="0.5"/>
<path d="M335.347 291.547C334.17 291.547 333.225 290.602 333.225 289.425C333.225 288.249 334.17 287.304 335.347 287.304C336.524 287.304 337.469 288.249 337.469 289.425C337.469 290.602 336.524 291.547 335.347 291.547Z" fill="white" fill-opacity="0.5"/>
<path d="M311.48 291.548C310.303 291.548 309.358 290.603 309.358 289.426C309.358 288.249 310.303 287.305 311.48 287.305C312.657 287.305 313.602 288.249 313.602 289.426C313.602 290.603 312.657 291.548 311.48 291.548Z" fill="white" fill-opacity="0.5"/>
<path d="M287.611 291.548C286.434 291.548 285.489 290.603 285.489 289.426C285.489 288.249 286.434 287.305 287.611 287.305C288.788 287.305 289.732 288.249 289.732 289.426C289.732 290.603 288.788 291.548 287.611 291.548Z" fill="white" fill-opacity="0.5"/>
<path d="M263.746 291.548C262.569 291.548 261.624 290.603 261.624 289.426C261.624 288.249 262.569 287.305 263.746 287.305C264.922 287.305 265.867 288.249 265.867 289.426C265.867 290.603 264.922 291.548 263.746 291.548Z" fill="white" fill-opacity="0.5"/>
<path d="M239.874 291.548C238.698 291.548 237.753 290.603 237.753 289.426C237.753 288.249 238.698 287.305 239.874 287.305C241.051 287.305 241.996 288.249 241.996 289.426C241.996 290.603 241.051 291.548 239.874 291.548Z" fill="white" fill-opacity="0.5"/>
<path d="M216.007 291.547C214.83 291.547 213.886 290.602 213.886 289.425C213.886 288.249 214.83 287.304 216.007 287.304C217.184 287.304 218.129 288.249 218.129 289.425C218.129 290.602 217.184 291.547 216.007 291.547Z" fill="white" fill-opacity="0.5"/>
<path d="M192.136 291.548C190.959 291.548 190.015 290.603 190.015 289.426C190.015 288.249 190.959 287.305 192.136 287.305C193.313 287.305 194.258 288.249 194.258 289.426C194.258 290.603 193.313 291.548 192.136 291.548Z" fill="white" fill-opacity="0.5"/>
<path d="M168.269 291.548C167.092 291.548 166.147 290.603 166.147 289.426C166.147 288.249 167.092 287.305 168.269 287.305C169.446 287.305 170.391 288.249 170.391 289.426C170.391 290.603 169.446 291.548 168.269 291.548Z" fill="white" fill-opacity="0.5"/>
<path d="M144.402 291.548C143.225 291.548 142.28 290.603 142.28 289.426C142.28 288.249 143.225 287.305 144.402 287.305C145.579 287.305 146.523 288.249 146.523 289.426C146.523 290.603 145.579 291.548 144.402 291.548Z" fill="white" fill-opacity="0.5"/>
<path d="M120.535 291.548C119.358 291.548 118.413 290.603 118.413 289.426C118.413 288.249 119.358 287.305 120.535 287.305C121.711 287.305 122.656 288.249 122.656 289.426C122.656 290.603 121.711 291.548 120.535 291.548Z" fill="white" fill-opacity="0.5"/>
<path d="M96.6635 291.547C95.4867 291.547 94.5419 290.602 94.5419 289.425C94.5419 288.249 95.4867 287.304 96.6635 287.304C97.8404 287.304 98.7852 288.249 98.7852 289.425C98.7852 290.602 97.8404 291.547 96.6635 291.547Z" fill="white" fill-opacity="0.5"/>
<path d="M72.7963 291.548C71.6195 291.548 70.6747 290.603 70.6747 289.426C70.6747 288.249 71.6195 287.305 72.7963 287.305C73.9732 287.305 74.918 288.249 74.918 289.426C74.918 290.603 73.9732 291.548 72.7963 291.548Z" fill="white" fill-opacity="0.5"/>
<path d="M48.9272 291.548C47.7503 291.548 46.8055 290.603 46.8055 289.426C46.8055 288.249 47.7503 287.305 48.9272 287.305C50.104 287.305 51.0488 288.249 51.0488 289.426C51.0488 290.603 50.104 291.548 48.9272 291.548Z" fill="white" fill-opacity="0.5"/>
<path d="M25.058 291.548C23.8812 291.548 22.9364 290.603 22.9364 289.426C22.9364 288.249 23.8812 287.305 25.058 287.305C26.2349 287.305 27.1797 288.249 27.1797 289.426C27.1797 290.603 26.2349 291.548 25.058 291.548Z" fill="white" fill-opacity="0.5"/>
<path d="M1.19086 291.548C0.0140157 291.548 -0.930775 290.603 -0.930775 289.426C-0.930775 288.249 0.0140157 287.305 1.19086 287.305C2.36771 287.305 3.3125 288.249 3.3125 289.426C3.3125 290.603 2.36771 291.548 1.19086 291.548Z" fill="white" fill-opacity="0.5"/>
<path d="M442.757 315.416C441.58 315.416 440.636 314.471 440.636 313.294C440.636 312.118 441.58 311.173 442.757 311.173C443.934 311.173 444.879 312.118 444.879 313.294C444.879 314.471 443.934 315.416 442.757 315.416Z" fill="white" fill-opacity="0.5"/>
<path d="M418.888 315.416C417.711 315.416 416.766 314.471 416.766 313.294C416.766 312.118 417.711 311.173 418.888 311.173C420.065 311.173 421.01 312.118 421.01 313.294C421.01 314.471 420.065 315.416 418.888 315.416Z" fill="white" fill-opacity="0.5"/>
<path d="M395.021 315.416C393.844 315.416 392.899 314.471 392.899 313.294C392.899 312.118 393.844 311.173 395.021 311.173C396.198 311.173 397.143 312.118 397.143 313.294C397.143 314.471 396.198 315.416 395.021 315.416Z" fill="white" fill-opacity="0.5"/>
<path d="M371.15 315.416C369.973 315.416 369.028 314.471 369.028 313.294C369.028 312.118 369.973 311.173 371.15 311.173C372.327 311.173 373.271 312.118 373.271 313.294C373.271 314.471 372.327 315.416 371.15 315.416Z" fill="white" fill-opacity="0.5"/>
<path d="M347.283 315.416C346.111 315.416 345.161 314.466 345.161 313.294C345.161 312.123 346.111 311.173 347.283 311.173C348.454 311.173 349.404 312.123 349.404 313.294C349.404 314.466 348.454 315.416 347.283 315.416Z" fill="white" fill-opacity="0.5"/>
<path d="M323.415 315.416C322.239 315.416 321.294 314.471 321.294 313.294C321.294 312.118 322.239 311.173 323.415 311.173C324.592 311.173 325.537 312.118 325.537 313.294C325.537 314.471 324.592 315.416 323.415 315.416Z" fill="white" fill-opacity="0.5"/>
<path d="M299.548 315.416C298.371 315.416 297.427 314.471 297.427 313.294C297.427 312.118 298.371 311.173 299.548 311.173C300.725 311.173 301.67 312.118 301.67 313.294C301.67 314.471 300.725 315.416 299.548 315.416Z" fill="white" fill-opacity="0.5"/>
<path d="M275.677 315.416C274.5 315.416 273.556 314.471 273.556 313.294C273.556 312.118 274.5 311.173 275.677 311.173C276.854 311.173 277.799 312.118 277.799 313.294C277.799 314.471 276.854 315.416 275.677 315.416Z" fill="white" fill-opacity="0.5"/>
<path d="M251.81 315.416C250.633 315.416 249.688 314.471 249.688 313.294C249.688 312.118 250.633 311.173 251.81 311.173C252.987 311.173 253.932 312.118 253.932 313.294C253.932 314.471 252.987 315.416 251.81 315.416Z" fill="white" fill-opacity="0.5"/>
<path d="M227.941 315.416C226.769 315.416 225.819 314.466 225.819 313.294C225.819 312.123 226.769 311.173 227.941 311.173C229.113 311.173 230.062 312.123 230.062 313.294C230.062 314.466 229.113 315.416 227.941 315.416Z" fill="white" fill-opacity="0.5"/>
<path d="M204.072 315.416C202.895 315.416 201.95 314.471 201.95 313.294C201.95 312.118 202.895 311.173 204.072 311.173C205.249 311.173 206.193 312.118 206.193 313.294C206.193 314.471 205.249 315.416 204.072 315.416Z" fill="white" fill-opacity="0.5"/>
<path d="M180.205 315.416C179.028 315.416 178.083 314.471 178.083 313.294C178.083 312.118 179.028 311.173 180.205 311.173C181.381 311.173 182.326 312.118 182.326 313.294C182.326 314.471 181.381 315.416 180.205 315.416Z" fill="white" fill-opacity="0.5"/>
<path d="M156.335 315.416C155.159 315.416 154.214 314.471 154.214 313.294C154.214 312.118 155.159 311.173 156.335 311.173C157.512 311.173 158.457 312.118 158.457 313.294C158.457 314.471 157.512 315.416 156.335 315.416Z" fill="white" fill-opacity="0.5"/>
<path d="M132.466 315.416C131.289 315.416 130.345 314.471 130.345 313.294C130.345 312.118 131.289 311.173 132.466 311.173C133.643 311.173 134.588 312.118 134.588 313.294C134.588 314.471 133.643 315.416 132.466 315.416Z" fill="white" fill-opacity="0.5"/>
<path d="M108.597 315.416C107.425 315.416 106.475 314.466 106.475 313.294C106.475 312.123 107.425 311.173 108.597 311.173C109.769 311.173 110.719 312.123 110.719 313.294C110.719 314.466 109.769 315.416 108.597 315.416Z" fill="white" fill-opacity="0.5"/>
<path d="M84.7319 315.416C83.555 315.416 82.6102 314.471 82.6102 313.294C82.6102 312.118 83.555 311.173 84.7319 311.173C85.9087 311.173 86.8535 312.118 86.8535 313.294C86.8535 314.471 85.9087 315.416 84.7319 315.416Z" fill="white" fill-opacity="0.5"/>
<path d="M60.8608 315.416C59.6839 315.416 58.7391 314.471 58.7391 313.294C58.7391 312.118 59.6839 311.173 60.8608 311.173C62.0376 311.173 62.9824 312.118 62.9824 313.294C62.9824 314.471 62.0376 315.416 60.8608 315.416Z" fill="white" fill-opacity="0.5"/>
<path d="M36.9936 315.416C35.8168 315.416 34.872 314.471 34.872 313.294C34.872 312.118 35.8168 311.173 36.9936 311.173C38.1704 311.173 39.1152 312.118 39.1152 313.294C39.1152 314.471 38.1704 315.416 36.9936 315.416Z" fill="white" fill-opacity="0.5"/>
<path d="M13.1245 315.416C11.9476 315.416 11.0028 314.471 11.0028 313.294C11.0028 312.118 11.9476 311.173 13.1245 311.173C14.3013 311.173 15.2461 312.118 15.2461 313.294C15.2461 314.471 14.3013 315.416 13.1245 315.416Z" fill="white" fill-opacity="0.5"/>
<path d="M454.691 339.284C453.514 339.284 452.569 338.339 452.569 337.163C452.569 335.986 453.514 335.041 454.691 335.041C455.868 335.041 456.812 335.986 456.812 337.163C456.812 338.339 455.868 339.284 454.691 339.284Z" fill="white" fill-opacity="0.5"/>
<path d="M430.824 339.284C429.647 339.284 428.702 338.339 428.702 337.163C428.702 335.986 429.647 335.041 430.824 335.041C432.001 335.041 432.945 335.986 432.945 337.163C432.945 338.339 432.001 339.284 430.824 339.284Z" fill="white" fill-opacity="0.5"/>
<path d="M406.953 339.284C405.781 339.284 404.831 338.334 404.831 337.163C404.831 335.991 405.781 335.041 406.953 335.041C408.124 335.041 409.074 335.991 409.074 337.163C409.074 338.334 408.124 339.284 406.953 339.284Z" fill="white" fill-opacity="0.5"/>
<path d="M383.085 339.284C381.909 339.284 380.964 338.339 380.964 337.163C380.964 335.986 381.909 335.041 383.085 335.041C384.262 335.041 385.207 335.986 385.207 337.163C385.207 338.339 384.262 339.284 383.085 339.284Z" fill="white" fill-opacity="0.5"/>
<path d="M359.218 339.284C358.041 339.284 357.097 338.339 357.097 337.163C357.097 335.986 358.041 335.041 359.218 335.041C360.395 335.041 361.34 335.986 361.34 337.163C361.34 338.339 360.395 339.284 359.218 339.284Z" fill="white" fill-opacity="0.5"/>
<path d="M335.347 339.284C334.17 339.284 333.225 338.339 333.225 337.163C333.225 335.986 334.17 335.041 335.347 335.041C336.524 335.041 337.469 335.986 337.469 337.163C337.469 338.339 336.524 339.284 335.347 339.284Z" fill="white" fill-opacity="0.5"/>
<path d="M311.48 339.284C310.303 339.284 309.358 338.339 309.358 337.163C309.358 335.986 310.303 335.041 311.48 335.041C312.657 335.041 313.602 335.986 313.602 337.163C313.602 338.339 312.657 339.284 311.48 339.284Z" fill="white" fill-opacity="0.5"/>
<path d="M287.611 339.284C286.439 339.284 285.489 338.334 285.489 337.163C285.489 335.991 286.439 335.041 287.611 335.041C288.783 335.041 289.732 335.991 289.732 337.163C289.732 338.334 288.783 339.284 287.611 339.284Z" fill="white" fill-opacity="0.5"/>
<path d="M263.746 339.284C262.569 339.284 261.624 338.339 261.624 337.163C261.624 335.986 262.569 335.041 263.746 335.041C264.922 335.041 265.867 335.986 265.867 337.163C265.867 338.339 264.922 339.284 263.746 339.284Z" fill="white" fill-opacity="0.5"/>
<path d="M239.874 339.284C238.698 339.284 237.753 338.339 237.753 337.163C237.753 335.986 238.698 335.041 239.874 335.041C241.051 335.041 241.996 335.986 241.996 337.163C241.996 338.339 241.051 339.284 239.874 339.284Z" fill="white" fill-opacity="0.5"/>
<path d="M216.007 339.284C214.83 339.284 213.886 338.339 213.886 337.163C213.886 335.986 214.83 335.041 216.007 335.041C217.184 335.041 218.129 335.986 218.129 337.163C218.129 338.339 217.184 339.284 216.007 339.284Z" fill="white" fill-opacity="0.5"/>
<path d="M192.136 339.284C190.959 339.284 190.015 338.339 190.015 337.163C190.015 335.986 190.959 335.041 192.136 335.041C193.313 335.041 194.258 335.986 194.258 337.163C194.258 338.339 193.313 339.284 192.136 339.284Z" fill="white" fill-opacity="0.5"/>
<path d="M168.269 339.284C167.097 339.284 166.147 338.334 166.147 337.163C166.147 335.991 167.097 335.041 168.269 335.041C169.441 335.041 170.391 335.991 170.391 337.163C170.391 338.334 169.441 339.284 168.269 339.284Z" fill="white" fill-opacity="0.5"/>
<path d="M144.402 339.284C143.225 339.284 142.28 338.339 142.28 337.163C142.28 335.986 143.225 335.041 144.402 335.041C145.579 335.041 146.523 335.986 146.523 337.163C146.523 338.339 145.579 339.284 144.402 339.284Z" fill="white" fill-opacity="0.5"/>
<path d="M120.535 339.284C119.358 339.284 118.413 338.339 118.413 337.163C118.413 335.986 119.358 335.041 120.535 335.041C121.711 335.041 122.656 335.986 122.656 337.163C122.656 338.339 121.711 339.284 120.535 339.284Z" fill="white" fill-opacity="0.5"/>
<path d="M96.6635 339.284C95.4867 339.284 94.5419 338.339 94.5419 337.163C94.5419 335.986 95.4867 335.041 96.6635 335.041C97.8404 335.041 98.7852 335.986 98.7852 337.163C98.7852 338.339 97.8404 339.284 96.6635 339.284Z" fill="white" fill-opacity="0.5"/>
<path d="M72.7963 339.284C71.6195 339.284 70.6747 338.339 70.6747 337.163C70.6747 335.986 71.6195 335.041 72.7963 335.041C73.9732 335.041 74.918 335.986 74.918 337.163C74.918 338.339 73.9732 339.284 72.7963 339.284Z" fill="white" fill-opacity="0.5"/>
<path d="M48.9272 339.284C47.7554 339.284 46.8055 338.334 46.8055 337.163C46.8055 335.991 47.7554 335.041 48.9272 335.041C50.0989 335.041 51.0488 335.991 51.0488 337.163C51.0488 338.334 50.0989 339.284 48.9272 339.284Z" fill="white" fill-opacity="0.5"/>
<path d="M25.058 339.284C23.8812 339.284 22.9364 338.339 22.9364 337.163C22.9364 335.986 23.8812 335.041 25.058 335.041C26.2349 335.041 27.1797 335.986 27.1797 337.163C27.1797 338.339 26.2349 339.284 25.058 339.284Z" fill="white" fill-opacity="0.5"/>
<path d="M1.19086 339.284C0.0140157 339.284 -0.930775 338.339 -0.930775 337.163C-0.930775 335.986 0.0140157 335.041 1.19086 335.041C2.36771 335.041 3.3125 335.986 3.3125 337.163C3.3125 338.339 2.36771 339.284 1.19086 339.284Z" fill="white" fill-opacity="0.5"/>
<path d="M442.757 363.153C441.58 363.153 440.636 362.209 440.636 361.032C440.636 359.855 441.58 358.91 442.757 358.91C443.934 358.91 444.879 359.855 444.879 361.032C444.879 362.209 443.934 363.153 442.757 363.153Z" fill="white" fill-opacity="0.5"/>
<path d="M418.888 363.153C417.711 363.153 416.766 362.209 416.766 361.032C416.766 359.855 417.711 358.91 418.888 358.91C420.065 358.91 421.01 359.855 421.01 361.032C421.01 362.209 420.065 363.153 418.888 363.153Z" fill="white" fill-opacity="0.5"/>
<path d="M395.021 363.153C393.844 363.153 392.899 362.209 392.899 361.032C392.899 359.855 393.844 358.91 395.021 358.91C396.198 358.91 397.143 359.855 397.143 361.032C397.143 362.209 396.198 363.153 395.021 363.153Z" fill="white" fill-opacity="0.5"/>
<path d="M371.15 363.153C369.973 363.153 369.028 362.209 369.028 361.032C369.028 359.855 369.973 358.91 371.15 358.91C372.327 358.91 373.271 359.855 373.271 361.032C373.271 362.209 372.327 363.153 371.15 363.153Z" fill="white" fill-opacity="0.5"/>
<path d="M347.283 363.153C346.106 363.153 345.161 362.209 345.161 361.032C345.161 359.855 346.106 358.91 347.283 358.91C348.46 358.91 349.404 359.855 349.404 361.032C349.404 362.209 348.46 363.153 347.283 363.153Z" fill="white" fill-opacity="0.5"/>
<path d="M323.415 363.153C322.239 363.153 321.294 362.209 321.294 361.032C321.294 359.855 322.239 358.91 323.415 358.91C324.592 358.91 325.537 359.855 325.537 361.032C325.537 362.209 324.592 363.153 323.415 363.153Z" fill="white" fill-opacity="0.5"/>
<path d="M299.548 363.153C298.371 363.153 297.427 362.209 297.427 361.032C297.427 359.855 298.371 358.91 299.548 358.91C300.725 358.91 301.67 359.855 301.67 361.032C301.67 362.209 300.725 363.153 299.548 363.153Z" fill="white" fill-opacity="0.5"/>
<path d="M275.677 363.153C274.5 363.153 273.556 362.209 273.556 361.032C273.556 359.855 274.5 358.91 275.677 358.91C276.854 358.91 277.799 359.855 277.799 361.032C277.799 362.209 276.854 363.153 275.677 363.153Z" fill="white" fill-opacity="0.5"/>
<path d="M251.81 363.153C250.633 363.153 249.688 362.209 249.688 361.032C249.688 359.855 250.633 358.91 251.81 358.91C252.987 358.91 253.932 359.855 253.932 361.032C253.932 362.209 252.987 363.153 251.81 363.153Z" fill="white" fill-opacity="0.5"/>
<path d="M227.941 363.153C226.764 363.153 225.819 362.209 225.819 361.032C225.819 359.855 226.764 358.91 227.941 358.91C229.118 358.91 230.062 359.855 230.062 361.032C230.062 362.209 229.118 363.153 227.941 363.153Z" fill="white" fill-opacity="0.5"/>
<path d="M204.072 363.153C202.895 363.153 201.95 362.209 201.95 361.032C201.95 359.855 202.895 358.91 204.072 358.91C205.249 358.91 206.193 359.855 206.193 361.032C206.193 362.209 205.249 363.153 204.072 363.153Z" fill="white" fill-opacity="0.5"/>
<path d="M180.205 363.153C179.028 363.153 178.083 362.209 178.083 361.032C178.083 359.855 179.028 358.91 180.205 358.91C181.381 358.91 182.326 359.855 182.326 361.032C182.326 362.209 181.381 363.153 180.205 363.153Z" fill="white" fill-opacity="0.5"/>
<path d="M156.335 363.153C155.159 363.153 154.214 362.209 154.214 361.032C154.214 359.855 155.159 358.91 156.335 358.91C157.512 358.91 158.457 359.855 158.457 361.032C158.457 362.209 157.512 363.153 156.335 363.153Z" fill="white" fill-opacity="0.5"/>
<path d="M132.466 363.153C131.289 363.153 130.345 362.209 130.345 361.032C130.345 359.855 131.289 358.91 132.466 358.91C133.643 358.91 134.588 359.855 134.588 361.032C134.588 362.209 133.643 363.153 132.466 363.153Z" fill="white" fill-opacity="0.5"/>
<path d="M108.597 363.153C107.42 363.153 106.475 362.209 106.475 361.032C106.475 359.855 107.42 358.91 108.597 358.91C109.774 358.91 110.719 359.855 110.719 361.032C110.719 362.209 109.774 363.153 108.597 363.153Z" fill="white" fill-opacity="0.5"/>
<path d="M84.7319 363.153C83.555 363.153 82.6102 362.209 82.6102 361.032C82.6102 359.855 83.555 358.91 84.7319 358.91C85.9087 358.91 86.8535 359.855 86.8535 361.032C86.8535 362.209 85.9087 363.153 84.7319 363.153Z" fill="white" fill-opacity="0.5"/>
<path d="M60.8608 363.153C59.6839 363.153 58.7391 362.209 58.7391 361.032C58.7391 359.855 59.6839 358.91 60.8608 358.91C62.0376 358.91 62.9824 359.855 62.9824 361.032C62.9824 362.209 62.0376 363.153 60.8608 363.153Z" fill="white" fill-opacity="0.5"/>
<path d="M36.9936 363.153C35.8168 363.153 34.872 362.209 34.872 361.032C34.872 359.855 35.8168 358.91 36.9936 358.91C38.1704 358.91 39.1152 359.855 39.1152 361.032C39.1152 362.209 38.1704 363.153 36.9936 363.153Z" fill="white" fill-opacity="0.5"/>
<path d="M13.1245 363.153C11.9476 363.153 11.0028 362.209 11.0028 361.032C11.0028 359.855 11.9476 358.91 13.1245 358.91C14.3013 358.91 15.2461 359.855 15.2461 361.032C15.2461 362.209 14.3013 363.153 13.1245 363.153Z" fill="white" fill-opacity="0.5"/>
<path d="M454.691 387.022C453.514 387.022 452.569 386.077 452.569 384.9C452.569 383.723 453.514 382.778 454.691 382.778C455.868 382.778 456.812 383.723 456.812 384.9C456.812 386.077 455.868 387.022 454.691 387.022Z" fill="white" fill-opacity="0.5"/>
<path d="M430.824 387.022C429.647 387.022 428.702 386.077 428.702 384.9C428.702 383.723 429.647 382.778 430.824 382.778C432.001 382.778 432.945 383.723 432.945 384.9C432.945 386.077 432.001 387.022 430.824 387.022Z" fill="white" fill-opacity="0.5"/>
<path d="M406.953 387.022C405.776 387.022 404.831 386.077 404.831 384.9C404.831 383.723 405.776 382.778 406.953 382.778C408.129 382.778 409.074 383.723 409.074 384.9C409.074 386.077 408.129 387.022 406.953 387.022Z" fill="white" fill-opacity="0.5"/>
<path d="M383.085 387.022C381.909 387.022 380.964 386.077 380.964 384.9C380.964 383.723 381.909 382.778 383.085 382.778C384.262 382.778 385.207 383.723 385.207 384.9C385.207 386.077 384.262 387.022 383.085 387.022Z" fill="white" fill-opacity="0.5"/>
<path d="M359.218 387.022C358.041 387.022 357.097 386.077 357.097 384.9C357.097 383.723 358.041 382.778 359.218 382.778C360.395 382.778 361.34 383.723 361.34 384.9C361.34 386.077 360.395 387.022 359.218 387.022Z" fill="white" fill-opacity="0.5"/>
<path d="M335.347 387.022C334.17 387.022 333.225 386.077 333.225 384.9C333.225 383.723 334.17 382.778 335.347 382.778C336.524 382.778 337.469 383.723 337.469 384.9C337.469 386.077 336.524 387.022 335.347 387.022Z" fill="white" fill-opacity="0.5"/>
<path d="M311.48 387.022C310.303 387.022 309.358 386.077 309.358 384.9C309.358 383.723 310.303 382.778 311.48 382.778C312.657 382.778 313.602 383.723 313.602 384.9C313.602 386.077 312.657 387.022 311.48 387.022Z" fill="white" fill-opacity="0.5"/>
<path d="M287.611 387.022C286.434 387.022 285.489 386.077 285.489 384.9C285.489 383.723 286.434 382.778 287.611 382.778C288.788 382.778 289.732 383.723 289.732 384.9C289.732 386.077 288.788 387.022 287.611 387.022Z" fill="white" fill-opacity="0.5"/>
<path d="M263.746 387.022C262.569 387.022 261.624 386.077 261.624 384.9C261.624 383.723 262.569 382.778 263.746 382.778C264.922 382.778 265.867 383.723 265.867 384.9C265.867 386.077 264.922 387.022 263.746 387.022Z" fill="white" fill-opacity="0.5"/>
<path d="M239.874 387.022C238.698 387.022 237.753 386.077 237.753 384.9C237.753 383.723 238.698 382.778 239.874 382.778C241.051 382.778 241.996 383.723 241.996 384.9C241.996 386.077 241.051 387.022 239.874 387.022Z" fill="white" fill-opacity="0.5"/>
<path d="M216.007 387.022C214.83 387.022 213.886 386.077 213.886 384.9C213.886 383.723 214.83 382.778 216.007 382.778C217.184 382.778 218.129 383.723 218.129 384.9C218.129 386.077 217.184 387.022 216.007 387.022Z" fill="white" fill-opacity="0.5"/>
<path d="M192.136 387.022C190.959 387.022 190.015 386.077 190.015 384.9C190.015 383.723 190.959 382.778 192.136 382.778C193.313 382.778 194.258 383.723 194.258 384.9C194.258 386.077 193.313 387.022 192.136 387.022Z" fill="white" fill-opacity="0.5"/>
<path d="M168.269 387.022C167.092 387.022 166.147 386.077 166.147 384.9C166.147 383.723 167.092 382.778 168.269 382.778C169.446 382.778 170.391 383.723 170.391 384.9C170.391 386.077 169.446 387.022 168.269 387.022Z" fill="white" fill-opacity="0.5"/>
<path d="M144.402 387.022C143.225 387.022 142.28 386.077 142.28 384.9C142.28 383.723 143.225 382.778 144.402 382.778C145.579 382.778 146.523 383.723 146.523 384.9C146.523 386.077 145.579 387.022 144.402 387.022Z" fill="white" fill-opacity="0.5"/>
<path d="M120.535 387.022C119.358 387.022 118.413 386.077 118.413 384.9C118.413 383.723 119.358 382.778 120.535 382.778C121.711 382.778 122.656 383.723 122.656 384.9C122.656 386.077 121.711 387.022 120.535 387.022Z" fill="white" fill-opacity="0.5"/>
<path d="M96.6635 387.022C95.4867 387.022 94.5419 386.077 94.5419 384.9C94.5419 383.723 95.4867 382.778 96.6635 382.778C97.8404 382.778 98.7852 383.723 98.7852 384.9C98.7852 386.077 97.8404 387.022 96.6635 387.022Z" fill="white" fill-opacity="0.5"/>
<path d="M72.7963 387.022C71.6195 387.022 70.6747 386.077 70.6747 384.9C70.6747 383.723 71.6195 382.778 72.7963 382.778C73.9732 382.778 74.918 383.723 74.918 384.9C74.918 386.077 73.9732 387.022 72.7963 387.022Z" fill="white" fill-opacity="0.5"/>
<path d="M48.9272 387.022C47.7503 387.022 46.8055 386.077 46.8055 384.9C46.8055 383.723 47.7503 382.778 48.9272 382.778C50.104 382.778 51.0488 383.723 51.0488 384.9C51.0488 386.077 50.104 387.022 48.9272 387.022Z" fill="white" fill-opacity="0.5"/>
<path d="M25.058 387.022C23.8812 387.022 22.9364 386.077 22.9364 384.9C22.9364 383.723 23.8812 382.778 25.058 382.778C26.2349 382.778 27.1797 383.723 27.1797 384.9C27.1797 386.077 26.2349 387.022 25.058 387.022Z" fill="white" fill-opacity="0.5"/>
<path d="M1.19086 387.022C0.0140157 387.022 -0.930775 386.077 -0.930775 384.9C-0.930775 383.723 0.0140157 382.778 1.19086 382.778C2.36771 382.778 3.3125 383.723 3.3125 384.9C3.3125 386.077 2.36771 387.022 1.19086 387.022Z" fill="white" fill-opacity="0.5"/>
<path d="M442.757 410.89C441.58 410.89 440.636 409.945 440.636 408.768C440.636 407.591 441.58 406.646 442.757 406.646C443.934 406.646 444.879 407.591 444.879 408.768C444.879 409.945 443.934 410.89 442.757 410.89Z" fill="white" fill-opacity="0.5"/>
<path d="M418.888 410.89C417.711 410.89 416.766 409.945 416.766 408.768C416.766 407.591 417.711 406.646 418.888 406.646C420.065 406.646 421.01 407.591 421.01 408.768C421.01 409.945 420.065 410.89 418.888 410.89Z" fill="white" fill-opacity="0.5"/>
<path d="M395.021 410.89C393.844 410.89 392.899 409.945 392.899 408.768C392.899 407.591 393.844 406.646 395.021 406.646C396.198 406.646 397.143 407.591 397.143 408.768C397.143 409.945 396.198 410.89 395.021 410.89Z" fill="white" fill-opacity="0.5"/>
<path d="M371.15 410.89C369.973 410.89 369.028 409.945 369.028 408.768C369.028 407.591 369.973 406.646 371.15 406.646C372.327 406.646 373.271 407.591 373.271 408.768C373.271 409.945 372.327 410.89 371.15 410.89Z" fill="white" fill-opacity="0.5"/>
<path d="M347.283 410.89C346.106 410.89 345.161 409.945 345.161 408.768C345.161 407.591 346.106 406.646 347.283 406.646C348.46 406.646 349.404 407.591 349.404 408.768C349.404 409.945 348.46 410.89 347.283 410.89Z" fill="white" fill-opacity="0.5"/>
<path d="M323.415 410.89C322.239 410.89 321.294 409.945 321.294 408.768C321.294 407.591 322.239 406.646 323.415 406.646C324.592 406.646 325.537 407.591 325.537 408.768C325.537 409.945 324.592 410.89 323.415 410.89Z" fill="white" fill-opacity="0.5"/>
<path d="M299.548 410.89C298.371 410.89 297.427 409.945 297.427 408.768C297.427 407.591 298.371 406.646 299.548 406.646C300.725 406.646 301.67 407.591 301.67 408.768C301.67 409.945 300.725 410.89 299.548 410.89Z" fill="white" fill-opacity="0.5"/>
<path d="M275.677 410.89C274.5 410.89 273.556 409.945 273.556 408.768C273.556 407.591 274.5 406.646 275.677 406.646C276.854 406.646 277.799 407.591 277.799 408.768C277.799 409.945 276.854 410.89 275.677 410.89Z" fill="white" fill-opacity="0.5"/>
<path d="M251.81 410.89C250.633 410.89 249.688 409.945 249.688 408.768C249.688 407.591 250.633 406.646 251.81 406.646C252.987 406.646 253.932 407.591 253.932 408.768C253.932 409.945 252.987 410.89 251.81 410.89Z" fill="white" fill-opacity="0.5"/>
<path d="M227.941 410.89C226.764 410.89 225.819 409.945 225.819 408.768C225.819 407.591 226.764 406.646 227.941 406.646C229.118 406.646 230.062 407.591 230.062 408.768C230.062 409.945 229.118 410.89 227.941 410.89Z" fill="white" fill-opacity="0.5"/>
<path d="M204.072 410.89C202.895 410.89 201.95 409.945 201.95 408.768C201.95 407.591 202.895 406.646 204.072 406.646C205.249 406.646 206.193 407.591 206.193 408.768C206.193 409.945 205.249 410.89 204.072 410.89Z" fill="white" fill-opacity="0.5"/>
<path d="M180.205 410.89C179.028 410.89 178.083 409.945 178.083 408.768C178.083 407.591 179.028 406.646 180.205 406.646C181.381 406.646 182.326 407.591 182.326 408.768C182.326 409.945 181.381 410.89 180.205 410.89Z" fill="white" fill-opacity="0.5"/>
<path d="M156.335 410.89C155.159 410.89 154.214 409.945 154.214 408.768C154.214 407.591 155.159 406.646 156.335 406.646C157.512 406.646 158.457 407.591 158.457 408.768C158.457 409.945 157.512 410.89 156.335 410.89Z" fill="white" fill-opacity="0.5"/>
<path d="M132.466 410.89C131.289 410.89 130.345 409.945 130.345 408.768C130.345 407.591 131.289 406.646 132.466 406.646C133.643 406.646 134.588 407.591 134.588 408.768C134.588 409.945 133.643 410.89 132.466 410.89Z" fill="white" fill-opacity="0.5"/>
<path d="M108.597 410.89C107.42 410.89 106.475 409.945 106.475 408.768C106.475 407.591 107.42 406.646 108.597 406.646C109.774 406.646 110.719 407.591 110.719 408.768C110.719 409.945 109.774 410.89 108.597 410.89Z" fill="white" fill-opacity="0.5"/>
<path d="M84.7319 410.89C83.555 410.89 82.6102 409.945 82.6102 408.768C82.6102 407.591 83.555 406.646 84.7319 406.646C85.9087 406.646 86.8535 407.591 86.8535 408.768C86.8535 409.945 85.9087 410.89 84.7319 410.89Z" fill="white" fill-opacity="0.5"/>
<path d="M60.8608 410.89C59.6839 410.89 58.7391 409.945 58.7391 408.768C58.7391 407.591 59.6839 406.646 60.8608 406.646C62.0376 406.646 62.9824 407.591 62.9824 408.768C62.9824 409.945 62.0376 410.89 60.8608 410.89Z" fill="white" fill-opacity="0.5"/>
<path d="M36.9936 410.89C35.8168 410.89 34.872 409.945 34.872 408.768C34.872 407.591 35.8168 406.646 36.9936 406.646C38.1704 406.646 39.1152 407.591 39.1152 408.768C39.1152 409.945 38.1704 410.89 36.9936 410.89Z" fill="white" fill-opacity="0.5"/>
<path d="M13.1245 410.89C11.9476 410.89 11.0028 409.945 11.0028 408.768C11.0028 407.591 11.9476 406.646 13.1245 406.646C14.3013 406.646 15.2461 407.591 15.2461 408.768C15.2461 409.945 14.3013 410.89 13.1245 410.89Z" fill="white" fill-opacity="0.5"/>
</g>
</g>
</g>
<defs>
<filter id="filter0_f_1809_4772" x="-334" y="-44.7324" width="956.279" height="765.521" filterUnits="userSpaceOnUse" color-interpolation-filters="sRGB">
<feFlood flood-opacity="0" result="BackgroundImageFix"/>
<feBlend mode="normal" in="SourceGraphic" in2="BackgroundImageFix" result="shape"/>
<feGaussianBlur stdDeviation="110" result="effect1_foregroundBlur_1809_4772"/>
</filter>
<clipPath id="clip0_1809_4772">
<rect width="892" height="416" rx="16" fill="white"/>
</clipPath>
<clipPath id="clip1_1809_4772">
<rect width="482.369" height="451.745" fill="white" transform="matrix(-1 0 0 1 467 -10.4072)"/>
</clipPath>
</defs>
</svg>
