<svg width="276" height="34" viewBox="0 0 276 34" fill="none" xmlns="http://www.w3.org/2000/svg">
<path d="M43.1933 9.704V11H41.2093C41.1666 11.9173 40.7719 12.6747 40.0253 13.272C39.3959 13.7627 38.6813 14.008 37.8813 14.008C37.2199 14.008 36.5959 13.8533 36.0093 13.544V12.328C36.5746 12.6267 37.1346 12.776 37.6893 12.776C38.2546 12.776 38.7453 12.6 39.1613 12.248C39.5879 11.896 39.8066 11.4747 39.8173 10.984C39.2626 10.9627 38.8519 10.9413 38.5853 10.92C37.4333 10.856 36.5639 10.4667 35.9773 9.752C35.4866 9.15467 35.2413 8.38133 35.2413 7.432C35.2413 6.26933 35.5506 5.36267 36.1693 4.712C36.7239 4.136 37.4546 3.848 38.3613 3.848C39.3106 3.848 40.0413 4.13067 40.5533 4.696C40.9906 5.19733 41.2093 5.85333 41.2093 6.664V9.704H43.1933ZM39.8173 6.76C39.8173 5.672 39.3319 5.128 38.3613 5.128C37.8066 5.128 37.3746 5.33067 37.0653 5.736C36.7559 6.13067 36.6013 6.68533 36.6013 7.4C36.6013 8.79733 37.2839 9.53867 38.6493 9.624C38.9053 9.656 39.2946 9.68267 39.8173 9.704V6.76ZM44.1588 6.248C44.4254 5.26667 44.9321 4.51467 45.6788 3.992C46.2868 3.576 46.9748 3.368 47.7428 3.368C48.8734 3.368 49.8068 3.752 50.5428 4.52C51.2361 5.24533 51.5828 6.17867 51.5828 7.32V8.168C51.5828 9.096 51.2948 9.816 50.7188 10.328C50.2174 10.776 49.5668 11 48.7668 11H47.0388C46.6761 11 46.3348 10.9467 46.0148 10.84C45.6841 10.9467 45.3428 11 44.9908 11H42.2387V9.704H44.3028C43.8974 9.16 43.6948 8.54133 43.6948 7.848C43.6948 7.21867 43.8494 6.68533 44.1588 6.248ZM50.1908 8.04V7.32C50.1908 6.43467 49.9081 5.74667 49.3428 5.256C48.8841 4.85067 48.3348 4.648 47.6948 4.648C46.9588 4.648 46.3828 4.888 45.9668 5.368H46.0148C46.7188 5.368 47.2788 5.59733 47.6948 6.056C48.1214 6.504 48.3348 7.10133 48.3348 7.848C48.3348 8.56267 48.1268 9.18133 47.7108 9.704H48.7188C49.2414 9.704 49.6148 9.576 49.8388 9.32C50.0734 9.05333 50.1908 8.62667 50.1908 8.04ZM46.0148 9.56C46.8894 9.26133 47.3268 8.664 47.3268 7.768C47.3268 7.32 47.2041 6.96267 46.9588 6.696C46.7241 6.41867 46.4094 6.28 46.0148 6.28C45.6201 6.28 45.3001 6.41867 45.0548 6.696C44.8201 6.96267 44.7028 7.32 44.7028 7.768C44.7028 8.664 45.1401 9.26133 46.0148 9.56ZM60.6615 11C59.7335 11 59.0188 10.7013 58.5175 10.104C58.0908 9.592 57.8775 8.94133 57.8775 8.152V1.416L59.2535 0.679999V8.104C59.2535 9.17067 59.7762 9.704 60.8215 9.704H61.8775V11H60.6615ZM63.5346 6.664C63.5346 5.736 63.812 5.016 64.3666 4.504C64.8573 4.06667 65.4973 3.848 66.2866 3.848C67.3 3.848 68.0786 4.22133 68.6226 4.968C69.092 5.59733 69.3266 6.41867 69.3266 7.432C69.3266 8.584 69.028 9.48533 68.4306 10.136C67.908 10.712 67.2253 11 66.3826 11C65.4226 11 64.692 10.7333 64.1906 10.2C63.6786 10.7333 62.9906 11 62.1266 11H60.9106V9.704H61.9666C63.012 9.704 63.5346 9.17067 63.5346 8.104V6.664ZM64.9106 8.216C64.9106 9.208 65.396 9.704 66.3666 9.704C66.868 9.704 67.2573 9.50133 67.5346 9.096C67.8226 8.69067 67.9666 8.12533 67.9666 7.4C67.9666 6.68533 67.8173 6.13067 67.5186 5.736C67.22 5.33067 66.8093 5.128 66.2866 5.128C65.3693 5.128 64.9106 5.66133 64.9106 6.728V8.216ZM85.5616 9.704H86.6176V11H85.4016C84.8256 11 84.3083 10.872 83.8496 10.616C83.7003 11.7147 83.2043 12.5787 82.3616 13.208C81.615 13.7627 80.6923 14.04 79.5936 14.04C78.1643 14.04 77.0603 13.56 76.2816 12.6C75.6843 11.8533 75.3856 10.9627 75.3856 9.928C75.3856 9.02133 75.6043 8.248 76.0416 7.608L77.4176 7.304C76.927 8.06133 76.6816 8.888 76.6816 9.784C76.6816 10.6693 76.9643 11.3947 77.5296 11.96C78.0523 12.4827 78.7403 12.744 79.5936 12.744C80.5643 12.744 81.311 12.456 81.8336 11.88C82.2816 11.3893 82.5056 10.76 82.5056 9.992V1.416L83.8976 0.679999V8.104C83.8976 9.17067 84.4523 9.704 85.5616 9.704ZM88.8126 4.232C88.8233 4.232 88.8393 4.232 88.8606 4.232C88.882 4.232 88.898 4.232 88.9086 4.232C90.114 4.232 91.09 4.60533 91.8366 5.352C92.5193 6.024 92.8606 6.88267 92.8606 7.928V8.2C92.8606 9.11733 92.578 9.832 92.0126 10.344C91.5113 10.7813 90.866 11 90.0766 11H85.6606V9.704H89.9486C90.9726 9.704 91.4846 9.16533 91.4846 8.088V7.944C91.4846 7.15467 91.1753 6.54667 90.5566 6.12C90.066 5.78933 89.4686 5.624 88.7646 5.624C88.1993 5.624 87.6286 5.72533 87.0526 5.928V4.568L90.5566 0.679999H91.9646L88.8126 4.232ZM111.739 9.704H112.475V11H111.579C110.683 11 109.984 10.7227 109.483 10.168C108.981 10.7227 108.283 11 107.387 11H101.674C100.811 11 100.133 10.712 99.6425 10.136C99.2158 9.63467 99.0025 8.97867 99.0025 8.168V6.232L100.379 5.496V8.04C100.379 9.14933 100.896 9.704 101.931 9.704H107.243C108.277 9.704 108.795 9.14933 108.795 8.04V4.792L110.171 4.056V8.104C110.171 9.17067 110.693 9.704 111.739 9.704ZM104.011 12.6C104.523 12.6 104.779 12.8613 104.779 13.384C104.779 13.9173 104.523 14.184 104.011 14.184C103.488 14.184 103.227 13.9173 103.227 13.384C103.227 12.8613 103.488 12.6 104.011 12.6ZM114.672 4.232C114.683 4.232 114.699 4.232 114.72 4.232C114.741 4.232 114.757 4.232 114.768 4.232C115.973 4.232 116.949 4.60533 117.696 5.352C118.379 6.024 118.72 6.88267 118.72 7.928V8.2C118.72 9.11733 118.437 9.832 117.872 10.344C117.371 10.7813 116.725 11 115.936 11H111.52V9.704H115.808C116.832 9.704 117.344 9.16533 117.344 8.088V7.944C117.344 7.15467 117.035 6.54667 116.416 6.12C115.925 5.78933 115.328 5.624 114.624 5.624C114.059 5.624 113.488 5.72533 112.912 5.928V4.568L116.416 0.679999H117.824L114.672 4.232ZM121.128 11V1.416L122.504 0.679999V11H121.128ZM132.85 9.704V11H130.866C130.823 11.9173 130.428 12.6747 129.682 13.272C129.052 13.7627 128.338 14.008 127.538 14.008C126.876 14.008 126.252 13.8533 125.666 13.544V12.328C126.231 12.6267 126.791 12.776 127.346 12.776C127.911 12.776 128.402 12.6 128.818 12.248C129.244 11.896 129.463 11.4747 129.474 10.984C128.919 10.9627 128.508 10.9413 128.242 10.92C127.09 10.856 126.22 10.4667 125.634 9.752C125.143 9.15467 124.898 8.38133 124.898 7.432C124.898 6.26933 125.207 5.36267 125.826 4.712C126.38 4.136 127.111 3.848 128.018 3.848C128.967 3.848 129.698 4.13067 130.21 4.696C130.647 5.19733 130.866 5.85333 130.866 6.664V9.704H132.85ZM129.474 6.76C129.474 5.672 128.988 5.128 128.018 5.128C127.463 5.128 127.031 5.33067 126.722 5.736C126.412 6.13067 126.258 6.68533 126.258 7.4C126.258 8.79733 126.94 9.53867 128.306 9.624C128.562 9.656 128.951 9.68267 129.474 9.704V6.76ZM133.127 2.12C132.604 2.12 132.343 1.85333 132.343 1.32C132.343 0.797333 132.604 0.535999 133.127 0.535999C133.639 0.535999 133.895 0.797333 133.895 1.32C133.895 1.85333 133.639 2.12 133.127 2.12ZM135.159 2.12C134.636 2.12 134.375 1.85333 134.375 1.32C134.375 0.797333 134.636 0.535999 135.159 0.535999C135.671 0.535999 135.927 0.797333 135.927 1.32C135.927 1.85333 135.671 2.12 135.159 2.12ZM131.895 11V9.704H132.951C133.996 9.704 134.519 9.17067 134.519 8.104V4.792L135.895 4.056V8.152C135.895 9.05867 135.623 9.77333 135.079 10.296C134.578 10.7653 133.922 11 133.111 11H131.895ZM144.167 1.96C143.644 1.96 143.383 1.69333 143.383 1.16C143.383 0.637333 143.644 0.375999 144.167 0.375999C144.679 0.375999 144.935 0.637333 144.935 1.16C144.935 1.69333 144.679 1.96 144.167 1.96ZM146.215 1.96C145.692 1.96 145.431 1.69333 145.431 1.16C145.431 0.637333 145.692 0.375999 146.215 0.375999C146.727 0.375999 146.983 0.637333 146.983 1.16C146.983 1.69333 146.727 1.96 146.215 1.96ZM145.207 11C144.236 11 143.479 10.6747 142.935 10.024C142.465 9.45867 142.231 8.73867 142.231 7.864C142.231 6.91467 142.492 6.09333 143.015 5.4C143.548 4.696 144.305 4.17867 145.286 3.848C146.321 4.2 147.1 4.75467 147.623 5.512C148.092 6.184 148.327 6.968 148.327 7.864C148.327 8.87733 148.028 9.672 147.431 10.248C146.897 10.7493 146.209 11 145.367 11H145.207ZM145.159 9.704H145.399C145.879 9.704 146.257 9.53867 146.535 9.208C146.823 8.87733 146.967 8.43467 146.967 7.88C146.967 6.6 146.407 5.68267 145.286 5.128C144.167 5.68267 143.607 6.59467 143.607 7.864C143.607 8.42933 143.745 8.87733 144.023 9.208C144.3 9.53867 144.679 9.704 145.159 9.704ZM153.214 10.152C153.214 11.3467 152.9 12.3067 152.27 13.032C151.673 13.7253 150.878 14.072 149.886 14.072C149.246 14.072 148.622 13.912 148.014 13.592V12.392C148.558 12.6907 149.102 12.84 149.646 12.84C150.329 12.84 150.862 12.6107 151.246 12.152C151.63 11.6933 151.822 11.0587 151.822 10.248V4.792L153.214 4.056V10.152ZM163.568 9.704V11H161.584C161.542 11.9173 161.147 12.6747 160.4 13.272C159.771 13.7627 159.056 14.008 158.256 14.008C157.595 14.008 156.971 13.8533 156.384 13.544V12.328C156.95 12.6267 157.51 12.776 158.064 12.776C158.63 12.776 159.12 12.6 159.536 12.248C159.963 11.896 160.182 11.4747 160.192 10.984C159.638 10.9627 159.227 10.9413 158.96 10.92C157.808 10.856 156.939 10.4667 156.352 9.752C155.862 9.15467 155.616 8.38133 155.616 7.432C155.616 6.26933 155.926 5.36267 156.544 4.712C157.099 4.136 157.83 3.848 158.736 3.848C159.686 3.848 160.416 4.13067 160.928 4.696C161.366 5.19733 161.584 5.85333 161.584 6.664V9.704H163.568ZM160.192 6.76C160.192 5.672 159.707 5.128 158.736 5.128C158.182 5.128 157.75 5.33067 157.44 5.736C157.131 6.13067 156.976 6.68533 156.976 7.4C156.976 8.79733 157.659 9.53867 159.024 9.624C159.28 9.656 159.67 9.68267 160.192 9.704V6.76ZM176.918 9.704H177.974V11H176.758C175.904 11 175.238 10.7493 174.758 10.248C174.32 10.7493 173.702 11 172.902 11H162.614V9.704H165.59L165.638 9.528V1.416L167.014 0.679999V6.536C168.23 4.744 169.739 3.848 171.542 3.848C172.747 3.848 173.712 4.26933 174.438 5.112C175.056 5.82667 175.366 6.70667 175.366 7.752V8.136C175.366 9.18133 175.883 9.704 176.918 9.704ZM173.974 8.2V7.752C173.974 6.92 173.718 6.25867 173.206 5.768C172.768 5.34133 172.219 5.128 171.558 5.128C170.459 5.128 169.467 5.624 168.582 6.616C167.92 7.36267 167.398 8.296 167.014 9.416V9.704H172.79C173.248 9.704 173.558 9.59733 173.718 9.384C173.888 9.17067 173.974 8.776 173.974 8.2ZM178.812 2.232C178.289 2.232 178.028 1.96533 178.028 1.432C178.028 0.909333 178.289 0.648 178.812 0.648C179.324 0.648 179.58 0.909333 179.58 1.432C179.58 1.96533 179.324 2.232 178.812 2.232ZM180.86 2.232C180.337 2.232 180.076 1.96533 180.076 1.432C180.076 0.909333 180.337 0.648 180.86 0.648C181.372 0.648 181.628 0.909333 181.628 1.432C181.628 1.96533 181.372 2.232 180.86 2.232ZM182.588 9.704H183.644V11H182.428C181.543 11 180.844 10.7173 180.332 10.152C179.82 10.7173 179.121 11 178.236 11H177.02V9.704H178.076C179.121 9.704 179.644 9.17067 179.644 8.104V4.792L181.02 4.056V8.104C181.02 9.17067 181.543 9.704 182.588 9.704ZM185.3 6.664C185.3 5.736 185.578 5.016 186.132 4.504C186.623 4.06667 187.263 3.848 188.052 3.848C189.066 3.848 189.844 4.22133 190.388 4.968C190.858 5.59733 191.092 6.41867 191.092 7.432C191.092 8.584 190.794 9.48533 190.196 10.136C189.674 10.712 188.991 11 188.148 11C187.188 11 186.458 10.7333 185.956 10.2C185.444 10.7333 184.756 11 183.892 11H182.676V9.704H183.732C184.778 9.704 185.3 9.17067 185.3 8.104V6.664ZM186.676 8.216C186.676 9.208 187.162 9.704 188.132 9.704C188.634 9.704 189.023 9.50133 189.3 9.096C189.588 8.69067 189.732 8.12533 189.732 7.4C189.732 6.68533 189.583 6.13067 189.284 5.736C188.986 5.33067 188.575 5.128 188.052 5.128C187.135 5.128 186.676 5.66133 186.676 6.728V8.216ZM200.835 15.344L201.315 14.304L204.723 13.696L204.243 14.72L200.835 15.344ZM200.562 16.96L201.043 15.936L204.467 15.312L203.987 16.336L200.562 16.96ZM201.759 3.56C201.237 3.56 200.975 3.29333 200.975 2.76C200.975 2.23733 201.237 1.976 201.759 1.976C202.271 1.976 202.527 2.23733 202.527 2.76C202.527 3.29333 202.271 3.56 201.759 3.56ZM203.791 3.56C203.269 3.56 203.007 3.29333 203.007 2.76C203.007 2.23733 203.269 1.976 203.791 1.976C204.303 1.976 204.559 2.23733 204.559 2.76C204.559 3.29333 204.303 3.56 203.791 3.56ZM200.143 11C199.279 11 198.602 10.712 198.111 10.136C197.685 9.63467 197.471 8.97867 197.471 8.168V6.232L198.847 5.496V8.04C198.847 9.14933 199.365 9.704 200.399 9.704H205.711C206.746 9.704 207.263 9.14933 207.263 8.04V4.792L208.639 4.056V8.168C208.639 9.096 208.357 9.816 207.791 10.328C207.29 10.776 206.645 11 205.855 11H200.143ZM213.99 11C213.062 11 212.347 10.7013 211.846 10.104C211.419 9.592 211.206 8.94133 211.206 8.152V1.416L212.582 0.679999V8.104C212.582 9.17067 213.104 9.704 214.15 9.704H215.206V11H213.99ZM219.807 9.704H220.863V11H219.647C218.761 11 218.063 10.7173 217.551 10.152C217.039 10.7173 216.34 11 215.455 11H214.239V9.704H215.295C216.34 9.704 216.863 9.17067 216.863 8.104V4.792L218.239 4.056V8.104C218.239 9.17067 218.761 9.704 219.807 9.704ZM215.983 12.6C216.495 12.6 216.751 12.8667 216.751 13.4C216.751 13.9227 216.495 14.184 215.983 14.184C215.46 14.184 215.199 13.9227 215.199 13.4C215.199 12.8667 215.46 12.6 215.983 12.6ZM218.015 12.6C218.527 12.6 218.783 12.8667 218.783 13.4C218.783 13.9227 218.527 14.184 218.015 14.184C217.492 14.184 217.231 13.9227 217.231 13.4C217.231 12.8667 217.492 12.6 218.015 12.6ZM222.935 2.12C222.412 2.12 222.151 1.85333 222.151 1.32C222.151 0.797333 222.412 0.535999 222.935 0.535999C223.447 0.535999 223.703 0.797333 223.703 1.32C223.703 1.85333 223.447 2.12 222.935 2.12ZM225.463 9.704H226.519V11H225.303C224.418 11 223.719 10.7173 223.207 10.152C222.695 10.7173 221.996 11 221.111 11H219.895V9.704H220.951C221.996 9.704 222.519 9.17067 222.519 8.104V4.792L223.895 4.056V8.104C223.895 9.17067 224.418 9.704 225.463 9.704ZM229.519 2.232C228.997 2.232 228.735 1.96533 228.735 1.432C228.735 0.909333 228.997 0.648 229.519 0.648C230.031 0.648 230.287 0.909333 230.287 1.432C230.287 1.96533 230.031 2.232 229.519 2.232ZM231.551 2.232C231.029 2.232 230.767 1.96533 230.767 1.432C230.767 0.909333 231.029 0.648 231.551 0.648C232.063 0.648 232.319 0.909333 232.319 1.432C232.319 1.96533 232.063 2.232 231.551 2.232ZM232.543 9.704H235.519V11H231.615C231.199 11 230.837 10.9627 230.527 10.888C230.229 10.9627 229.866 11 229.439 11H225.551V9.704H228.527C227.866 8.94667 227.535 8.10933 227.535 7.192C227.535 6.14667 227.829 5.31467 228.415 4.696C228.949 4.13067 229.653 3.848 230.527 3.848C231.53 3.848 232.303 4.21067 232.847 4.936C233.306 5.53333 233.535 6.28533 233.535 7.192C233.535 8.10933 233.205 8.94667 232.543 9.704ZM230.543 9.56C231.034 9.38933 231.434 9.08 231.743 8.632C232.053 8.17333 232.207 7.672 232.207 7.128C232.207 6.50933 232.053 6.024 231.743 5.672C231.445 5.30933 231.039 5.128 230.527 5.128C230.015 5.128 229.605 5.30933 229.295 5.672C228.997 6.03467 228.847 6.52 228.847 7.128C228.847 7.66133 229.007 8.15733 229.327 8.616C229.647 9.07467 230.053 9.38933 230.543 9.56ZM235.799 2.12C235.276 2.12 235.015 1.85333 235.015 1.32C235.015 0.797333 235.276 0.535999 235.799 0.535999C236.311 0.535999 236.567 0.797333 236.567 1.32C236.567 1.85333 236.311 2.12 235.799 2.12ZM237.831 2.12C237.308 2.12 237.047 1.85333 237.047 1.32C237.047 0.797333 237.308 0.535999 237.831 0.535999C238.343 0.535999 238.599 0.797333 238.599 1.32C238.599 1.85333 238.343 2.12 237.831 2.12ZM234.567 11V9.704H235.623C236.668 9.704 237.191 9.17067 237.191 8.104V4.792L238.567 4.056V8.152C238.567 9.05867 238.295 9.77333 237.751 10.296C237.25 10.7653 236.594 11 235.783 11H234.567ZM206.19 29.232C206.19 29.2213 206.19 29.2107 206.19 29.2C206.212 28.6667 206.494 28.4 207.038 28.4C207.604 28.4 207.886 28.6773 207.886 29.232C207.886 29.7973 207.604 30.08 207.038 30.08C206.473 30.08 206.19 29.7973 206.19 29.232ZM209.473 30L210.145 28.704H212.993C213.419 28.704 213.718 28.5973 213.889 28.384C214.07 28.1707 214.161 27.8027 214.161 27.28C214.161 25.8613 213.505 24.7947 212.193 24.08L212.897 22.896C214.571 23.8773 215.446 25.232 215.521 26.96C215.542 27.5787 215.681 28.0267 215.937 28.304C216.203 28.5707 216.625 28.704 217.201 28.704H218.145V30H217.089C216.203 30 215.51 29.7173 215.009 29.152C214.657 29.7173 214.065 30 213.233 30H209.473ZM217.192 30V28.704H218.248C219.293 28.704 219.816 28.1707 219.816 27.104V23.792L221.192 23.056V27.152C221.192 28.0587 220.92 28.7733 220.376 29.296C219.875 29.7653 219.219 30 218.408 30H217.192ZM218.04 33.184C217.517 33.184 217.256 32.9173 217.256 32.384C217.256 31.8613 217.517 31.6 218.04 31.6C218.552 31.6 218.808 31.8613 218.808 32.384C218.808 32.9173 218.552 33.184 218.04 33.184ZM220.072 33.184C219.549 33.184 219.288 32.9173 219.288 32.384C219.288 31.8613 219.549 31.6 220.072 31.6C220.584 31.6 220.84 31.8613 220.84 32.384C220.84 32.9173 220.584 33.184 220.072 33.184ZM222.785 30L223.457 28.704H226.305C226.732 28.704 227.03 28.5973 227.201 28.384C227.382 28.1707 227.473 27.8027 227.473 27.28C227.473 25.8613 226.817 24.7947 225.505 24.08L226.209 22.896C227.884 23.8773 228.758 25.232 228.833 26.96C228.854 27.5787 228.993 28.0267 229.249 28.304C229.516 28.5707 229.937 28.704 230.513 28.704H231.457V30H230.401C229.516 30 228.822 29.7173 228.321 29.152C227.969 29.7173 227.377 30 226.545 30H222.785ZM230.504 30V28.704H232.696C234.862 28.704 236.574 27.9893 237.832 26.56C236.947 24.928 235.87 24.112 234.6 24.112C233.736 24.112 232.846 24.5707 231.928 25.488V24.208C232.824 23.3013 233.774 22.848 234.776 22.848C235.598 22.848 236.392 23.1467 237.16 23.744C237.928 24.3307 238.606 25.1733 239.192 26.272V26.976C237.624 28.992 235.454 30 232.68 30H230.504ZM235.192 33.184C234.67 33.184 234.408 32.9173 234.408 32.384C234.408 31.8613 234.67 31.6 235.192 31.6C235.704 31.6 235.96 31.8613 235.96 32.384C235.96 32.9173 235.704 33.184 235.192 33.184Z" fill="#1B1D1E"/>
<g clip-path="url(#clip0_1710_12195)">
<path d="M265.748 6.25098C265.193 6.25098 264.742 6.7016 264.742 7.25723V14.1435C264.742 14.6991 265.193 15.1497 265.748 15.1497C266.304 15.1497 266.755 14.6991 266.755 14.1435V7.25723C266.755 6.7016 266.304 6.25098 265.748 6.25098ZM266.326 14.1479C266.326 14.4672 266.068 14.7254 265.748 14.7254C265.429 14.7254 265.171 14.4672 265.171 14.1479V7.2616C265.171 6.94223 265.429 6.6841 265.748 6.6841C266.068 6.6841 266.326 6.94223 266.326 7.2616V14.1479Z" fill="#F15D2A" stroke="#F15D2A" stroke-width="0.5"/>
<path d="M261.388 6.95973C261.257 6.53535 260.867 6.25098 260.425 6.25098C259.983 6.25098 259.598 6.53535 259.463 6.95973L257.288 13.846C257.21 14.1041 257.232 14.3754 257.354 14.616C257.477 14.8566 257.687 15.0316 257.945 15.1147C258.045 15.1454 258.146 15.1629 258.247 15.1629C258.404 15.1629 258.566 15.1235 258.71 15.0491C258.947 14.9266 259.126 14.7166 259.205 14.4629L261.628 14.4454V14.4629C261.79 14.9704 262.302 15.2941 262.893 15.1191C263.151 15.0404 263.361 14.861 263.488 14.6247C263.615 14.3841 263.637 14.1129 263.558 13.8547L261.383 6.96848L261.388 6.95973ZM263.112 14.4147C263.042 14.5504 262.919 14.651 262.775 14.6991C262.429 14.7997 262.14 14.6116 262.048 14.3229L261.996 14.1566C261.965 14.0691 261.887 14.0079 261.79 14.0079H259.06C258.968 14.0079 258.885 14.0691 258.855 14.1566L258.798 14.3272C258.702 14.6291 258.378 14.7954 258.076 14.7035C257.932 14.6554 257.809 14.5547 257.739 14.4191C257.669 14.2835 257.656 14.126 257.7 13.9772L259.874 7.09098C259.948 6.84598 260.172 6.6841 260.425 6.6841C260.679 6.6841 260.902 6.85035 260.977 7.09098L263.151 13.9772C263.199 14.126 263.182 14.2791 263.112 14.4191V14.4147Z" fill="#F15D2A" stroke="#F15D2A" stroke-width="0.5"/>
<path d="M260.63 9.82984C260.573 9.65047 260.276 9.65047 260.219 9.82984L259.313 12.6955C259.291 12.7611 259.305 12.8311 259.344 12.888C259.383 12.9448 259.449 12.9755 259.519 12.9755H261.33C261.4 12.9755 261.461 12.9448 261.505 12.888C261.545 12.8311 261.558 12.7611 261.536 12.6955L260.63 9.82984ZM259.812 12.5467L260.425 10.613L261.037 12.5467H259.812Z" fill="#F15D2A" stroke="#F15D2A" stroke-width="0.2"/>
<path d="M268.4 4.48368C266.523 2.70743 264.06 1.80618 261.47 1.95055C256.684 2.21743 252.83 6.1768 252.69 10.9718C252.606 13.8287 253.81 16.5237 255.997 18.3656C257.012 19.2231 257.594 20.5093 257.594 21.9006V22.2856C257.17 22.4256 256.859 22.8237 256.859 23.2962V27.0631C256.859 28.1612 257.756 29.0581 258.854 29.0581H265.15C266.248 29.0581 267.145 28.1612 267.145 27.0631V23.2962C267.145 22.8237 266.834 22.4299 266.41 22.2856V21.9006C266.41 20.5093 266.991 19.2187 268.011 18.3612C270.111 16.5849 271.318 13.9949 271.318 11.2474C271.318 8.6618 270.281 6.25555 268.405 4.4793L268.4 4.48368ZM266.711 23.3006V27.0674C266.711 27.9293 266.011 28.6337 265.145 28.6337H258.85C257.988 28.6337 257.283 27.9337 257.283 27.0674V23.3006C257.283 22.9506 257.568 22.6618 257.922 22.6618H266.073C266.423 22.6618 266.711 22.9462 266.711 23.3006ZM267.731 18.0374C266.615 18.9781 265.976 20.3868 265.976 21.9049V22.2331H258.018V21.9049C258.018 20.3868 257.38 18.9781 256.268 18.0418C254.186 16.2831 253.035 13.7149 253.114 10.9893C253.25 6.41743 256.929 2.63743 261.492 2.38368C263.964 2.25243 266.313 3.10555 268.103 4.79868C269.896 6.49618 270.881 8.78868 270.881 11.2562C270.881 13.8724 269.73 16.3443 267.726 18.0374H267.731Z" fill="#1D5166" stroke="#1D5166"/>
</g>
<defs>
<clipPath id="clip0_1710_12195">
<rect width="28" height="28" fill="white" transform="translate(248 1.5)"/>
</clipPath>
</defs>
</svg>
