<svg width="106" height="34" viewBox="0 0 106 34" fill="none" xmlns="http://www.w3.org/2000/svg">
<path d="M0.784386 19.3828H0.0803223V24.3154H0.784386V19.3828Z" fill="#F15D2A"/>
<path d="M3.49072 19.3828H4.10678L6.527 23.1754L6.43899 23.2631V19.3828H7.12105V24.2934H6.50499L4.08478 20.5447L4.17278 20.457V24.2934H3.49072V19.3828Z" fill="#F15D2A"/>
<path d="M9.43115 19.3828H12.9295V20.0405H9.43115V19.3828ZM10.8173 19.7774H11.5213V24.2934H10.8173V19.7774Z" fill="#F15D2A"/>
<path d="M15.0637 19.3828H15.7678V24.3154H15.0637V19.3828ZM15.3938 19.3828H18.232V20.0405H15.3938V19.3828ZM15.3938 21.5312H17.858V22.1889H15.3938V21.5312ZM15.3938 23.6358H18.232V24.2934H15.3938V23.6358Z" fill="#F15D2A"/>
<path d="M24.0845 21.6407V22.4956C24.0845 22.8683 24.0185 23.1752 23.8645 23.4602C23.7325 23.7452 23.5124 23.9644 23.2484 24.1179C22.9844 24.2714 22.6764 24.3371 22.3463 24.3371C22.0163 24.3371 21.6863 24.2714 21.4223 24.1179C21.1582 23.9644 20.9602 23.7671 20.8062 23.5041C20.6522 23.241 20.5862 22.9341 20.5862 22.5833V21.1365C20.5862 20.7638 20.6522 20.4569 20.8062 20.1719C20.9382 19.8869 21.1582 19.6677 21.4223 19.5361C21.6863 19.3827 21.9943 19.3169 22.3243 19.3169C22.6544 19.3169 22.8744 19.3827 23.1164 19.4923C23.3584 19.6238 23.5565 19.7773 23.7105 19.9965C23.8645 20.2157 23.9745 20.4788 24.0405 20.7638H23.2924C23.2484 20.6103 23.1824 20.4569 23.0944 20.3472C23.0064 20.2376 22.8744 20.128 22.7424 20.0842C22.6104 20.0184 22.4784 19.9965 22.3243 19.9965C22.1263 19.9965 21.9503 20.0403 21.7963 20.1499C21.6423 20.2376 21.5323 20.3911 21.4443 20.5665C21.3563 20.7419 21.3122 20.9392 21.3122 21.1803V22.6272C21.3122 22.8464 21.3563 23.0218 21.4443 23.1752C21.5323 23.3287 21.6423 23.4602 21.8183 23.5479C21.9723 23.6356 22.1483 23.6795 22.3683 23.6795C22.5884 23.6795 22.7424 23.6356 22.8964 23.5479C23.0504 23.4602 23.1604 23.3287 23.2484 23.1533C23.3364 22.9779 23.3804 22.7806 23.3804 22.5395V22.3203H22.3683V21.6626H24.0845V21.6407Z" fill="#F15D2A"/>
<path d="M26.6147 19.3828H27.3188V24.3154H26.6147V19.3828ZM26.9228 21.5531H28.6169C28.7489 21.5531 28.8589 21.5312 28.969 21.4654C29.079 21.3997 29.145 21.312 29.211 21.2024C29.277 21.0928 29.299 20.9612 29.299 20.8078C29.299 20.6543 29.277 20.5228 29.211 20.4132C29.145 20.3036 29.079 20.2159 28.969 20.1501C28.8589 20.0843 28.7489 20.0624 28.6169 20.0624H26.9228V19.4047H28.5729C28.8589 19.4047 29.101 19.4705 29.321 19.5801C29.541 19.6897 29.695 19.8651 29.827 20.0843C29.937 20.3036 30.003 20.5447 30.003 20.8297C30.003 21.1147 29.937 21.3558 29.827 21.5751C29.717 21.7943 29.541 21.9477 29.321 22.0793C29.101 22.1889 28.8589 22.2547 28.5729 22.2547H26.9228V21.597V21.5531ZM28.2649 22.0573L28.947 21.9039L30.2011 24.2934H29.387L28.2649 22.0573Z" fill="#F15D2A"/>
<path d="M33.8093 19.3828H34.4033L36.2295 24.3154H35.4814L34.1173 20.3474L32.7532 24.3154H32.0051L33.8313 19.3828H33.8093ZM32.8192 22.5616H35.4154V23.2192H32.8192V22.5616Z" fill="#F15D2A"/>
<path d="M37.6157 19.3828H41.114V20.0405H37.6157V19.3828ZM39.0238 19.7774H39.7279V24.2934H39.0238V19.7774Z" fill="#F15D2A"/>
<path d="M43.2703 19.3828H43.9743V24.3154H43.2703V19.3828ZM43.6003 19.3828H46.4385V20.0405H43.6003V19.3828ZM43.6003 21.5312H46.0645V22.1889H43.6003V21.5312ZM43.6003 23.6358H46.4385V24.2934H43.6003V23.6358Z" fill="#F15D2A"/>
<path d="M48.9028 19.3828H49.6069V24.3154H48.9028V19.3828ZM49.3649 23.6358H50.487C50.861 23.6358 51.125 23.5481 51.3451 23.3508C51.5431 23.1535 51.6531 22.8904 51.6531 22.5616V21.1147C51.6531 20.7639 51.5431 20.5009 51.3451 20.3255C51.147 20.1282 50.861 20.0405 50.487 20.0405H49.3649V19.3828H50.465C50.861 19.3828 51.191 19.4486 51.4771 19.5801C51.7631 19.7116 51.9611 19.909 52.1151 20.1939C52.2691 20.457 52.3351 20.7858 52.3351 21.1585V22.5616C52.3351 22.9342 52.2691 23.2631 52.1151 23.5262C51.9611 23.7892 51.7631 23.9865 51.4771 24.14C51.191 24.2715 50.861 24.3373 50.465 24.3373H49.3649V23.6796V23.6358Z" fill="#F15D2A"/>
<path d="M59.4197 24.3592C59.4197 24.3592 59.3097 24.3372 59.0896 24.2934C58.8696 24.2495 58.6716 24.1838 58.4956 24.0961C58.3196 24.0084 58.1435 23.8988 57.9675 23.7672L58.4076 23.2411C58.6056 23.3946 58.8036 23.5261 59.0236 23.6138C59.2436 23.7015 59.4857 23.7453 59.7717 23.7453C60.0577 23.7453 60.4097 23.6796 60.6078 23.548C60.8058 23.4165 60.8938 23.2192 60.8938 22.978C60.8938 22.8027 60.8498 22.6711 60.7618 22.5615C60.6738 22.4519 60.5638 22.3861 60.4098 22.3423C60.2777 22.2984 60.0797 22.2546 59.8597 22.2108C59.8597 22.2108 59.8597 22.2108 59.8377 22.2108C59.8157 22.2108 59.8377 22.2108 59.8157 22.2108H59.7717C59.4417 22.145 59.1776 22.0792 58.9576 22.0135C58.7596 21.9477 58.5836 21.8162 58.4296 21.6189C58.2756 21.4215 58.2096 21.1585 58.2096 20.8077C58.2096 20.5008 58.2756 20.2377 58.4076 20.0185C58.5396 19.7993 58.7376 19.6458 59.0016 19.5362C59.2656 19.4266 59.5737 19.3608 59.9477 19.3608C60.3217 19.3608 60.2997 19.3608 60.4758 19.4266C60.6518 19.4705 60.8058 19.5143 60.9818 19.602C61.1578 19.6678 61.3118 19.7774 61.4658 19.887L61.0698 20.435C60.8718 20.3035 60.6958 20.1939 60.4978 20.1281C60.2997 20.0624 60.1237 20.0185 59.9257 20.0185C59.5957 20.0185 59.3316 20.0843 59.1336 20.2158C58.9356 20.3473 58.8476 20.5447 58.8476 20.7858C58.8476 20.9612 58.8916 21.0927 59.0016 21.1804C59.0896 21.2681 59.2216 21.3558 59.3537 21.3996C59.5077 21.4435 59.7057 21.4873 59.9477 21.5531C59.9477 21.5531 59.9477 21.5531 59.9697 21.5531C59.9697 21.5531 59.9697 21.5531 59.9917 21.5531C59.9917 21.5531 60.0137 21.5531 60.0357 21.5531C60.0357 21.5531 60.0577 21.5531 60.0797 21.5531C60.3877 21.6188 60.6298 21.6846 60.8278 21.7723C61.0258 21.86 61.2018 21.9915 61.3338 22.1669C61.4658 22.3423 61.5318 22.6054 61.5318 22.9342C61.5318 23.2411 61.4658 23.5042 61.3118 23.7015C61.1578 23.9207 60.9598 24.0742 60.6958 24.1838C60.4317 24.2934 60.1017 24.3592 59.7057 24.3592H59.3537H59.4197Z" fill="#F15D2A"/>
<path d="M64.6342 24.1399C64.3701 23.9865 64.1721 23.7672 64.0181 23.5042C63.8641 23.2192 63.7981 22.9123 63.7981 22.5615V21.1585C63.7981 20.8077 63.8641 20.4789 64.0181 20.2158C64.1721 19.9308 64.3701 19.7335 64.6342 19.5801C64.8982 19.4266 65.2062 19.3608 65.5363 19.3608C65.8663 19.3608 66.1743 19.4266 66.4383 19.5801C66.7024 19.7335 66.9004 19.9527 67.0544 20.2158C67.2084 20.5008 67.2744 20.8077 67.2744 21.1585V22.5615C67.2744 22.9342 67.2084 23.2411 67.0544 23.5042C66.9004 23.7892 66.7024 23.9865 66.4383 24.1399C66.1743 24.2934 65.8663 24.3592 65.5363 24.3592C65.2062 24.3592 64.8982 24.2934 64.6342 24.1399ZM66.0863 23.5261C66.2403 23.4384 66.3723 23.3069 66.4383 23.1315C66.5263 22.9561 66.5703 22.7588 66.5703 22.5396V21.0927C66.5703 20.8735 66.5263 20.6762 66.4383 20.5008C66.3503 20.3254 66.2403 20.1939 66.0863 20.1062C65.9323 20.0185 65.7563 19.9747 65.5363 19.9747C65.3162 19.9747 65.1622 20.0185 65.0082 20.1062C64.8542 20.1939 64.7222 20.3254 64.6562 20.5008C64.5682 20.6762 64.5242 20.8735 64.5242 21.0927V22.5396C64.5242 22.7588 64.5682 22.9561 64.6562 23.1315C64.7442 23.3069 64.8542 23.4384 65.0082 23.5261C65.1622 23.6138 65.3382 23.6576 65.5363 23.6576C65.7343 23.6576 65.9103 23.6138 66.0863 23.5261Z" fill="#F15D2A"/>
<path d="M69.8267 19.3828H70.5307V24.3154H69.8267V19.3828ZM70.1567 23.6358H72.9949V24.2934H70.1567V23.6358Z" fill="#F15D2A"/>
<path d="M75.877 24.14C75.613 23.9865 75.415 23.7892 75.283 23.5042C75.151 23.2192 75.085 22.8904 75.085 22.5177V19.3828H75.789V22.5396C75.789 22.8904 75.877 23.1754 76.053 23.3727C76.2291 23.57 76.4931 23.6577 76.8231 23.6577C77.1531 23.6577 77.4172 23.57 77.5932 23.3727C77.7692 23.1754 77.8572 22.8904 77.8572 22.5396V19.3828H78.5613V22.5177C78.5613 22.9123 78.4953 23.2412 78.3633 23.5042C78.2312 23.7892 78.0332 23.9865 77.7692 24.14C77.5052 24.2934 77.1971 24.3592 76.8231 24.3592C76.4491 24.3592 76.1411 24.2934 75.877 24.14Z" fill="#F15D2A"/>
<path d="M80.4976 19.3828H83.9959V20.0405H80.4976V19.3828ZM81.9057 19.7774H82.6098V24.2934H81.9057V19.7774Z" fill="#F15D2A"/>
<path d="M86.8562 19.3828H86.1521V24.3154H86.8562V19.3828Z" fill="#F15D2A"/>
<path d="M90.2665 24.1399C90.0025 23.9865 89.8045 23.7672 89.6504 23.5042C89.4964 23.2192 89.4304 22.9123 89.4304 22.5615V21.1585C89.4304 20.8077 89.4964 20.4789 89.6504 20.2158C89.8045 19.9308 90.0025 19.7335 90.2665 19.5801C90.5305 19.4266 90.8385 19.3608 91.1686 19.3608C91.4986 19.3608 91.8066 19.4266 92.0707 19.5801C92.3347 19.7335 92.5327 19.9527 92.6867 20.2158C92.8407 20.5008 92.9067 20.8077 92.9067 21.1585V22.5615C92.9067 22.9342 92.8407 23.2411 92.6867 23.5042C92.5327 23.7892 92.3347 23.9865 92.0707 24.1399C91.8066 24.2934 91.4986 24.3592 91.1686 24.3592C90.8385 24.3592 90.5305 24.2934 90.2665 24.1399ZM91.7186 23.5261C91.8726 23.4384 92.0047 23.3069 92.0707 23.1315C92.1587 22.9561 92.2027 22.7588 92.2027 22.5396V21.0927C92.2027 20.8735 92.1587 20.6762 92.0707 20.5008C91.9826 20.3254 91.8726 20.1939 91.7186 20.1062C91.5646 20.0185 91.3886 19.9747 91.1686 19.9747C90.9486 19.9747 90.7945 20.0185 90.6405 20.1062C90.4865 20.1939 90.3545 20.3254 90.2885 20.5008C90.2005 20.6762 90.1565 20.8735 90.1565 21.0927V22.5396C90.1565 22.7588 90.2005 22.9561 90.2885 23.1315C90.3765 23.3069 90.4865 23.4384 90.6405 23.5261C90.7945 23.6138 90.9706 23.6576 91.1686 23.6576C91.3666 23.6576 91.5426 23.6138 91.7186 23.5261Z" fill="#F15D2A"/>
<path d="M95.437 19.3828H96.0751L98.4953 23.1754L98.4073 23.2631V19.3828H99.0893V24.2934H98.4513L96.0531 20.5447L96.1411 20.457V24.2934H95.437V19.3828Z" fill="#F15D2A"/>
<path d="M102.917 24.3592C102.917 24.3592 102.807 24.3372 102.587 24.2934C102.367 24.2495 102.169 24.1838 101.993 24.0961C101.817 24.0084 101.641 23.8988 101.465 23.7672L101.905 23.2411C102.103 23.3946 102.301 23.5261 102.521 23.6138C102.741 23.7015 102.983 23.7453 103.269 23.7453C103.556 23.7453 103.908 23.6796 104.106 23.548C104.304 23.4165 104.392 23.2192 104.392 22.978C104.392 22.8027 104.348 22.6711 104.26 22.5615C104.172 22.4519 104.062 22.3861 103.908 22.3423C103.776 22.2984 103.578 22.2546 103.358 22.2108C103.358 22.2108 103.358 22.2108 103.336 22.2108C103.313 22.2108 103.336 22.2108 103.314 22.2108H103.269C102.939 22.145 102.675 22.0792 102.455 22.0135C102.257 21.9477 102.081 21.8162 101.927 21.6189C101.773 21.4215 101.707 21.1585 101.707 20.8077C101.707 20.5008 101.773 20.2377 101.905 20.0185C102.037 19.7993 102.235 19.6458 102.499 19.5362C102.763 19.4266 103.071 19.3608 103.446 19.3608C103.82 19.3608 103.798 19.3608 103.974 19.4266C104.15 19.4705 104.304 19.5143 104.48 19.602C104.656 19.6678 104.81 19.7774 104.964 19.887L104.568 20.435C104.37 20.3035 104.194 20.1939 103.996 20.1281C103.798 20.0624 103.622 20.0185 103.424 20.0185C103.093 20.0185 102.829 20.0843 102.631 20.2158C102.433 20.3473 102.345 20.5447 102.345 20.7858C102.345 20.9612 102.389 21.0927 102.499 21.1804C102.587 21.2681 102.719 21.3558 102.851 21.3996C103.005 21.4435 103.203 21.4873 103.446 21.5531C103.446 21.5531 103.446 21.5531 103.468 21.5531C103.468 21.5531 103.468 21.5531 103.49 21.5531C103.49 21.5531 103.512 21.5531 103.534 21.5531C103.534 21.5531 103.556 21.5531 103.578 21.5531C103.886 21.6188 104.128 21.6846 104.326 21.7723C104.524 21.86 104.7 21.9915 104.832 22.1669C104.964 22.3423 105.03 22.6054 105.03 22.9342C105.03 23.2411 104.964 23.5042 104.81 23.7015C104.678 23.9207 104.458 24.0742 104.194 24.1838C103.93 24.2934 103.6 24.3592 103.203 24.3592H102.851H102.917Z" fill="#F15D2A"/>
<path d="M22.2364 15.7656C22.2364 15.7656 22.2364 15.7656 22.2144 15.7656C21.7303 15.7656 21.2463 15.656 20.7842 15.4587C20.3222 15.2614 19.9262 14.9983 19.5741 14.6257C19.2661 14.3187 19.0241 13.968 18.8481 13.5734C18.496 12.7842 18.562 11.8415 19.0241 11.0085C19.0901 10.9208 19.1341 10.8111 19.1781 10.7015C19.3101 10.3946 19.3761 10.0658 19.3981 9.73695C19.4421 8.94774 19.1341 8.18046 18.606 7.6324C18.342 7.36933 18.056 7.17203 17.704 7.01857C17.5939 6.97472 17.4619 6.93088 17.3519 6.88703C16.3398 6.60204 15.5698 5.85668 15.3497 4.91401C15.2617 4.56326 15.2177 4.2125 15.2397 3.86174C15.2397 3.42329 15.3497 2.98484 15.5258 2.56832C15.7018 2.15179 15.9438 1.77911 16.2518 1.45027C16.9559 0.704909 17.968 0.26646 19.0021 0.288383C19.4861 0.288383 19.9702 0.397995 20.4322 0.595297C20.8942 0.792598 21.2903 1.07759 21.6423 1.42835C21.9503 1.73526 22.1924 2.08602 22.3684 2.48063C22.7204 3.26983 22.6544 4.2125 22.1924 5.04555C22.1264 5.13324 22.0824 5.24285 22.0384 5.35246C21.9063 5.65938 21.8403 5.98821 21.8183 6.33897C21.7743 7.12818 22.0824 7.89547 22.6104 8.44353C22.8744 8.7066 23.1605 8.9039 23.5125 9.05735C23.5785 9.07928 23.6225 9.1012 23.6885 9.12312C25.2506 9.67118 26.2187 11.2496 25.9107 12.7842C25.8667 13.0253 25.7787 13.2884 25.6907 13.5076C25.0966 14.8887 23.7545 15.7875 22.2584 15.7875M18.9801 1.20912C18.21 1.20912 17.4619 1.53796 16.9339 2.08602C16.6919 2.32717 16.5159 2.61216 16.3838 2.91907C16.2518 3.22599 16.1858 3.55482 16.1638 3.88366C16.1638 4.14673 16.1638 4.4098 16.2518 4.67287C16.4058 5.2867 16.9119 5.79091 17.5939 5.96629C17.748 6.01014 17.902 6.0759 18.056 6.11975C18.518 6.31705 18.9141 6.60204 19.2661 6.9528C19.9922 7.69816 20.3882 8.7066 20.3222 9.73695C20.3222 10.1754 20.2122 10.6138 20.0362 11.0304C19.9702 11.1619 19.9042 11.3154 19.8382 11.4469C19.5081 12.0169 19.4641 12.6526 19.6841 13.1568C19.8161 13.4638 20.0142 13.7268 20.2342 13.9461C20.4982 14.2091 20.7842 14.4283 21.1363 14.5599C21.4883 14.7133 21.8403 14.7791 22.2144 14.7791C23.3585 14.7791 24.3926 14.1214 24.8326 13.0692C24.8986 12.8938 24.9646 12.7184 25.0086 12.5211C25.2286 11.4469 24.5246 10.3289 23.4025 9.93425C23.3145 9.91233 23.2485 9.86848 23.1605 9.84656C22.6984 9.64926 22.3024 9.36427 21.9503 9.01351C21.2243 8.26815 20.8282 7.25971 20.8942 6.22936C20.8942 5.79091 21.0043 5.35246 21.1803 4.93594C21.2463 4.8044 21.3123 4.65095 21.3783 4.51941C21.7083 3.94943 21.7523 3.31368 21.5323 2.80946C21.4003 2.50255 21.2023 2.23948 20.9823 2.02025C20.7182 1.75719 20.4322 1.53796 20.0802 1.40643C19.7281 1.25297 19.3761 1.1872 19.0021 1.1872H18.9801V1.20912Z" fill="#F15D2A"/>
<path d="M3.82062 15.7659C2.32448 15.7659 0.960361 14.867 0.388309 13.4859C0.278299 13.2448 0.212293 13.0036 0.168289 12.7625C-0.139738 11.2279 0.806347 9.6495 2.39049 9.10144C2.4565 9.10144 2.5005 9.0576 2.56651 9.03567C2.91854 8.88222 3.20456 8.68491 3.46859 8.42185C4.01864 7.87379 4.30466 7.1065 4.28266 6.31729C4.28266 5.98846 4.19465 5.65962 4.06264 5.35271C4.01864 5.24309 3.97463 5.1554 3.90863 5.04579C3.44658 4.23466 3.35858 3.27007 3.73261 2.48087C3.90863 2.08626 4.15065 1.7355 4.45868 1.42859C4.78871 1.07783 5.20674 0.79284 5.66879 0.617461C6.13083 0.420159 6.61487 0.332469 7.09891 0.310547C8.13301 0.310547 9.1231 0.727073 9.84916 1.47244C10.1572 1.80127 10.3992 2.17395 10.5752 2.59048C10.7512 3.00701 10.8393 3.44545 10.8613 3.8839C10.8613 4.23466 10.8613 4.58542 10.7512 4.93618C10.5312 5.87884 9.76115 6.62421 8.74906 6.9092C8.63905 6.95304 8.50704 6.97497 8.39703 7.04073C8.045 7.19419 7.75897 7.39149 7.49495 7.65456C6.9449 8.20262 6.65887 8.96991 6.68088 9.75911C6.68088 10.0879 6.76888 10.4168 6.9009 10.7456C6.9449 10.8552 6.9889 10.9429 7.05491 11.0525C7.51695 11.8637 7.60496 12.8283 7.23093 13.6175C7.05491 14.0121 6.81289 14.3628 6.50486 14.6697C6.17483 15.0205 5.75679 15.3055 5.29475 15.4809C4.83271 15.6782 4.34867 15.7659 3.86462 15.7878H3.84262L3.82062 15.7659ZM1.22438 13.1132C1.66442 14.1655 2.69852 14.8232 3.84262 14.8232C4.21665 14.8232 4.56869 14.7355 4.92072 14.604C5.27275 14.4505 5.55877 14.2532 5.8228 13.9901C6.04282 13.749 6.24084 13.4859 6.37285 13.179C6.61487 12.6748 6.54886 12.039 6.21883 11.4691C6.15283 11.3375 6.06482 11.206 6.02082 11.0525C5.8448 10.636 5.75679 10.1976 5.73479 9.75911C5.69079 8.72876 6.08682 7.69841 6.81289 6.97497C7.14292 6.62421 7.56096 6.33921 8.023 6.16384C8.17701 6.09807 8.33103 6.05422 8.48504 6.01038C9.1671 5.81308 9.69515 5.33078 9.82716 4.71696C9.89317 4.45389 9.91517 4.19082 9.91517 3.92775C9.91517 3.59891 9.82716 3.27007 9.69515 2.96316C9.56314 2.65625 9.38712 2.37125 9.1451 2.13011C8.61705 1.56013 7.84698 1.23129 7.07691 1.25321C6.70288 1.25321 6.35085 1.3409 5.99882 1.47244C5.64678 1.62589 5.36076 1.82319 5.09673 2.08626C4.87671 2.32741 4.6787 2.59048 4.54668 2.89739C4.30466 3.40161 4.37067 4.03736 4.7007 4.60734C4.7667 4.73888 4.85471 4.87041 4.89872 5.02387C5.07473 5.44039 5.16274 5.87884 5.18474 6.31729C5.22875 7.34765 4.83271 8.378 4.10664 9.10144C3.77661 9.4522 3.35858 9.73719 2.89654 9.91257C2.83053 9.95642 2.74252 9.97834 2.65451 10.0003C1.51041 10.3949 0.828349 11.5129 1.04837 12.5871C1.09237 12.7844 1.13638 12.9598 1.22438 13.1352" fill="#F15D2A"/>
<path d="M16.2958 9.14486C16.2958 9.53946 16.2298 9.93407 16.0978 10.2848C15.7898 11.1398 15.1077 11.8194 14.2936 12.1702C13.8976 12.3236 13.4796 12.4113 13.0395 12.4113C12.5995 12.4113 12.1814 12.3236 11.7854 12.1702C10.9493 11.8194 10.2893 11.1398 9.95925 10.2848C9.82724 9.93407 9.76123 9.53946 9.76123 9.14486C9.76123 8.75026 9.82724 8.35565 9.95925 8.00489C10.2673 7.14992 10.9493 6.47032 11.7854 6.11956C12.1594 5.96611 12.5995 5.87842 13.0395 5.87842C13.4796 5.87842 13.8976 5.96611 14.2936 6.11956C15.1297 6.47032 15.7898 7.14992 16.0978 8.00489C16.2298 8.35565 16.2958 8.75026 16.2958 9.14486Z" fill="#006B84"/>
<path d="M37.7038 1.42854L34.3815 10.5702L31.0372 1.42854C30.7951 0.748945 30.1351 0.288574 29.409 0.288574C28.683 0.288574 27.6929 1.05586 27.6929 1.99852V14.5162C27.6929 15.1739 28.2209 15.7 28.881 15.7C29.541 15.7 30.0691 15.1739 30.0691 14.5162V5.11151L32.9953 12.8282C33.2154 13.3982 33.7654 13.7709 34.3815 13.7709C34.9975 13.7709 35.5476 13.3982 35.7676 12.8063L38.6939 4.89228V14.4943C38.6939 15.152 39.2219 15.6781 39.882 15.6781C40.542 15.6781 41.0701 15.152 41.0701 14.4943V1.99852C41.0701 1.05586 40.3 0.288574 39.3319 0.288574C38.3638 0.288574 37.9678 0.748945 37.7038 1.42854Z" fill="#006B84"/>
<path d="M53.8533 15.7C53.3033 15.7 52.8412 15.3493 52.6652 14.8451L51.9391 12.7624L51.0811 10.329L48.9469 4.19077L46.8127 10.329L45.9766 12.7624L45.2505 14.8451C45.0745 15.3493 44.5905 15.7 44.0624 15.7C43.1823 15.7 42.5663 14.8231 42.8743 13.9901L47.7148 1.14355C47.9128 0.617411 48.4188 0.288574 48.9689 0.288574C49.5189 0.288574 50.025 0.639333 50.223 1.14355L55.0634 13.9901C55.3714 14.8231 54.7554 15.7 53.8753 15.7" fill="#006B84"/>
<path d="M59.9257 13.2667L66.2183 2.94119C66.3943 2.67812 66.4823 2.34928 66.4823 2.04237C66.4823 1.07778 65.6902 0.288574 64.7221 0.288574H58.2756C57.5935 0.288574 57.0654 0.836635 57.0654 1.49431C57.0654 2.15198 57.6155 2.70004 58.2756 2.70004H63.446L57.1315 13.0255C56.9554 13.2886 56.8674 13.6174 56.8674 13.9243C56.8674 14.8889 57.6595 15.6781 58.6276 15.6781H65.4922C66.1743 15.6781 66.7023 15.1301 66.7023 14.4724C66.7023 13.8147 66.1523 13.2667 65.4922 13.2667H59.9477H59.9257Z" fill="#006B84"/>
<path d="M79.4856 15.7C78.9356 15.7 78.4735 15.3493 78.2975 14.8451L77.5715 12.7624L76.7354 10.329L74.6012 4.19077L72.467 10.329L71.6089 12.7624L70.8829 14.8451C70.7068 15.3493 70.2228 15.7 69.6947 15.7C68.8147 15.7 68.1986 14.8231 68.5066 13.9901L73.3471 1.14355C73.5451 0.617411 74.0511 0.288574 74.6012 0.288574C75.1512 0.288574 75.6573 0.639333 75.8553 1.14355L80.6957 13.9901C81.0038 14.8231 80.3877 15.7 79.5076 15.7" fill="#006B84"/>
<path d="M89.6284 0.990092L86.7901 7.08453L83.9519 0.990092C83.7539 0.573566 83.3138 0.288574 82.8518 0.288574C81.9497 0.288574 81.3557 1.23124 81.7737 2.04237L85.536 9.60561V14.4505C85.536 15.152 86.1081 15.722 86.8122 15.722C87.5162 15.722 88.0883 15.152 88.0883 14.4505V9.60561L91.8506 2.04237C92.2466 1.23124 91.6746 0.288574 90.7725 0.288574C89.8704 0.288574 89.8704 0.551644 89.6724 0.990092" fill="#006B84"/>
<path d="M103.886 15.7C103.336 15.7 102.874 15.3493 102.698 14.8451L101.972 12.7624L101.136 10.329L99.0013 4.19077L96.8671 10.329L96.0091 12.7624L95.283 14.8451C95.107 15.3493 94.6229 15.7 94.0949 15.7C93.2148 15.7 92.5988 14.8231 92.9068 13.9901L97.7472 1.14355C97.9452 0.617411 98.4513 0.288574 99.0013 0.288574C99.5514 0.288574 100.057 0.639333 100.255 1.14355L105.096 13.9901C105.404 14.8231 104.788 15.7 103.908 15.7" fill="#006B84"/>
<path d="M1.4664 27.9104C1.4664 28.1297 1.35639 28.2393 1.15837 28.2393C0.960352 28.2393 0.850342 28.1297 0.850342 27.9104C0.850342 27.6912 0.960352 27.6035 1.15837 27.6035C1.35639 27.6035 1.4664 27.7131 1.4664 27.9104Z" fill="#006B84"/>
<path d="M2.23666 27.9104C2.23666 28.1297 2.12665 28.2393 1.92863 28.2393C1.73062 28.2393 1.62061 28.1297 1.62061 27.9104C1.62061 27.6912 1.73062 27.6035 1.92863 27.6035C2.12665 27.6035 2.23666 27.7131 2.23666 27.9104Z" fill="#006B84"/>
<path d="M4.2828 32.9309C4.2828 33.1282 4.17279 33.2379 3.97478 33.2379C3.77676 33.2379 3.66675 33.1282 3.66675 32.9309C3.66675 32.7336 3.77676 32.624 3.97478 32.624C4.17279 32.624 4.2828 32.7336 4.2828 32.9309Z" fill="#006B84"/>
<path d="M5.05282 32.9309C5.05282 33.1282 4.94281 33.2379 4.7448 33.2379C4.54678 33.2379 4.43677 33.1282 4.43677 32.9309C4.43677 32.7336 4.54678 32.624 4.7448 32.624C4.94281 32.624 5.05282 32.7336 5.05282 32.9309Z" fill="#006B84"/>
<path d="M6.79086 32.9309C6.79086 33.1502 6.68085 33.2598 6.48283 33.2598C6.28481 33.2598 6.1748 33.1502 6.1748 32.9309C6.1748 32.7117 6.28481 32.624 6.48283 32.624C6.68085 32.624 6.79086 32.7336 6.79086 32.9309Z" fill="#006B84"/>
<path d="M6.92297 29.2479C6.83496 29.2041 6.74695 29.2041 6.65894 29.2479C6.57094 29.2917 6.52693 29.3794 6.52693 29.489V30.8044C6.52693 31.2867 6.28491 31.5278 5.82287 31.5278H5.49284C5.0308 31.5278 4.78878 31.2867 4.78878 30.8044V29.489C4.78878 29.4014 4.74477 29.3137 4.65676 29.2698C4.56876 29.226 4.48075 29.226 4.39274 29.2698C4.30473 29.3137 4.26073 29.4014 4.26073 29.511V30.8263C4.26073 31.3086 4.04071 31.5498 3.55666 31.5498H3.22663C2.76459 31.5498 2.52257 31.3086 2.52257 30.8263V29.1164C2.52257 29.0287 2.47857 28.941 2.39056 28.8971C2.30255 28.8533 2.21454 28.8533 2.12654 28.8971C2.03853 28.941 1.99452 29.0287 1.99452 29.1383V29.2917C1.79651 29.1602 1.57649 29.0725 1.29046 29.0725C1.00443 29.0725 0.674405 29.1821 0.454385 29.4233C0.190362 29.6863 0.0583496 30.0371 0.0583496 30.4756C0.0583496 30.914 0.16836 31.1771 0.344375 31.4182C0.586397 31.7251 0.894425 31.8786 1.29046 31.8786C1.6865 31.8786 1.90652 31.769 2.14854 31.5278C2.34656 31.8786 2.67659 32.0759 3.16063 32.0759H3.60067C3.9967 32.0759 4.30473 31.9444 4.52475 31.6813C4.74477 31.9444 5.0308 32.0759 5.42683 32.0759H5.86687C6.2189 32.0759 6.48293 31.9663 6.70295 31.769C6.92297 31.5498 7.05498 31.2428 7.05498 30.8702V29.5329C7.05498 29.4452 7.01098 29.3575 6.92297 29.3137V29.2479ZM1.33446 31.3305C1.11444 31.3305 0.938429 31.2428 0.806417 31.0894C0.674405 30.914 0.608399 30.6948 0.608399 30.4098C0.608399 30.1248 0.674405 29.9056 0.806417 29.7302C0.938429 29.5548 1.11444 29.4671 1.33446 29.4671C1.55448 29.4671 1.81851 29.5767 2.01653 29.796V30.7825C2.01653 30.8263 2.01653 30.8921 2.01653 30.9578C1.84051 31.199 1.59849 31.3086 1.33446 31.3086V31.3305Z" fill="#006B84"/>
<path d="M16.9118 29.2476C16.8238 29.2038 16.7358 29.2038 16.6478 29.2476C16.5597 29.2914 16.5157 29.3791 16.5157 29.4887V30.8041C16.5157 31.2864 16.2737 31.5275 15.8117 31.5275H15.5697C15.0856 31.5275 14.8656 31.2864 14.8656 30.8041V29.7299C14.8656 29.6422 14.8216 29.5545 14.7336 29.5107C14.6456 29.4668 14.5576 29.4668 14.4696 29.5107C14.3816 29.5545 14.3375 29.6422 14.3375 29.7518V30.826C14.3375 31.3083 14.1175 31.5495 13.6335 31.5495H13.3915C12.9294 31.5495 12.6874 31.3083 12.6874 30.826V29.993C12.6874 29.9053 12.6434 29.8176 12.5554 29.7737C12.4674 29.7299 12.3794 29.7299 12.2914 29.7737C12.2034 29.8176 12.1594 29.9053 12.1594 30.0149V30.8479C12.1594 31.3302 11.9173 31.5714 11.4553 31.5714H10.5092V30.2341C10.5092 29.8833 10.4212 29.6203 10.2232 29.4011C10.0032 29.1599 9.69513 29.0503 9.29909 29.0503C8.90306 29.0503 8.59503 29.1818 8.37501 29.423C8.11099 29.686 8.00098 30.0806 8.00098 30.5629C8.00098 31.0452 8.11099 31.3083 8.309 31.5714C8.55103 31.8783 8.94706 32.0317 9.45311 32.0537H9.98115C9.98115 32.1852 9.93715 32.3167 9.84914 32.4483C9.76114 32.5798 9.65113 32.6894 9.51911 32.7552C9.3871 32.821 9.23309 32.8648 9.05707 32.8648C8.88106 32.8648 8.77105 32.8429 8.61703 32.7771C8.55103 32.7552 8.48502 32.7771 8.41901 32.799C8.35301 32.8429 8.33101 32.9086 8.33101 32.9744C8.33101 33.0402 8.37501 33.1498 8.46302 33.1717C8.68304 33.2594 8.90306 33.3032 9.12308 33.3032C9.3431 33.3032 9.3651 33.3032 9.47511 33.2594C9.78314 33.1936 10.0252 33.0183 10.2232 32.799C10.3992 32.5798 10.5092 32.3167 10.5092 32.0317H11.5213C11.9173 32.0317 12.2254 31.9002 12.4234 31.6152C12.6214 31.8783 12.9294 32.0317 13.3255 32.0317H13.6995C14.0955 32.0317 14.4036 31.9002 14.6016 31.6152C14.7996 31.8783 15.1076 32.0317 15.5037 32.0317H15.8777C16.2297 32.0317 16.4937 31.9221 16.6918 31.7248C16.9118 31.5056 17.0438 31.1987 17.0438 30.826V29.4887C17.0438 29.4011 16.9998 29.3134 16.9118 29.2695V29.2476ZM9.98115 31.5056C9.82714 31.5056 9.65112 31.5056 9.45311 31.5056C8.81505 31.4837 8.50702 31.1548 8.50702 30.4972C8.50702 29.8395 8.57303 29.9272 8.72704 29.7518C8.85905 29.5764 9.05707 29.4887 9.3211 29.4887C9.78314 29.4887 10.0032 29.7299 10.0032 30.2341V31.5275L9.98115 31.5056Z" fill="#006B84"/>
<path d="M25.2947 28.0201V30.7604C25.2947 31.155 25.1846 31.4619 24.9426 31.6811C24.7226 31.9003 24.4366 31.988 24.0845 31.988H23.7325C23.3585 31.988 23.0505 31.9442 22.8304 31.8565C22.6104 31.7688 22.4124 31.6154 22.2144 31.418C21.6423 31.7907 20.9823 31.988 20.2342 31.988H19.3321C18.9361 31.988 18.6281 31.8565 18.43 31.6154C18.254 31.3961 18.166 31.1331 18.166 30.8042V28.0201C18.166 27.9105 18.232 27.8228 18.298 27.7789C18.386 27.7351 18.474 27.7351 18.5621 27.7789C18.6501 27.8228 18.6941 27.9105 18.6941 27.9981V30.7604C18.6941 31.2427 18.9361 31.4838 19.3981 31.4838H20.2562C21.2023 31.4838 21.9504 31.155 22.5004 30.5192C22.1264 29.7958 21.6423 29.4231 21.0923 29.4231C20.5422 29.4231 20.5202 29.5327 20.2562 29.7519C20.1902 29.7958 20.1242 29.8177 20.0362 29.7739C19.9702 29.73 19.9262 29.6643 19.9262 29.5985C19.9262 29.5327 19.9262 29.4889 19.9922 29.445C20.3442 29.1162 20.7182 28.9408 21.1143 28.9408C21.8183 28.9408 22.4124 29.4012 22.9184 30.2781C22.9624 30.3439 22.9845 30.4315 22.9845 30.5192C22.9845 30.6069 22.9404 30.7385 22.8744 30.8261C22.7644 30.9358 22.6544 31.0454 22.5664 31.1331C22.6984 31.2427 22.8524 31.3304 23.0065 31.3961C23.1825 31.44 23.4245 31.4838 23.7325 31.4838H24.0185C24.5026 31.4838 24.7446 31.2427 24.7446 30.7385V27.9981C24.7446 27.8885 24.8106 27.8008 24.8766 27.757C24.9646 27.7132 25.0526 27.7132 25.1406 27.757C25.2287 27.8008 25.2727 27.8885 25.2727 27.9762L25.2947 28.0201Z" fill="#006B84"/>
<path d="M26.9448 28.0201V31.7469C26.9448 31.9004 26.8348 32.01 26.6808 32.01C26.5268 32.01 26.4167 31.9004 26.4167 31.7469V28.0201C26.4167 27.9105 26.4608 27.8228 26.5488 27.779C26.6368 27.7351 26.7248 27.7351 26.8128 27.779C26.9008 27.8228 26.9448 27.9105 26.9448 27.9982V28.0201Z" fill="#006B84"/>
<path d="M30.6632 27.9104C30.6632 28.1297 30.5532 28.2393 30.3551 28.2393C30.1571 28.2393 30.0471 28.1297 30.0471 27.9104C30.0471 27.6912 30.1571 27.6035 30.3551 27.6035C30.5532 27.6035 30.6632 27.7131 30.6632 27.9104Z" fill="#006B84"/>
<path d="M31.4332 27.9104C31.4332 28.1297 31.3232 28.2393 31.1252 28.2393C30.9272 28.2393 30.8171 28.1297 30.8171 27.9104C30.8171 27.6912 30.9272 27.6035 31.1252 27.6035C31.3232 27.6035 31.4332 27.7131 31.4332 27.9104Z" fill="#006B84"/>
<path d="M37.8579 29.4452C37.6159 29.1383 37.2858 28.9848 36.8678 28.9848C36.4497 28.9848 36.2737 29.0725 36.0537 29.2698C35.8117 29.489 35.7017 29.7959 35.7017 30.1905V30.8044C35.7017 31.2867 35.4597 31.5278 34.9976 31.5278H34.6676C34.2055 31.5278 33.9635 31.2867 33.9635 30.8044V28.0421C33.9635 27.9545 33.9195 27.8668 33.8315 27.8229C33.7435 27.7791 33.6555 27.7791 33.5675 27.8229C33.4795 27.8668 33.4355 27.9545 33.4355 28.0641V30.8044C33.4355 31.3086 33.1935 31.5497 32.7094 31.5497H32.4234C31.9393 31.5497 31.7193 31.3086 31.7193 30.8263V29.1163C31.7193 29.0287 31.6753 28.941 31.5873 28.8971C31.4993 28.8533 31.4113 28.8533 31.3233 28.8971C31.2353 28.941 31.1913 29.0287 31.1913 29.1383V29.2917C30.9933 29.1602 30.7732 29.0725 30.4872 29.0725C30.2012 29.0725 29.8712 29.1821 29.6511 29.4233C29.4091 29.6863 29.2771 30.0371 29.2771 30.4755C29.2771 30.914 29.3651 31.1771 29.5631 31.4182C29.8051 31.7251 30.1132 31.8786 30.5092 31.8786C30.9052 31.8786 31.1253 31.769 31.3673 31.5278C31.5653 31.8786 31.9173 32.0759 32.3794 32.0759H32.7754C33.1715 32.0759 33.4795 31.9443 33.6995 31.6813C33.9195 31.9443 34.2275 32.0759 34.6236 32.0759H35.0636C35.4597 32.0759 35.7677 31.9443 35.9657 31.7032C36.1857 31.9443 36.4937 32.0759 36.9118 32.0759C37.3298 32.0759 37.5498 31.9443 37.7699 31.7032C38.0119 31.4401 38.1439 31.0455 38.1439 30.5632C38.1439 30.0809 38.0339 29.774 37.8359 29.5109L37.8579 29.4452ZM30.5312 31.3305C30.3112 31.3305 30.1352 31.2428 30.0032 31.0894C29.8712 30.914 29.8051 30.6948 29.8051 30.4098C29.8051 30.1248 29.8712 29.9056 30.0032 29.7302C30.1352 29.5548 30.3112 29.4671 30.5312 29.4671C30.7512 29.4671 31.0153 29.5767 31.2133 29.7959V30.7825C31.2133 30.8263 31.2133 30.8921 31.2133 30.9578C31.0373 31.199 30.7952 31.3086 30.5312 31.3086V31.3305ZM36.9338 31.5059C36.4717 31.5059 36.2517 31.2867 36.2517 30.8044V30.2125C36.2517 29.7083 36.4497 29.4671 36.8898 29.4671C37.3298 29.4671 37.3078 29.5548 37.4618 29.7302C37.5938 29.9056 37.6599 30.1686 37.6599 30.4755C37.6599 30.7824 37.5938 31.0674 37.4618 31.2428C37.3298 31.4182 37.1538 31.5059 36.9338 31.5059Z" fill="#006B84"/>
<path d="M45.0965 27.9544C45.0965 28.1517 44.9865 28.2613 44.7885 28.2613C44.5905 28.2613 44.4805 28.1517 44.4805 27.9544C44.4805 27.7571 44.5905 27.6475 44.7885 27.6475C44.9865 27.6475 45.0965 27.7571 45.0965 27.9544Z" fill="#006B84"/>
<path d="M45.8665 27.9544C45.8665 28.1517 45.7565 28.2613 45.5585 28.2613C45.3605 28.2613 45.2505 28.1517 45.2505 27.9544C45.2505 27.7571 45.3605 27.6475 45.5585 27.6475C45.7565 27.6475 45.8665 27.7571 45.8665 27.9544Z" fill="#006B84"/>
<path d="M52.0271 27.8009C51.9391 27.7571 51.8511 27.7571 51.7631 27.8009C51.6751 27.8448 51.6311 27.9325 51.6311 28.0421V30.7824C51.6311 31.2866 51.389 31.5277 50.905 31.5277H50.619C50.1349 31.5277 49.9149 31.2866 49.9149 30.8043V30.5631C49.9149 30.1028 49.8049 29.752 49.6069 29.467C49.3869 29.1382 49.0568 28.9847 48.6168 28.9847C48.1768 28.9847 47.9347 29.1163 47.7147 29.3574C47.4507 29.6424 47.3407 30.037 47.3407 30.5631V30.8043C47.3407 31.2866 47.0987 31.5277 46.6366 31.5277H46.3066C45.8446 31.5277 45.6025 31.2866 45.6025 30.8043V29.4889C45.6025 29.4013 45.5585 29.3136 45.4705 29.2697C45.3825 29.2259 45.2945 29.2259 45.2065 29.2697C45.1185 29.3136 45.0745 29.4013 45.0745 29.5109V30.8262C45.0745 31.3085 44.8325 31.5497 44.3704 31.5497H44.1064C43.6444 31.5497 43.4023 31.3085 43.4023 30.8262V30.7385C43.4023 30.2343 43.2043 29.8178 42.8303 29.5328C42.5443 29.3136 42.1702 29.204 41.7302 29.204C41.2901 29.204 41.7082 29.204 41.6862 29.204L42.7423 27.9982C42.8083 27.9325 42.8083 27.8448 42.7863 27.779C42.7423 27.6913 42.6763 27.6475 42.5883 27.6475C42.5002 27.6475 42.4782 27.6694 42.4342 27.7132L41.0261 29.2697C40.9821 29.3355 40.9381 29.4013 40.9381 29.467C40.9381 29.5328 40.9821 29.6424 41.0481 29.7082C41.1141 29.7739 41.2021 29.7959 41.2901 29.7739C41.4222 29.752 41.5542 29.7301 41.6862 29.7301C41.9942 29.7301 42.2582 29.7959 42.4782 29.9493C42.7423 30.1247 42.8743 30.3878 42.8743 30.7385V30.8043C42.8743 31.3085 42.6543 31.5497 42.1702 31.5497H40.4321C39.97 31.5497 39.728 31.3085 39.728 30.8262V28.064C39.728 27.9763 39.684 27.8886 39.596 27.8448C39.508 27.8009 39.42 27.8009 39.332 27.8448C39.244 27.8886 39.2 27.9763 39.2 28.0859V30.8701C39.2 31.1989 39.288 31.4839 39.464 31.6812C39.684 31.9223 39.992 32.0539 40.3661 32.0539H42.2142C42.6103 32.0539 42.9183 31.9223 43.1383 31.6812C43.3363 31.9223 43.6444 32.0539 44.0404 32.0539H44.4144C44.8105 32.0539 45.1185 31.9223 45.3165 31.6593C45.5365 31.9223 45.8225 32.0539 46.2186 32.0539H46.6586C47.0547 32.0539 47.3627 31.9223 47.5827 31.6593C47.8027 32.01 48.1548 32.1854 48.6168 32.1854C49.0788 32.1854 49.4089 32.01 49.6509 31.6593C49.8489 31.9223 50.1569 32.0539 50.553 32.0539H50.949C51.301 32.0539 51.5871 31.9443 51.8071 31.747C52.0491 31.5277 52.1591 31.2208 52.1591 30.8262V28.0859C52.1591 27.9982 52.1151 27.9105 52.0271 27.8667V27.8009ZM49.1669 31.3523C49.0348 31.5497 48.8588 31.6373 48.6168 31.6373C48.0888 31.6373 47.8467 31.2866 47.8467 30.5412C47.8467 29.7959 48.0888 29.4451 48.6168 29.4451C49.1448 29.4451 49.3869 29.7959 49.3869 30.5412C49.3869 31.2866 49.3209 31.155 49.1669 31.3523Z" fill="#006B84"/>
<path d="M53.8093 28.0201V31.7469C53.8093 31.9004 53.6993 32.01 53.5453 32.01C53.3913 32.01 53.2812 31.9004 53.2812 31.7469V28.0201C53.2812 27.9105 53.3473 27.8228 53.4133 27.779C53.5013 27.7351 53.5893 27.7351 53.6773 27.779C53.7653 27.8228 53.8093 27.9105 53.8093 27.9982V28.0201Z" fill="#006B84"/>
<path d="M59.9478 28.0202V31.6155C59.9478 32.1416 59.7718 32.5582 59.3978 32.8651C59.0678 33.1282 58.6497 33.2816 58.1657 33.2816C57.6816 33.2816 57.1096 33.0843 56.7796 32.6678C56.5375 32.3609 56.4055 31.9663 56.4055 31.5497C56.4055 31.1332 56.4935 30.8701 56.6695 30.6071C56.6915 30.5632 56.7575 30.5413 56.8016 30.5194C56.8896 30.5194 56.9556 30.5194 57.0216 30.5851C57.0656 30.6509 57.0876 30.7386 57.0436 30.8044C56.9336 31.0236 56.8896 31.2647 56.8896 31.5278C56.8896 31.9005 56.9996 32.2293 57.2636 32.4705C57.5056 32.6897 57.7916 32.8212 58.1657 32.8212C58.5397 32.8212 58.9137 32.6897 59.1338 32.4486C59.3318 32.2293 59.4198 31.9663 59.4198 31.6374V28.0421C59.4198 27.9545 59.4638 27.8668 59.5518 27.8229C59.6398 27.7791 59.7278 27.7791 59.8158 27.8229C59.9038 27.8668 59.9478 27.9545 59.9478 28.0421V28.0202Z" fill="#006B84"/>
<path d="M74.073 27.801C73.985 27.7571 73.897 27.7571 73.809 27.801C73.721 27.8448 73.677 27.9325 73.677 28.0421V30.7824C73.677 31.2866 73.435 31.5278 72.9509 31.5278H72.6649C72.2028 31.5278 71.9608 31.2866 71.9608 30.8043V28.0421C71.9608 27.9544 71.9168 27.8667 71.8288 27.8229C71.7408 27.779 71.6528 27.779 71.5648 27.8229C71.4768 27.8667 71.4328 27.9544 71.4328 28.064V30.8043C71.4328 31.3085 71.1908 31.5497 70.7067 31.5497H70.4207C70.1127 31.5497 69.8486 31.5278 69.6946 31.462C69.5406 31.4181 69.3866 31.3305 69.2546 31.1989C69.3646 31.1112 69.4746 31.0016 69.5626 30.892C69.6286 30.8043 69.6726 30.6947 69.6726 30.5851C69.6726 30.4755 69.6726 30.4097 69.6066 30.344C69.1006 29.4671 68.4845 29.0067 67.8025 29.0067C67.4064 29.0067 67.0324 29.1821 66.6804 29.5109C66.6364 29.5547 66.6143 29.5986 66.6143 29.6644C66.6143 29.752 66.6583 29.8178 66.7244 29.8397C66.7904 29.8617 66.8784 29.8397 66.9444 29.8178C67.2304 29.5986 67.4944 29.489 67.7805 29.489C68.3305 29.489 68.7925 29.8617 69.1886 30.5851C68.6605 31.2208 67.8905 31.5497 66.9444 31.5497H66.0863C65.6243 31.5497 65.3822 31.3085 65.3822 30.8262V28.064C65.3822 27.9763 65.3382 27.8886 65.2502 27.8448C65.1622 27.8009 65.0742 27.8009 64.9862 27.8448C64.8982 27.8886 64.8542 27.9763 64.8542 28.0859V30.8262C64.8542 31.3305 64.6122 31.5716 64.1281 31.5716H63.4021V30.2343C63.4021 29.8836 63.314 29.6205 63.116 29.4013C62.896 29.1601 62.588 29.0505 62.1919 29.0505C61.7959 29.0505 61.4879 29.1821 61.2679 29.4232C61.0038 29.6863 60.8718 30.0809 60.8718 30.5632C60.8718 31.0455 60.9818 31.3085 61.1799 31.5716C61.4219 31.8785 61.8179 32.032 62.324 32.0539H62.852C62.852 32.1854 62.808 32.317 62.72 32.4485C62.632 32.58 62.522 32.6897 62.39 32.7554C62.258 32.8212 62.1039 32.865 61.9279 32.865C61.7519 32.865 61.6419 32.8431 61.4879 32.7773C61.4219 32.7554 61.3559 32.7773 61.2899 32.7993C61.2239 32.8431 61.2019 32.9089 61.2019 32.9746C61.2019 33.0404 61.2459 33.15 61.3339 33.1719C61.5539 33.2596 61.7739 33.3035 61.9939 33.3035C62.2139 33.3035 62.236 33.3035 62.346 33.2596C62.654 33.1939 62.896 33.0185 63.094 32.7993C63.27 32.58 63.3801 32.317 63.3801 32.032H64.1501C64.5462 32.032 64.8762 31.9004 65.0962 31.6374C65.2942 31.9004 65.6023 32.032 66.0203 32.032H66.9224C67.6704 32.032 68.3305 31.8347 68.9025 31.462C69.1006 31.6593 69.2986 31.8128 69.5186 31.9004C69.7386 31.9881 70.0467 32.032 70.4207 32.032H70.7727C71.1688 32.032 71.4768 31.9004 71.7188 31.6374C71.9168 31.9004 72.2248 32.032 72.6429 32.032H73.0389C73.391 32.032 73.677 31.9224 73.897 31.7251C74.139 31.5058 74.249 31.1989 74.249 30.8043V28.064C74.249 27.9763 74.205 27.8886 74.117 27.8448L74.073 27.801ZM62.874 31.5058C62.72 31.5058 62.544 31.5058 62.346 31.5058C61.7079 31.4839 61.3999 31.1551 61.3999 30.4974C61.3999 29.8397 61.4659 29.9274 61.6199 29.752C61.7519 29.5767 61.9499 29.489 62.2139 29.489C62.676 29.489 62.896 29.7301 62.896 30.2343V31.5278L62.874 31.5058Z" fill="#006B84"/>
<path d="M79.5736 32.9309C79.5736 33.1502 79.4636 33.2598 79.2655 33.2598C79.0675 33.2598 78.9575 33.1502 78.9575 32.9309C78.9575 32.7117 79.0675 32.624 79.2655 32.624C79.4636 32.624 79.5736 32.7336 79.5736 32.9309Z" fill="#006B84"/>
<path d="M78.8036 32.9309C78.8036 33.1502 78.6935 33.2598 78.4955 33.2598C78.2975 33.2598 78.1875 33.1502 78.1875 32.9309C78.1875 32.7117 78.2975 32.624 78.4955 32.624C78.6935 32.624 78.8036 32.7336 78.8036 32.9309Z" fill="#006B84"/>
<path d="M79.7276 29.4671V30.8043C79.7276 31.1989 79.6176 31.5058 79.3756 31.7031C79.1556 31.9004 78.8915 32.0101 78.5395 32.0101H78.0995C77.7034 32.0101 77.3954 31.8785 77.1974 31.6374C77.0214 31.4182 76.9333 31.1551 76.9333 30.8262V28.0421C76.9333 27.9325 76.9774 27.8448 77.0654 27.801C77.1534 27.7571 77.2414 27.7571 77.3294 27.801C77.4174 27.8448 77.4614 27.9325 77.4614 28.0202V30.7824C77.4614 31.2647 77.7034 31.5058 78.1655 31.5058H78.4955C78.9575 31.5058 79.1996 31.2647 79.1996 30.7824V29.4671C79.1996 29.3794 79.2436 29.2917 79.3316 29.2259C79.4196 29.1821 79.5076 29.1821 79.5956 29.2259C79.6836 29.2698 79.7276 29.3574 79.7276 29.4451V29.4671Z" fill="#006B84"/>
<path d="M81.3996 28.0201V31.7469C81.3996 31.9004 81.2896 32.01 81.1356 32.01C80.9816 32.01 80.8716 31.9004 80.8716 31.7469V28.0201C80.8716 27.9324 80.9156 27.8228 81.0036 27.779C81.0916 27.7351 81.1796 27.7351 81.2676 27.779C81.3556 27.8228 81.3996 27.9105 81.3996 27.9982V28.0201Z" fill="#006B84"/>
<path d="M83.9078 27.9324C83.9078 28.1516 83.7978 28.2612 83.5998 28.2612C83.4018 28.2612 83.2917 28.1516 83.2917 27.9324C83.2917 27.7132 83.4018 27.6255 83.5998 27.6255C83.7978 27.6255 83.9078 27.7351 83.9078 27.9324Z" fill="#006B84"/>
<path d="M87.8023 29.4452C87.5823 29.1383 87.2303 28.9849 86.8122 28.9849C86.3942 28.9849 86.2182 29.0726 85.9981 29.2699C85.7561 29.4891 85.6461 29.796 85.6461 30.1906V30.8044C85.6461 31.2867 85.4261 31.5279 84.9421 31.5279H84.612C84.15 31.5279 83.908 31.2867 83.908 30.8044V29.5768C83.908 29.511 83.886 29.4452 83.82 29.4014C83.7539 29.3575 83.7099 29.3356 83.6439 29.3356C83.5119 29.3356 83.3799 29.4452 83.3799 29.5987V31.7032C83.3799 32.2075 83.2259 32.5363 82.9179 32.7336C82.7859 32.8213 82.6318 32.8432 82.4558 32.8432C82.2798 32.8432 82.1478 32.8213 81.9938 32.7555C81.9278 32.7555 81.8618 32.7555 81.7958 32.7774C81.7298 32.8213 81.7078 32.8871 81.7078 32.9528C81.7078 33.0186 81.7518 33.1282 81.8398 33.1501C82.0598 33.2378 82.2798 33.2817 82.4998 33.2817C82.7199 33.2817 82.8299 33.2597 82.9619 33.2159C83.5119 33.0186 83.842 32.5582 83.886 31.8348C84.062 31.9444 84.282 32.0102 84.546 32.0102H84.9861C85.3821 32.0102 85.6901 31.8786 85.8881 31.6375C86.1082 31.8786 86.4162 32.0102 86.8342 32.0102C87.2523 32.0102 87.4723 31.8786 87.6923 31.6375C87.9343 31.3744 88.0663 30.9798 88.0663 30.4975C88.0663 30.0152 87.9563 29.7302 87.7583 29.4452H87.8023ZM87.4063 31.2429C87.2743 31.4183 87.0982 31.5059 86.8782 31.5059C86.4162 31.5059 86.1962 31.2867 86.1962 30.8044V30.2125C86.1962 29.7083 86.3942 29.4672 86.8342 29.4672C87.2743 29.4672 87.2523 29.5548 87.4063 29.7302C87.5383 29.9056 87.6043 30.1687 87.6043 30.4756C87.6043 30.7825 87.5383 31.0675 87.4063 31.2429Z" fill="#006B84"/>
<path d="M91.7406 27.9104C91.7406 28.1297 91.6306 28.2393 91.4325 28.2393C91.2345 28.2393 91.1245 28.1297 91.1245 27.9104C91.1245 27.6912 91.2345 27.6035 91.4325 27.6035C91.6306 27.6035 91.7406 27.7131 91.7406 27.9104Z" fill="#006B84"/>
<path d="M92.4886 27.9104C92.4886 28.1297 92.3786 28.2393 92.1806 28.2393C91.9826 28.2393 91.8726 28.1297 91.8726 27.9104C91.8726 27.6912 91.9826 27.6035 92.1806 27.6035C92.3786 27.6035 92.4886 27.7131 92.4886 27.9104Z" fill="#006B84"/>
<path d="M95.855 29.4669C95.569 29.2696 95.217 29.16 94.799 29.16C94.3809 29.16 94.7769 29.16 94.7549 29.16L95.811 27.9543C95.877 27.8885 95.877 27.8008 95.833 27.735C95.811 27.6474 95.723 27.6035 95.635 27.6035C95.547 27.6035 95.525 27.6254 95.481 27.6693L94.0069 29.3135C94.0069 29.4231 94.0509 29.5327 94.1389 29.6204C94.2269 29.6861 94.3369 29.73 94.4469 29.7081C94.5569 29.7081 94.6449 29.7081 94.7549 29.7081C95.085 29.7081 95.349 29.7958 95.547 29.9492C95.789 30.1246 95.9211 30.3877 95.9211 30.7384V30.8042C95.9211 31.3084 95.701 31.5496 95.217 31.5496H93.4788C93.0168 31.5496 92.7748 31.3084 92.7748 30.8261V29.1162C92.7748 29.0285 92.7308 28.9408 92.6428 28.8969C92.5548 28.8531 92.4667 28.8531 92.3787 28.8969C92.2907 28.9408 92.2467 29.0285 92.2467 29.1381V29.2915C92.0487 29.16 91.8287 29.0723 91.5427 29.0723C91.2566 29.0723 90.9266 29.1819 90.7066 29.4231C90.4426 29.6861 90.3105 30.0369 90.3105 30.4754C90.3105 30.9138 90.4206 31.1769 90.5966 31.418C90.8386 31.7249 91.1466 31.8784 91.5427 31.8784C91.9387 31.8784 92.1587 31.7688 92.4007 31.5276C92.5988 31.8784 92.9288 32.0757 93.4128 32.0757H95.261C95.591 32.0757 95.855 31.988 96.0751 31.7907C96.3171 31.5715 96.4271 31.2646 96.4271 30.8919V30.7603C96.4271 30.2342 96.2291 29.8177 95.811 29.5327L95.855 29.4669ZM91.5867 31.3303C91.3666 31.3303 91.1906 31.2426 91.0586 31.0892C90.9266 30.9138 90.8606 30.6946 90.8606 30.4096C90.8606 30.1246 90.9266 29.9054 91.0586 29.73C91.1906 29.5546 91.3666 29.4669 91.5647 29.4669C91.7627 29.4669 92.0487 29.5765 92.2467 29.7958V30.7823C92.2467 30.8261 92.2467 30.8919 92.2467 30.9576C92.0707 31.1988 91.8287 31.3084 91.5647 31.3084L91.5867 31.3303Z" fill="#006B84"/>
<path d="M105.162 29.4669V30.8042C105.162 31.1769 105.052 31.4838 104.81 31.703C104.612 31.9003 104.326 32.0099 103.996 32.0099H103.622C103.204 32.0099 102.918 31.8784 102.72 31.5934C102.522 31.8564 102.214 32.0099 101.818 32.0099H101.444C101.026 32.0099 100.739 31.8784 100.519 31.5934C100.321 31.8564 100.013 32.0099 99.6174 32.0099H99.0013C98.7373 32.0099 98.5173 31.9441 98.3413 31.8345C98.2973 32.558 97.9892 33.0183 97.4172 33.2156C97.2632 33.2595 97.1092 33.2814 96.9552 33.2814C96.8011 33.2814 96.5151 33.2376 96.2951 33.1499C96.2291 33.1279 96.1631 33.0403 96.1631 32.9526C96.1631 32.8649 96.2071 32.821 96.2511 32.7772C96.3171 32.7333 96.3831 32.7333 96.4491 32.7553C96.6031 32.7991 96.7571 32.843 96.8891 32.843C97.0212 32.843 97.2412 32.7991 97.3732 32.7333C97.6812 32.558 97.8352 32.2072 97.8352 31.703V29.5984C97.8352 29.445 97.9452 29.3354 98.0993 29.3354C98.2533 29.3354 98.3633 29.445 98.3633 29.5984V30.8261C98.3633 31.3084 98.6053 31.5495 99.0673 31.5495H99.5734C100.035 31.5495 100.277 31.3084 100.277 30.8261V29.993C100.277 29.8834 100.343 29.7957 100.409 29.7519C100.497 29.708 100.585 29.708 100.673 29.7519C100.762 29.7957 100.805 29.8834 100.805 29.9711V30.8042C100.805 31.2865 101.048 31.5276 101.51 31.5276H101.752C102.214 31.5276 102.456 31.2865 102.456 30.8042V29.73C102.456 29.6423 102.5 29.5546 102.588 29.4888C102.676 29.445 102.764 29.445 102.852 29.4888C102.94 29.5327 102.984 29.6204 102.984 29.708V30.7822C102.984 31.2645 103.226 31.5057 103.688 31.5057H103.93C104.414 31.5057 104.634 31.2645 104.634 30.7822V29.4669C104.634 29.3792 104.678 29.2915 104.766 29.2258C104.854 29.1819 104.942 29.1819 105.03 29.2258C105.118 29.2696 105.162 29.3573 105.162 29.445V29.4669Z" fill="#006B84"/>
<path d="M103.402 28.1736C103.402 28.3709 103.292 28.4805 103.094 28.4805C102.896 28.4805 102.786 28.3709 102.786 28.1736C102.786 27.9763 102.896 27.8667 103.094 27.8667C103.292 27.8667 103.402 27.9763 103.402 28.1736Z" fill="#006B84"/>
<path d="M102.984 27.494C102.984 27.6913 102.896 27.779 102.698 27.779C102.5 27.779 102.412 27.6694 102.412 27.494C102.412 27.3186 102.5 27.209 102.698 27.209C102.896 27.209 102.984 27.3186 102.984 27.494Z" fill="#006B84"/>
<path d="M102.632 28.1736C102.632 28.3709 102.522 28.4805 102.324 28.4805C102.126 28.4805 102.016 28.3709 102.016 28.1736C102.016 27.9763 102.126 27.8667 102.324 27.8667C102.522 27.8667 102.632 27.9763 102.632 28.1736Z" fill="#006B84"/>
</svg>
