<?xml version="1.0" encoding="UTF-8"?>
<svg id="Layer_1" xmlns="http://www.w3.org/2000/svg" version="1.1" viewBox="0 0 3788 651">
  <!-- Generator: Adobe Illustrator 29.6.0, SVG Export Plug-In . SVG Version: 2.1.1 Build 207)  -->
  <defs>
    <style>
      .st0 {
        fill: #f05d2a;
      }

      .st1 {
        fill: #1d5166;
      }
    </style>
  </defs>
  <path class="st1" d="M1168.79,16.29c214.56-11.67,378.43,211.81,294.67,412.67-62.14,149.03-216.62,213.05-370.47,168.53-139.53-40.38-200.32-194.98-253.18-316.82-9.62-22.18-23.45-51.02-30.6-73.4-19.02-59.5,61.31-95.36,91.95-34.95,38.08,75.07,67.82,156.86,105.65,232.35,65.02,118.48,208.2,155.6,312.7,61.36,159.13-143.52,9.06-404.83-192.52-345.52-30.35,8.93-43.42,20.91-68.68,36.32-37.13,22.65-84.47-7.64-71.82-50.82,4.38-14.96,16.32-22.17,28.19-30.81,49.37-35.94,91.83-55.5,154.11-58.89Z"/>
  <path class="st0" d="M1676,409.5c-4.17,39.47-60.38,39.47-64.88.88l-.16-342.92c7.51-53.49,70.83-62.21,92.06-9.98,31.34,77.1,55.98,159.08,85.96,237.04.59,1.53,1.37,4.99,3.01,5.47,29.34-84.43,60.51-168.35,91.14-252.37,21.5-40.04,82.92-28.9,87.86,16.89v345.97c-2.39,24.15-28.67,36.23-49.31,24.34-5.24-3.02-14.67-14.32-14.67-20.33V150c-2.52,2.07-3.57,6.67-4.75,9.75-27.02,70.72-50.18,143.48-80.27,212.73-17.78,21.36-51.65,18.99-65.49-5.46l-80.48-211.02v253.5Z"/>
  <path class="st1" d="M554.78,16.28c20.12-2.43,39.37,6.69,48.74,24.7,65.85,145.18,134.71,289,199.3,434.7,8.87,20.02,37.26,72.18,37.27,90.82.03,46.65-60.41,62.79-88.6,29.51-80.04-170.36-154.7-343.67-232.98-515.02-11.5-27.65,6.08-61.06,36.27-64.71Z"/>
  <path class="st1" d="M65.78,16.28c17.02-1.93,32.36,4.15,43.2,17.25,81.67,171.91,159.61,345.94,238.97,519.03,15.83,56.29-58.75,83.21-89.14,39.14L28.51,79.99c-10.95-28.02,6.93-60.28,37.27-63.71Z"/>
  <path class="st0" d="M2508,374h156.5c.86,0,10.12,4.63,11.44,5.56,23.42,16.6,14.36,55.77-14.54,59.33h-195.79c-34.48-4.81-51.62-42.97-33.78-72.56l169.17-278.33h-144.5c-5.12,0-15.03-6.51-18.48-10.52-16.55-19.3-6.15-50.99,19.58-54.37h185.79c33.52,4.98,50.88,42.31,33.78,71.56-54.43,90.38-110.39,179.89-164.59,270.41-1.65,2.75-3.96,5.79-4.58,8.92Z"/>
  <path class="st0" d="M3525.99,131l-2.09,1.41-99.05,285.95c-16.25,35.69-67.77,23.06-65.89-15.9,42.16-120.82,89.63-239.97,133.85-360.15,13.48-27.27,54.36-25.24,65.67,2.7l130.55,347.45c7.5,20.23-5.33,44.52-27.49,46.58-33.72,3.12-37.69-24.77-46.56-49.52-30.74-85.76-59.18-172.43-88.99-258.52Z"/>
  <path class="st0" d="M2901.01,132l-100.18,289.32c-23.91,38.68-79.98,9.36-60.85-32.85l128.53-342.47c9.78-27.83,48-30.82,63.9-6.93,46.11,120,91.77,240.55,135.58,361.42,3.98,39.42-46.77,53.6-64.86,19.86l-99.06-285.94-3.05-2.44Z"/>
  <path class="st0" d="M2204.99,132c-1.44-1.48-1.73.41-2.22,1.28-.94,1.68-2.02,5.16-2.79,7.2-34.89,92.25-62.52,187.49-97.11,279.89-18.1,33.73-68.85,19.56-64.86-19.86,42.58-118.99,88.88-236.81,132.5-355.49,10.42-26.23,45.65-29.46,62.48-7.52,46.29,116.07,88.32,234.16,133.02,350.98,19.22,42.28-36.96,71.52-60.85,32.85l-100.18-289.33Z"/>
  <path class="st0" d="M3213.01,205.99c1.67-1.18,2.95-4.68,3.85-6.63,22.87-49.43,44.88-101.24,69.28-149.72,5.4-10.73,8.16-18.88,20.18-23.82,25.3-10.39,49.35,8.87,45.59,35.59-32.85,71.64-69.48,141.82-104.45,212.56l-.71,138.29c-10.37,38.96-64.69,34.77-67.8-6.72-3.19-42.55,2.65-88.86-.19-131.81l-100.63-202.37c-17.47-43.17,37-65.72,57.03-33.03l77.84,167.66Z"/>
  <path class="st1" d="M309.78,16.28c20.02-2.42,39.23,6.82,49.05,24.39,15.72,28.14,29.2,65.9,43,96,23.14,50.48,46.8,100.73,69.66,151.34,17.03,44.77-30.06,82.26-71.15,59.15-11.83-6.65-15.77-14.83-21.51-26.49-38.13-77.49-68.74-160.71-106.31-238.69-11.92-28.33,6.48-61.98,37.26-65.7Z"/>
  <path class="st0" d="M533.79,507.29c74.79-7.47,81.69,102.15,14.6,109.6-77.44,8.6-85.03-102.57-14.6-109.6Z"/>
  <path class="st0" d="M1174.79,260.29c73.7-7.26,80.88,102.56,13.58,109.58-77.61,8.1-84.86-102.56-13.58-109.58Z"/>
  <path class="st0" d="M796.78,17.28c78.35-9.38,85.48,103.08,14.59,109.59-73.8,6.78-81.1-101.63-14.59-109.59Z"/>
  <path class="st0" d="M477.8,377.29c80.3-8.64,82.33,117.39-.28,109.69-63.04-5.87-64.76-102.69.28-109.69Z"/>
  <path class="st1" d="M2624.3,528.01c3.2.39,7.91-1.31,10,1.6l25.8,68.99,26.6-69.99,9.19-.6v78.14c0,1.95-6.44,1.6-8.07,1.51v-62.51l-22.31,58.85c-.88,4.66-8.2,5.37-10.18,1.37l-22.96-60.22v62.51c-1.63.09-8.07.43-8.07-1.51v-78.14Z"/>
  <path class="st1" d="M1705.76,528.01l8.96.12,25.33,70.46,27.1-69.98,9.19-.6v78.14c0,2.11-8.07,2.11-8.07,0v-59.99l-23.08,60.91c-.84,1.22-8.56,1.3-9.01-1.1l-23.37-61.83v63.52h-7.06v-79.65Z"/>
  <path class="st1" d="M3537.79,528.01l7.91.16,37.47,64.37v-64.53h8.07v78.14c0,1.76-6.44,1.98-7.86,1.29l-37.51-63.3v62.01c0,2.11-8.07,2.11-8.07,0v-78.14Z"/>
  <path class="st1" d="M3009.23,526.28c46.35-.98,46.71,87.2-3.3,82.39-39.89-3.84-39.73-81.47,3.3-82.39ZM3003.13,534.29c-25.27,5.12-27.45,73.9,12.64,67.09,27.56-4.68,28.71-75.47-12.64-67.09Z"/>
  <path class="st1" d="M3479.96,600.25c-10.71,10.55-28.61,11.6-40.45,2.35-24.73-19.33-18.36-74.97,17.4-76.33,36.43-1.39,44.95,52.42,23.06,73.98ZM3451.83,534.31c-29.89,5.09-23.92,83.46,16.77,65.17,22.55-10.14,22.43-71.85-16.77-65.17Z"/>
  <path class="st1" d="M1924.56,528.01c10.71-1.02,25.99-3.59,35.65,2.16,13.13,7.81,14.35,30.05,2,39.01-1.23.89-5.1,2.07-5.26,2.31-2.04,3.2,16.08,34.24,13.99,36.17-2.2-.26-5.98.92-7.57-1l-13.6-32.27h-15.63c-.31,0-.77-1.28-1.51-1.01v32.77c0,1.95-6.44,1.6-8.07,1.51v-79.65ZM1932.63,567.34h17.64c2.98,0,9.47-5.48,10.66-8.5,4.2-10.64-.09-23.22-12.12-25.33-2.54-.45-16.18-1.45-16.18,1.06v32.77Z"/>
  <path class="st1" d="M3178.85,528.01v54.95c0,3.05,3.7,11.82,6.05,14.12,6.2,6.07,21,6.29,27.46.52,1.78-1.59,5.81-9.53,5.81-11.61v-57.98h8.07v56.97c0,3.24-5.19,13.9-7.66,16.54-9.65,10.32-31.01,9.79-40.16-.99-4.07-4.79-7.64-16.49-7.64-22.61v-49.91h8.07Z"/>
  <path class="st1" d="M1854.82,528.18l27.39,79.48c-2.25-.2-6.06.83-7.58-.99-1.96-2.36-4.46-17.11-7.18-18.03-5.15.46-33.22-1.48-35.17.86-4.32,5.2-1.4,21.67-13.6,18.16l27.11-79.05,9.02-.43ZM1866.08,582.46l-15.14-45.37-16.12,45.37h31.26Z"/>
  <path class="st1" d="M1612.12,602.51c-.99-1.57.59-5.43,2.53-5.78.73-.13,10.57,4.39,14.08,4.78,9.86,1.11,22.04-1.73,22.65-13.48,1.2-22.87-31.79-17.22-38.89-34.82-6.3-15.61,7.78-26.54,22.35-26.83,3.44-.07,20.74,2.73,20.38,6.99-.57,6.79-7.39,1.6-10.71.93-9.51-1.93-25.52-.97-25.12,12.2.45,14.69,32.07,14.42,38.45,30.93,8.13,21.02-10.33,33.68-29.97,30.98-2.18-.3-15.14-4.93-15.76-5.91Z"/>
  <path class="st1" d="M2367.87,526.39c4.74-.09,11.85,1.35,16.14,3.46,2.37,1.16,5.6,1.94,3.88,5.23-2.2,4.21-7.2-.14-10.35-.77-11.37-2.3-28.93.08-24.01,15.95,3.49,11.28,32.91,11.25,37.8,28.74,5.67,20.26-9.72,31.5-28.66,29.67-4.07-.39-19.79-4.58-17.19-10.06,1.92-4.05,6.13.22,9.07,1.04,11.26,3.13,29.03,4.22,29.86-11.61,1.02-19.43-20.92-17.94-32.35-27.24-17.72-14.41-4.22-34.02,15.81-34.41Z"/>
  <path class="st1" d="M2930.65,536.94c-1.29.75-7.16-2.3-9.51-2.77-10.6-2.11-28.48.9-23.62,15.57,4.1,12.38,31.76,10.88,37.81,28.72,7.12,21-11.47,32.83-30.77,29.77-2.74-.44-16.41-5.11-15.95-7.92.06-.35,2.22-3.75,2.48-3.78,1.57-.14,11.11,4.53,15.14,4.98,8.38.94,19.38-.73,21.88-10.15,7.74-29.18-45.22-18.34-39.4-49.5,3.09-16.55,31.14-19.02,42.48-10.68,2.23,1.64.89,4.93-.53,5.76Z"/>
  <path class="st1" d="M3681.97,532.06c-1.71,8.02-7.06,3.13-11.85,2.26-10.74-1.95-27.97-.39-23.97,14.9,3.41,13.03,36.59,12.09,38.85,32.73,2.12,19.4-11.32,28.77-29.64,26.61-3.22-.38-16.95-4.57-17.67-7.56-.24-1.01,1.49-4.11,2.54-4.35.77-.18,11.26,4.58,15.03,4.95,13.75,1.34,23.56-3.48,21.69-18.67-2.15-17.46-36.97-13.81-39.36-33.22-3.08-25,28.13-27.7,44.38-17.66Z"/>
  <path class="st1" d="M2786.63,532.06c-2.18,8.2-6.77,3.15-11.85,2.27-10.73-1.87-27.98-.41-23.97,14.89,3.41,13.03,36.59,12.09,38.85,32.73,2.89,26.47-24.54,33.14-43.88,21.7-3.4-2.01-4.87-6.07-.89-7,.77-.18,11.26,4.58,15.03,4.95,14.8,1.44,26.17-5.66,20.89-21.9-4.26-13.1-36.33-11.83-38.57-29.99-3.08-24.99,28.12-27.7,44.38-17.66Z"/>
  <path class="st1" d="M2207.88,532.06c-2.18,8.2-6.77,3.15-11.85,2.27-10.73-1.87-27.98-.41-23.97,14.89,3.41,13.03,36.59,12.09,38.85,32.73,2.89,26.47-24.54,33.14-43.88,21.7-3.4-2.01-4.87-6.07-.89-7,.77-.18,11.26,4.58,15.03,4.95,14.8,1.44,26.17-5.66,20.89-21.9-4.26-13.1-36.33-11.83-38.57-29.99-3.08-24.99,28.12-27.7,44.38-17.66Z"/>
  <polygon class="st1" points="2574.89 528.01 2574.89 534.06 2537.59 534.06 2537.59 563.3 2568.84 563.3 2568.84 569.35 2537.59 569.35 2537.59 600.61 2575.9 600.61 2575.9 606.66 2530.53 606.66 2530.53 528.01 2574.89 528.01"/>
  <polygon class="st1" points="2067.73 528.01 2067.73 535.07 2041.52 535.07 2041.52 607.67 2033.45 607.67 2033.45 535.07 2009.25 535.07 2009.25 528.01 2067.73 528.01"/>
  <polygon class="st1" points="2487.17 528.01 2487.17 535.07 2460.96 535.07 2460.96 607.67 2452.89 607.67 2452.89 535.07 2428.69 535.07 2428.69 528.01 2487.17 528.01"/>
  <polygon class="st1" points="3328.07 528.01 3328.07 535.07 3301.86 535.07 3301.86 607.67 3293.79 607.67 3293.79 535.07 3269.59 535.07 3269.59 528.01 3328.07 528.01"/>
  <path class="st1" d="M2274.43,575.91l-26.21-47.88c2.08.36,6.29-.71,7.86.2,2.4,1.4,18.35,35.04,21.39,40.12,9.02-12.13,14.58-26.55,22.68-39.31,1.14-1.21,7.98-2.37,7.57.5l-24.77,44.82c-1.88,6.27,1.12,29.49-.9,32.38-1.18,1.7-5.59.75-7.63.94v-31.76Z"/>
  <polygon class="st1" points="3097.18 528.01 3097.18 600.61 3128.43 600.61 3128.43 606.66 3090.12 606.66 3090.12 528.01 3097.18 528.01"/>
  <rect class="st1" x="3370.42" y="528.01" width="8.07" height="79.65"/>
</svg>