<svg width="374" height="388" viewBox="0 0 374 388" fill="none" xmlns="http://www.w3.org/2000/svg">
<g clip-path="url(#clip0_337_15560)">
<path d="M132.472 50.6599C114.508 65.208 103.894 86.7813 103.277 109.961L103.255 111.065C103.055 127.574 107.87 143.38 117.219 156.868L117.667 157.508C117.821 157.702 117.924 157.871 118.011 158.017L118.012 158.018C118.171 158.273 118.341 158.534 118.516 158.794L119.044 159.571C125.99 169.288 129.565 180.843 129.412 192.977L129.413 192.978C129.306 204.848 125.592 216.121 118.673 225.546C118.498 225.832 118.307 226.135 118.096 226.428L117.871 226.728L117.863 226.736C117.783 226.833 117.624 227.024 117.464 227.218C117.287 227.492 117.061 227.806 116.968 227.939L116.963 227.945L116.957 227.952C107.042 241.153 101.64 256.827 101.295 273.327L101.283 274.114L101.282 274.114C101.28 274.225 101.275 274.33 101.271 274.417L101.262 274.643L101.262 274.649C101.148 295.563 109.129 315.367 123.745 330.418C138.248 345.299 157.613 353.758 178.378 354.334L179.368 354.356L179.369 354.356C197.788 354.649 215.812 348.42 230.134 336.822C239.489 329.246 247.089 319.461 252.109 308.527C252.124 308.486 252.129 308.428 252.116 308.374C252.102 308.316 252.08 308.308 252.093 308.316L252.079 308.308L252.067 308.299C251.963 308.228 251.87 308.198 251.802 308.188C246.703 319.163 239.128 328.867 229.806 336.416C215.557 347.955 197.641 354.155 179.347 353.86C158.664 353.572 139.277 345.357 124.696 330.732L124.006 330.031C109.579 315.204 101.694 295.711 101.734 275.078L101.742 274.094C101.885 257.78 107.048 242.174 116.747 228.923L117.212 228.294C117.31 228.15 117.409 228.011 117.504 227.881L117.789 227.476L117.797 227.465L118.145 226.964C118.252 226.811 118.354 226.667 118.46 226.531L118.459 226.531C125.78 216.883 129.72 205.251 129.892 192.944L129.892 192.943C130.013 181.121 126.615 169.784 120.03 160.132L119.384 159.203C119.038 158.772 118.539 158.076 118.094 157.408L118.093 157.409C108.624 144.123 103.649 128.345 103.727 111.817L103.734 111.029C104.04 87.9884 114.29 66.4412 131.938 51.7404L132.784 51.0454L132.786 51.0442C147.144 39.4824 165.076 33.3024 183.296 33.6249C205.611 33.987 226.851 43.834 241.546 60.7267C241.578 60.7318 241.622 60.734 241.674 60.7227L241.673 60.7233C241.695 60.7161 241.716 60.7095 241.733 60.7047C241.769 60.6947 241.812 60.6841 241.848 60.675C241.863 60.6711 241.876 60.6674 241.889 60.6641L241.914 60.6438C241.936 60.626 241.944 60.616 241.946 60.6131L241.954 60.5723C241.959 60.5246 241.957 60.51 241.954 60.4994C241.952 60.4919 241.941 60.4536 241.878 60.3866L241.87 60.3788L241.864 60.3705C241.119 59.5108 240.392 58.6965 239.64 57.906L238.878 57.1225L238.873 57.1171C224.409 42.2055 205.029 33.7276 184.248 33.1319L183.258 33.1091C164.911 32.8237 146.866 39.0681 132.472 50.6599Z" fill="#939393" stroke="white"/>
</g>
<defs>
<clipPath id="clip0_337_15560">
<rect width="263.122" height="284.848" fill="white" transform="matrix(-0.777132 0.629337 0.629337 0.777132 193.881 0.286133)"/>
</clipPath>
</defs>
</svg>
