<svg width="24" height="25" viewBox="0 0 24 25" fill="none" xmlns="http://www.w3.org/2000/svg">
<path d="M3.17004 7.93994L12 13.0499L20.77 7.96991" stroke="#1B1D1E" stroke-width="1.5" stroke-linecap="round" stroke-linejoin="round"/>
<path d="M12 22.11V13.04" stroke="#1B1D1E" stroke-width="1.5" stroke-linecap="round" stroke-linejoin="round"/>
<path d="M21.61 13.33V9.67C21.61 8.29 20.62 6.61002 19.41 5.94002L14.07 2.98C12.93 2.34 11.07 2.34 9.92999 2.98L4.59 5.94002C3.38 6.61002 2.39001 8.29 2.39001 9.67V15.33C2.39001 16.71 3.38 18.39 4.59 19.06L9.92999 22.02C10.5 22.34 11.25 22.5 12 22.5C12.75 22.5 13.5 22.34 14.07 22.02" stroke="#1B1D1E" stroke-width="1.5" stroke-linecap="round" stroke-linejoin="round"/>
<path d="M19.2 21.9C20.9673 21.9 22.4 20.4673 22.4 18.7C22.4 16.9327 20.9673 15.5 19.2 15.5C17.4327 15.5 16 16.9327 16 18.7C16 20.4673 17.4327 21.9 19.2 21.9Z" stroke="#1B1D1E" stroke-width="1.5" stroke-linecap="round" stroke-linejoin="round"/>
<path d="M23 22.5L22 21.5" stroke="#1B1D1E" stroke-width="1.5" stroke-linecap="round" stroke-linejoin="round"/>
</svg>
