<svg width="20" height="21" viewBox="0 0 20 21" fill="none" xmlns="http://www.w3.org/2000/svg">
<rect width="20" height="21" fill="#585858"/>
<g id="_Input dropdown menu" filter="url(#filter0_dd_1_8)">
<rect x="-250" y="-72" width="292" height="268.315" rx="8" fill="white"/>
<g id="Menu items">
<g id="_Input dropdown menu item">
<rect x="-242" y="-11.6846" width="276" height="44" rx="8" fill="#F15D2A" fill-opacity="0.1"/>
<g id="Frame" clip-path="url(#clip0_1_8)">
<g id="Group">
<g id="Group_2">
<path id="Vector" fill-rule="evenodd" clip-rule="evenodd" d="M10 0.31543C4.48438 0.31543 0 4.7998 0 10.3154C0 15.8311 4.48438 20.3154 10 20.3154C15.5156 20.3154 20 15.8311 20 10.3154C20 4.7998 15.5156 0.31543 10 0.31543Z" fill="#F15D2A"/>
<path id="Vector_2" fill-rule="evenodd" clip-rule="evenodd" d="M14.8359 6.94434C15.0781 7.18652 15.0781 7.58496 14.8359 7.82715L8.97656 13.6865C8.85547 13.8076 8.69531 13.8701 8.53516 13.8701C8.375 13.8701 8.21484 13.8076 8.09375 13.6865L5.16406 10.7568C4.92188 10.5146 4.92188 10.1162 5.16406 9.87402C5.40625 9.63184 5.80469 9.63184 6.04688 9.87402L8.53516 12.3623L13.9531 6.94434C14.1953 6.69824 14.5937 6.69824 14.8359 6.94434Z" fill="white"/>
</g>
</g>
</g>
</g>
</g>
</g>
<defs>
<filter id="filter0_dd_1_8" x="-262" y="-72" width="316" height="292.315" filterUnits="userSpaceOnUse" color-interpolation-filters="sRGB">
<feFlood flood-opacity="0" result="BackgroundImageFix"/>
<feColorMatrix in="SourceAlpha" type="matrix" values="0 0 0 0 0 0 0 0 0 0 0 0 0 0 0 0 0 0 127 0" result="hardAlpha"/>
<feMorphology radius="2" operator="erode" in="SourceAlpha" result="effect1_dropShadow_1_8"/>
<feOffset dy="4"/>
<feGaussianBlur stdDeviation="3"/>
<feColorMatrix type="matrix" values="0 0 0 0 0.0392157 0 0 0 0 0.0496732 0 0 0 0 0.0705882 0 0 0 0.03 0"/>
<feBlend mode="normal" in2="BackgroundImageFix" result="effect1_dropShadow_1_8"/>
<feColorMatrix in="SourceAlpha" type="matrix" values="0 0 0 0 0 0 0 0 0 0 0 0 0 0 0 0 0 0 127 0" result="hardAlpha"/>
<feMorphology radius="4" operator="erode" in="SourceAlpha" result="effect2_dropShadow_1_8"/>
<feOffset dy="12"/>
<feGaussianBlur stdDeviation="8"/>
<feColorMatrix type="matrix" values="0 0 0 0 0.0392157 0 0 0 0 0.0496732 0 0 0 0 0.0705882 0 0 0 0.08 0"/>
<feBlend mode="normal" in2="effect1_dropShadow_1_8" result="effect2_dropShadow_1_8"/>
<feBlend mode="normal" in="SourceGraphic" in2="effect2_dropShadow_1_8" result="shape"/>
</filter>
<clipPath id="clip0_1_8">
<rect width="20" height="20" fill="white" transform="translate(0 0.31543)"/>
</clipPath>
</defs>
</svg>
