<svg width="25" height="26" viewBox="0 0 25 26" fill="none" xmlns="http://www.w3.org/2000/svg">
<g clip-path="url(#clip0_1903_5908)">
<path d="M1.66977 8.38949L0.916554 8.37953C-0.0159164 8.4018 -0.0329061 9.73933 0.897951 9.78591L1.65117 9.79588C2.58364 9.77366 2.60063 8.43608 1.66977 8.38949ZM19.7279 10.035L20.4811 10.045C21.4136 10.0227 21.4306 8.68516 20.4997 8.63857L19.7465 8.62861C18.8141 8.65088 18.7971 9.98846 19.7279 10.035ZM10.7792 3.1367C11.1676 3.14183 11.4866 2.83115 11.4917 2.4428L11.5017 1.68959C11.4794 0.757118 10.1419 0.740128 10.0953 1.67099L10.0853 2.4242C10.0802 2.81255 10.3908 3.13156 10.7792 3.1367ZM4.49359 3.35959L3.75038 2.59641C3.4794 2.3182 3.03418 2.31227 2.75593 2.58325C2.47767 2.85424 2.47179 3.29946 2.74277 3.57771L3.48598 4.34089C3.75701 4.61919 4.20223 4.62494 4.48043 4.35404C4.75869 4.08305 4.76458 3.63784 4.49359 3.35959ZM18.038 4.53338L18.8011 3.79013C19.0794 3.51914 19.0853 3.07393 18.8143 2.79567C18.5434 2.51747 18.0981 2.51153 17.8198 2.78252L17.0567 3.52577C16.7785 3.79676 16.7726 4.24198 17.0436 4.52023C17.3146 4.79853 17.7599 4.80433 18.038 4.53338ZM10.6143 19.3808L10.6333 17.9428C10.6426 17.2445 11.0069 16.6235 11.5603 16.2627C11.4413 15.613 11.6412 14.9213 12.1414 14.4341L13.5913 13.0222C14.0722 12.5485 14.7754 12.3466 15.4347 12.4894C15.81 11.9459 16.4404 11.5982 17.1385 11.6075L17.3963 11.6109C17.4767 7.88402 14.4849 4.79068 10.758 4.74307C4.18261 4.87468 1.81552 12.3714 6.16925 16.5536C6.97797 17.4892 7.61679 18.2283 7.60151 19.3409L10.6143 19.3808L10.6143 19.3808ZM18.0675 17.873C17.417 17.8644 16.8807 18.3867 16.8721 19.0372C16.9107 20.601 19.152 20.6303 19.2317 19.0685C19.2403 18.4179 18.7181 17.8816 18.0675 17.873Z" fill="white"/>
<path d="M23.5472 17.4883L22.7804 17.3822C22.7359 17.2564 22.6864 17.1325 22.632 17.0106L23.1155 16.4056C23.2113 16.2857 23.26 16.1349 23.2525 15.9816C23.245 15.8283 23.1817 15.683 23.0747 15.5731L21.6626 14.1232C21.5555 14.0133 21.412 13.9462 21.2589 13.9347C21.1059 13.9231 20.9539 13.9678 20.8314 14.0604L20.2138 14.5277C20.0935 14.4701 19.9709 14.4173 19.8464 14.3696L19.7606 13.6002C19.7436 13.4476 19.6715 13.3065 19.5577 13.2034C19.444 13.1003 19.2965 13.0423 19.1431 13.0402L17.1196 13.0135C16.9661 13.0114 16.8171 13.0655 16.7007 13.1656C16.5843 13.2657 16.5085 13.4048 16.4874 13.5569L16.3814 14.3237C16.2555 14.3681 16.1316 14.4177 16.0097 14.4721L15.4047 13.9886C15.2848 13.8928 15.134 13.844 14.9807 13.8516C14.8274 13.8591 14.6822 13.9223 14.5722 14.0294L13.1224 15.4414C13.0124 15.5484 12.9453 15.692 12.9338 15.8451C12.9222 15.9981 12.9669 16.1501 13.0596 16.2725L13.5269 16.8901C13.4693 17.0105 13.4165 17.1331 13.3687 17.2576L12.5993 17.3434C12.4467 17.3604 12.3056 17.4325 12.2025 17.5463C12.0994 17.66 12.0414 17.8075 12.0394 17.9609L12.0126 19.9844C12.0106 20.1379 12.0647 20.2869 12.1647 20.4033C12.2648 20.5197 12.4039 20.5955 12.556 20.6166L13.3228 20.7226C13.3673 20.8485 13.4168 20.9724 13.4713 21.0943L12.9878 21.6992C12.8919 21.8191 12.8432 21.9699 12.8507 22.1232C12.8582 22.2765 12.9215 22.4218 13.0286 22.5318L14.4405 23.9816C14.5476 24.0916 14.6912 24.1586 14.8442 24.1702C14.9973 24.1818 15.1493 24.137 15.2717 24.0444L15.8893 23.5771C16.0097 23.6347 16.1323 23.6875 16.2569 23.7353L16.3426 24.5046C16.3596 24.6572 16.4318 24.7983 16.5455 24.9014C16.6592 25.0045 16.8067 25.0625 16.9602 25.0646L18.9836 25.0913C19.1371 25.0933 19.2861 25.0392 19.4025 24.9392C19.5189 24.8391 19.5948 24.7 19.6158 24.5479L19.7219 23.7811C19.8477 23.7366 19.9716 23.6871 20.0935 23.6327L20.6984 24.1161C20.8183 24.212 20.9691 24.2607 21.1224 24.2532C21.2757 24.2457 21.421 24.1824 21.531 24.0753L22.9809 22.6633C23.0908 22.5562 23.1579 22.4127 23.1695 22.2596C23.181 22.1066 23.1363 21.9546 23.0437 21.8322L22.5763 21.2146C22.6339 21.0942 22.6867 20.9716 22.7345 20.8471L23.5039 20.7613C23.6565 20.7443 23.7976 20.6722 23.9007 20.5585C24.0038 20.4447 24.0618 20.2973 24.0638 20.1438L24.0906 18.1205C24.0926 17.967 24.0385 17.818 23.9385 17.7016C23.8384 17.5852 23.6993 17.5094 23.5472 17.4883ZM18.0174 21.6387C16.5914 21.6198 15.4465 20.4443 15.4654 19.0182C15.6407 15.5937 20.5536 15.6597 20.6378 19.0867C20.6189 20.5127 19.4434 21.6575 18.0174 21.6387ZM11.4884 21.6699C11.1705 21.45 10.9213 21.1447 10.7696 20.7892L7.58257 20.747L7.57128 21.6005C7.55388 22.9159 8.52677 24.0173 9.79695 24.1953L9.79601 24.2666C9.81828 25.1991 11.1558 25.2161 11.2024 24.2852L11.2033 24.2139C11.5997 24.1688 11.9802 24.0322 12.3147 23.8148L12.021 23.5132C11.5338 23.0129 11.3523 22.3163 11.4884 21.6699Z" fill="white"/>
</g>
<defs>
<clipPath id="clip0_1903_5908">
<rect width="24" height="24" fill="white" transform="translate(0.317383 0.842773) rotate(0.75787)"/>
</clipPath>
</defs>
</svg>
