<svg width="25" height="24" viewBox="0 0 25 24" fill="none" xmlns="http://www.w3.org/2000/svg">
<path d="M11.2499 2.44982C11.9499 1.85982 13.0799 1.85982 13.7599 2.44982L15.3399 3.79982C15.6399 4.04982 16.2099 4.25982 16.6099 4.25982H18.3099C19.3699 4.25982 20.2399 5.12982 20.2399 6.18982V7.88982C20.2399 8.28982 20.4499 8.84982 20.6999 9.14982L22.0499 10.7298C22.6399 11.4298 22.6399 12.5598 22.0499 13.2398L20.6999 14.8198C20.4499 15.1198 20.2399 15.6798 20.2399 16.0798V17.7798C20.2399 18.8398 19.3699 19.7098 18.3099 19.7098H16.6099C16.2099 19.7098 15.6499 19.9198 15.3499 20.1698L13.7699 21.5198C13.0699 22.1098 11.9399 22.1098 11.2599 21.5198L9.67988 20.1698C9.37988 19.9198 8.80988 19.7098 8.41988 19.7098H6.66988C5.60988 19.7098 4.73988 18.8398 4.73988 17.7798V16.0698C4.73988 15.6798 4.53988 15.1098 4.28988 14.8198L2.93988 13.2298C2.35988 12.5398 2.35988 11.4198 2.93988 10.7298L4.28988 9.13982C4.53988 8.83982 4.73988 8.27982 4.73988 7.88982V6.19982C4.73988 5.13982 5.60988 4.26982 6.66988 4.26982H8.39988C8.79988 4.26982 9.35988 4.05982 9.65988 3.80982L11.2499 2.44982Z" stroke="#DDECF4" stroke-width="1.5" stroke-linecap="round" stroke-linejoin="round"/>
<path d="M12.5 8.12988V12.9599" stroke="#DDECF4" stroke-width="1.5" stroke-linecap="round" stroke-linejoin="round"/>
<path d="M12.4946 16H12.5036" stroke="#DDECF4" stroke-width="2" stroke-linecap="round" stroke-linejoin="round"/>
</svg>
