<svg width="24" height="25" viewBox="0 0 24 25" fill="none" xmlns="http://www.w3.org/2000/svg">
<path d="M10.75 2.94982C11.45 2.35982 12.58 2.35982 13.26 2.94982L14.84 4.29982C15.14 4.54982 15.71 4.75982 16.11 4.75982H17.81C18.87 4.75982 19.74 5.62982 19.74 6.68982V8.38982C19.74 8.78982 19.95 9.34982 20.2 9.64982L21.55 11.2298C22.14 11.9298 22.14 13.0598 21.55 13.7398L20.2 15.3198C19.95 15.6198 19.74 16.1798 19.74 16.5798V18.2798C19.74 19.3398 18.87 20.2098 17.81 20.2098H16.11C15.71 20.2098 15.15 20.4198 14.85 20.6698L13.27 22.0198C12.57 22.6098 11.44 22.6098 10.76 22.0198L9.18001 20.6698C8.88001 20.4198 8.31 20.2098 7.92 20.2098H6.17C5.11 20.2098 4.24 19.3398 4.24 18.2798V16.5698C4.24 16.1798 4.04 15.6098 3.79 15.3198L2.44 13.7298C1.86 13.0398 1.86 11.9198 2.44 11.2298L3.79 9.63982C4.04 9.33982 4.24 8.77982 4.24 8.38982V6.69982C4.24 5.63982 5.11 4.76982 6.17 4.76982H7.9C8.3 4.76982 8.86 4.55982 9.16 4.30982L10.75 2.94982Z" stroke="#1B1D1E" stroke-width="1.5" stroke-linecap="round" stroke-linejoin="round"/>
<path d="M12 8.62988V13.4599" stroke="#1B1D1E" stroke-width="1.5" stroke-linecap="round" stroke-linejoin="round"/>
<path d="M11.9945 16.5H12.0035" stroke="#1B1D1E" stroke-width="2" stroke-linecap="round" stroke-linejoin="round"/>
</svg>
