<svg width="24" height="25" viewBox="0 0 24 25" fill="none" xmlns="http://www.w3.org/2000/svg">
<path d="M18.0665 18.2957L17.0873 16.3374L16.1082 18.2957H18.0665Z" fill="#006B84"/>
<path d="M21.8916 10.6751H20.8954V8.56746C20.8954 8.46914 20.8748 8.37191 20.8348 8.28206C20.7949 8.1922 20.7366 8.11172 20.6637 8.0458C20.5907 7.97988 20.5048 7.92999 20.4113 7.89935C20.3179 7.86872 20.2191 7.85802 20.1213 7.86794C20.0094 7.87929 17.5016 8.16288 16.2531 10.6751H15.2314V12.2168C15.2314 14.1548 13.6547 15.7315 11.7167 15.7315H10.175V22.3916C10.175 23.5543 11.1209 24.5001 12.2835 24.5001H21.8916C23.0542 24.5002 24.0001 23.5543 24.0001 22.3917V12.7836C24.0001 11.621 23.0542 10.6751 21.8916 10.6751ZM13.6361 20.0957L16.4586 14.4507C16.517 14.3339 16.6067 14.2357 16.7178 14.167C16.8289 14.0984 16.9569 14.062 17.0875 14.062C17.2181 14.062 17.3461 14.0984 17.4572 14.167C17.5683 14.2357 17.658 14.3339 17.7164 14.4507L20.5389 20.0957C20.7126 20.443 20.5718 20.8653 20.2245 21.039C19.8772 21.2127 19.4548 21.0719 19.2811 20.7246L18.7698 19.7021H15.4052L14.894 20.7246C14.7708 20.971 14.5224 21.1134 14.2645 21.1134C14.1589 21.1134 14.0516 21.0895 13.9507 21.039C13.6033 20.8653 13.4625 20.443 13.6361 20.0957ZM7.57885 6.42236H6.24634C6.33334 7.11897 6.55632 7.70468 6.91262 8.17661C7.26887 7.70468 7.49185 7.11897 7.57885 6.42236Z" fill="#006B84"/>
<path d="M11.7166 14.3251C12.8792 14.3251 13.8251 13.3792 13.8251 12.2166V2.60854C13.8251 1.4459 12.8792 0.500006 11.7166 0.500006H2.10853C0.945891 0.500006 0 1.4459 0 2.60854V12.2166C0 13.3792 0.945891 14.3251 2.10848 14.3251H3.10467V16.4327C3.10467 16.531 3.1253 16.6283 3.16521 16.7181C3.20512 16.808 3.26343 16.8885 3.33638 16.9544C3.40933 17.0203 3.49529 17.0702 3.58871 17.1008C3.68214 17.1315 3.78095 17.1422 3.87877 17.1322C3.9907 17.1209 6.49842 16.8373 7.74694 14.3251H11.7166ZM7.28728 10.2909C7.15915 10.2224 7.03412 10.1483 6.91256 10.0687C6.79101 10.1483 6.66598 10.2225 6.53784 10.2909C5.33813 10.9308 4.14052 10.9381 4.09013 10.9381C3.70181 10.9381 3.387 10.6233 3.387 10.235C3.387 9.84669 3.70181 9.53188 4.09013 9.53188C4.09631 9.53183 4.96383 9.51922 5.82703 9.07569C5.33316 8.44325 4.94391 7.58511 4.83145 6.42219H4.09008C3.70177 6.42219 3.38695 6.10738 3.38695 5.71907C3.38695 5.33076 3.70177 5.01594 4.09008 5.01594H6.20944V4.59008C6.20944 4.20177 6.52425 3.88696 6.91256 3.88696C7.30088 3.88696 7.61569 4.20177 7.61569 4.59008V5.01594H9.735C10.1233 5.01594 10.4381 5.33076 10.4381 5.71907C10.4381 6.10738 10.1233 6.42219 9.735 6.42219H8.99372C8.88122 7.58511 8.49202 8.44325 7.99814 9.07569C8.8613 9.51922 9.72895 9.53179 9.73791 9.53188C10.1262 9.53188 10.4396 9.84669 10.4396 10.235C10.4396 10.6233 10.1233 10.9381 9.735 10.9381C9.68461 10.9381 8.487 10.9308 7.28728 10.2909ZM17.1407 4.52277C17.278 4.66007 17.458 4.72874 17.6379 4.72874C17.8178 4.72874 17.9978 4.66011 18.135 4.52277C18.4096 4.24818 18.4096 3.80301 18.135 3.52841L17.9332 3.32657C20.5211 3.4799 22.5797 5.63352 22.5797 8.25927C22.5797 8.64758 22.8945 8.9624 23.2828 8.9624C23.6711 8.9624 23.9859 8.64758 23.9859 8.25927C23.9859 4.85272 21.2886 2.06469 17.9176 1.91774L18.135 1.70029C18.4096 1.42569 18.4096 0.980521 18.135 0.705928C17.8605 0.431381 17.4153 0.431334 17.1407 0.705928L15.7295 2.11719C15.4549 2.39179 15.4549 2.83696 15.7295 3.11155L17.1407 4.52277ZM6.84525 20.4632C6.5707 20.1886 6.12548 20.1886 5.85089 20.4632C5.5763 20.7378 5.5763 21.1829 5.85089 21.4575L6.05273 21.6594C3.46481 21.5061 1.40625 19.3524 1.40625 16.7267C1.40625 16.3384 1.09144 16.0236 0.703125 16.0236C0.314813 16.0236 0 16.3384 0 16.7267C0 20.1332 2.69733 22.9213 6.06834 23.0682L5.85089 23.2857C5.5763 23.5603 5.5763 24.0054 5.85089 24.28C5.98819 24.4173 6.16814 24.4859 6.34805 24.4859C6.52795 24.4859 6.70795 24.4173 6.8452 24.28L8.25642 22.8688C8.53102 22.5942 8.53102 22.149 8.25642 21.8744L6.84525 20.4632Z" fill="#006B84"/>
</svg>
