<svg width="24" height="25" viewBox="0 0 24 25" fill="none" xmlns="http://www.w3.org/2000/svg">
<path d="M18.47 17.33L18.86 20.49C18.96 21.32 18.07 21.9 17.36 21.47L13.17 18.98C12.71 18.98 12.26 18.95 11.82 18.89C12.56 18.02 13 16.92 13 15.73C13 12.89 10.54 10.59 7.49997 10.59C6.33997 10.59 5.26997 10.92 4.37997 11.5C4.34997 11.25 4.33997 11 4.33997 10.74C4.33997 6.18999 8.28997 2.5 13.17 2.5C18.05 2.5 22 6.18999 22 10.74C22 13.44 20.61 15.83 18.47 17.33Z" stroke="#1B1D1E" stroke-width="1.5" stroke-linecap="round" stroke-linejoin="round"/>
<path d="M13 15.7298C13 16.9198 12.56 18.0198 11.82 18.8898C10.83 20.0898 9.26 20.8598 7.5 20.8598L4.89 22.4098C4.45 22.6798 3.89 22.3098 3.95 21.7998L4.2 19.8298C2.86 18.8998 2 17.4098 2 15.7298C2 13.9698 2.94 12.4198 4.38 11.4998C5.27 10.9198 6.34 10.5898 7.5 10.5898C10.54 10.5898 13 12.8898 13 15.7298Z" stroke="#1B1D1E" stroke-width="1.5" stroke-linecap="round" stroke-linejoin="round"/>
</svg>
