<svg width="24" height="25" viewBox="0 0 24 25" fill="none" xmlns="http://www.w3.org/2000/svg">
<path d="M8.67 14.5H4C2.9 14.5 2 15.4 2 16.5V22.5H8.67V14.5Z" stroke="#292D32" stroke-width="1.5" stroke-miterlimit="10" stroke-linecap="round" stroke-linejoin="round"/>
<path d="M13.33 10.5H10.66C9.56003 10.5 8.66003 11.4 8.66003 12.5V22.5H15.33V12.5C15.33 11.4 14.44 10.5 13.33 10.5Z" stroke="#292D32" stroke-width="1.5" stroke-miterlimit="10" stroke-linecap="round" stroke-linejoin="round"/>
<path d="M20 17.5H15.33V22.5H22V19.5C22 18.4 21.1 17.5 20 17.5Z" stroke="#292D32" stroke-width="1.5" stroke-miterlimit="10" stroke-linecap="round" stroke-linejoin="round"/>
<path d="M12.52 2.56982L13.05 3.62982C13.12 3.77982 13.31 3.91982 13.47 3.93982L14.43 4.09982C15.04 4.19982 15.19 4.6498 14.75 5.0798L14 5.8298C13.87 5.9598 13.8 6.19981 13.84 6.36981L14.05 7.28982C14.22 8.01982 13.83 8.29983 13.19 7.91983L12.29 7.38983C12.13 7.28983 11.86 7.28983 11.7 7.38983L10.8 7.91983C10.16 8.29983 9.76998 8.01982 9.93998 7.28982L10.15 6.36981C10.19 6.19981 10.12 5.9498 9.98999 5.8298L9.24999 5.08981C8.80999 4.64981 8.94999 4.2098 9.56999 4.1098L10.53 3.94983C10.69 3.91983 10.88 3.77983 10.95 3.63983L11.48 2.5798C11.77 1.9998 12.23 1.99982 12.52 2.56982Z" stroke="#292D32" stroke-width="1.5" stroke-linecap="round" stroke-linejoin="round"/>
</svg>
