<svg width="24" height="25" viewBox="0 0 24 25" fill="none" xmlns="http://www.w3.org/2000/svg">
<path d="M12 18.7002C14.2091 18.7002 16 16.9093 16 14.7002C16 12.4911 14.2091 10.7002 12 10.7002C9.79086 10.7002 8 12.4911 8 14.7002C8 16.9093 9.79086 18.7002 12 18.7002Z" stroke="url(#paint0_linear_1189_1168)" stroke-width="1.5" stroke-miterlimit="10" stroke-linecap="round" stroke-linejoin="round"/>
<path d="M12.25 13.4502V14.3802C12.25 14.7302 12.07 15.0602 11.76 15.2402L11 15.7002" stroke="url(#paint1_linear_1189_1168)" stroke-width="1.5" stroke-miterlimit="10" stroke-linecap="round" stroke-linejoin="round"/>
<path d="M7.99995 22.5H15.9999C20.0199 22.5 20.7399 20.89 20.9499 18.93L21.6999 10.93C21.9699 8.49 21.2699 6.5 16.9999 6.5H6.99995C2.72995 6.5 2.02995 8.49 2.29995 10.93L3.04995 18.93C3.25995 20.89 3.97995 22.5 7.99995 22.5Z" stroke="url(#paint2_linear_1189_1168)" stroke-width="1.5" stroke-miterlimit="10" stroke-linecap="round" stroke-linejoin="round"/>
<path d="M8 6.5V5.7C8 3.93 8 2.5 11.2 2.5H12.8C16 2.5 16 3.93 16 5.7V6.5" stroke="url(#paint3_linear_1189_1168)" stroke-width="1.5" stroke-miterlimit="10" stroke-linecap="round" stroke-linejoin="round"/>
<path d="M21.65 11.5C19.92 12.76 18 13.64 16.01 14.14" stroke="url(#paint4_linear_1189_1168)" stroke-width="1.5" stroke-miterlimit="10" stroke-linecap="round" stroke-linejoin="round"/>
<path d="M2.62 11.7695C4.29 12.9095 6.11 13.7195 8 14.1795" stroke="url(#paint5_linear_1189_1168)" stroke-width="1.5" stroke-miterlimit="10" stroke-linecap="round" stroke-linejoin="round"/>
<defs>
<linearGradient id="paint0_linear_1189_1168" x1="12" y1="10.7002" x2="12" y2="18.7002" gradientUnits="userSpaceOnUse">
<stop stop-color="#1E7DA3"/>
<stop offset="1" stop-color="#1D5166"/>
</linearGradient>
<linearGradient id="paint1_linear_1189_1168" x1="11.625" y1="13.4502" x2="11.625" y2="15.7002" gradientUnits="userSpaceOnUse">
<stop stop-color="#1E7DA3"/>
<stop offset="1" stop-color="#1D5166"/>
</linearGradient>
<linearGradient id="paint2_linear_1189_1168" x1="11.9999" y1="6.5" x2="11.9999" y2="22.5" gradientUnits="userSpaceOnUse">
<stop stop-color="#1E7DA3"/>
<stop offset="1" stop-color="#1D5166"/>
</linearGradient>
<linearGradient id="paint3_linear_1189_1168" x1="12" y1="2.5" x2="12" y2="6.5" gradientUnits="userSpaceOnUse">
<stop stop-color="#1E7DA3"/>
<stop offset="1" stop-color="#1D5166"/>
</linearGradient>
<linearGradient id="paint4_linear_1189_1168" x1="18.83" y1="11.5" x2="18.83" y2="14.14" gradientUnits="userSpaceOnUse">
<stop stop-color="#1E7DA3"/>
<stop offset="1" stop-color="#1D5166"/>
</linearGradient>
<linearGradient id="paint5_linear_1189_1168" x1="5.31" y1="11.7695" x2="5.31" y2="14.1795" gradientUnits="userSpaceOnUse">
<stop stop-color="#1E7DA3"/>
<stop offset="1" stop-color="#1D5166"/>
</linearGradient>
</defs>
</svg>
