<svg width="48" height="48" viewBox="0 0 48 48" fill="none" xmlns="http://www.w3.org/2000/svg">
<rect width="48" height="48" rx="11.6667" fill="url(#paint0_linear_1189_1716)"/>
<path fill-rule="evenodd" clip-rule="evenodd" d="M25.4272 11.0146L26.862 12.0886C27.2545 12.3823 27.6675 12.5326 28.1569 12.5599L29.9464 12.6594C31.0179 12.719 31.8882 13.4493 32.133 14.4942L32.5418 16.2392C32.6535 16.7165 32.8733 17.0971 33.2307 17.4325L34.5376 18.6591C35.3201 19.3935 35.5174 20.5123 35.0332 21.4701L34.2247 23.0697C34.0036 23.5071 33.9272 23.94 33.9854 24.4267L34.1981 26.2063C34.3255 27.2719 33.7575 28.2557 32.771 28.6783L31.1234 29.3838C30.6728 29.5768 30.336 29.8593 30.0678 30.2696L29.0868 31.7696C28.4995 32.6677 27.4319 33.0563 26.4046 32.7458L24.689 32.2273C24.2197 32.0855 23.7802 32.0855 23.311 32.2273L21.5953 32.7458C20.568 33.0563 19.5005 32.6677 18.9131 31.7696L17.9322 30.2696C17.6639 29.8593 17.3271 29.5768 16.8765 29.3839L15.2291 28.6782C14.2426 28.2557 13.6745 27.2719 13.8019 26.2063L14.0146 24.4266C14.0727 23.9399 13.9965 23.5071 13.7753 23.0696L12.9667 21.4701C12.4826 20.5123 12.6799 19.3935 13.4624 18.6591L14.7692 17.4325C15.1266 17.097 15.3464 16.7164 15.4582 16.2391L15.867 14.4941C16.1118 13.4492 16.982 12.719 18.0536 12.6594L19.843 12.5598C20.3325 12.5326 20.7456 12.3823 21.1379 12.0885L22.5728 11.0145C23.432 10.3715 24.568 10.3715 25.4272 11.0146ZM23.0848 22.3065L21.5276 20.7494C21.124 20.3459 20.4694 20.3459 20.0658 20.7494C19.6623 21.153 19.6623 21.8076 20.0658 22.2111L22.3561 24.5013C22.7596 24.9049 23.4143 24.9049 23.8178 24.5013C25.1983 23.1209 26.5631 21.7249 27.9371 20.3381C28.3378 19.9337 28.3365 19.2812 27.9326 18.8796C27.5287 18.4778 26.8743 18.479 26.4732 18.8841L23.0848 22.3065ZM24 13.9335C21.8577 13.9335 19.9181 14.8019 18.514 16.2058C17.11 17.6098 16.2417 19.5494 16.2417 21.6918C16.2417 23.8341 17.1101 25.7737 18.514 27.1777C19.918 28.5817 21.8576 29.4501 24 29.4501C26.1423 29.4501 28.082 28.5816 29.4859 27.1777C30.8899 25.7737 31.7583 23.8341 31.7583 21.6918C31.7583 19.5494 30.8899 17.6098 29.4859 16.2058C28.082 14.8019 26.1424 13.9335 24 13.9335ZM28.8673 16.8245C27.6217 15.5789 25.9008 14.8085 24 14.8085C22.0992 14.8085 20.3783 15.5789 19.1327 16.8245C17.8871 18.0701 17.1167 19.791 17.1167 21.6918C17.1167 23.5926 17.8871 25.3135 19.1327 26.5591C20.3783 27.8047 22.0992 28.5752 24 28.5752C25.9008 28.5752 27.6217 27.8047 28.8673 26.5591C30.1129 25.3135 30.8834 23.5926 30.8834 21.6918C30.8834 19.791 30.1129 18.0701 28.8673 16.8245ZM26.9153 33.7198L28.6157 37.3723C28.6422 37.4291 28.6944 37.4641 28.7571 37.4669C28.8197 37.4698 28.8748 37.4397 28.9063 37.3854L30.1746 35.2029L32.6613 35.6374C32.723 35.6481 32.7816 35.6253 32.8197 35.5756C32.8578 35.5258 32.8647 35.4633 32.8383 35.4065L30.7239 30.865L29.8191 32.2484C29.1661 33.247 28.0603 33.7875 26.9153 33.7198ZM21.1504 33.7152C19.9822 33.8079 18.8464 33.266 18.1809 32.2484L17.3133 30.9217L15.2253 35.4065C15.2122 35.4336 15.207 35.4638 15.2103 35.4937C15.2136 35.5236 15.2252 35.5519 15.2438 35.5756C15.2618 35.5997 15.2862 35.6182 15.3142 35.6292C15.3422 35.6401 15.3727 35.6429 15.4023 35.6374L17.889 35.2029L19.1573 37.3854C19.1888 37.4396 19.2439 37.4697 19.3066 37.4669C19.3692 37.464 19.4214 37.4291 19.4479 37.3722L21.1504 33.7152Z" fill="#006B84"/>
<defs>
<linearGradient id="paint0_linear_1189_1716" x1="43.5" y1="1.46404e-06" x2="6" y2="48" gradientUnits="userSpaceOnUse">
<stop stop-color="#D3F7FF"/>
<stop offset="1" stop-color="white"/>
</linearGradient>
</defs>
</svg>
