<svg width="49" height="48" viewBox="0 0 49 48" fill="none" xmlns="http://www.w3.org/2000/svg">
<rect x="0.333344" width="48" height="48" rx="11.6667" fill="url(#paint0_linear_1189_1724)"/>
<g clip-path="url(#clip0_1189_1724)">
<path d="M28.8126 29.6876V27.2621C28.2789 27.2132 27.7731 27.0018 27.3634 26.6563C26.9538 26.3108 26.66 25.8479 26.5218 25.3301L26.1876 25.6626V27.9376C26.1883 28.5175 26.419 29.0735 26.8291 29.4836C27.2391 29.8937 27.7951 30.1244 28.3751 30.1251C28.4911 30.1251 28.6024 30.079 28.6845 29.9969C28.7665 29.9149 28.8126 29.8036 28.8126 29.6876Z" fill="#FF5078"/>
<path d="M20.5049 23.9498C20.5871 23.9086 20.6802 23.8943 20.771 23.909C20.8618 23.9236 20.9456 23.9666 21.0106 24.0316L21.8126 24.8336V24.4372C21.812 24.1499 21.8679 23.8654 21.9773 23.5997C22.0866 23.3341 22.2472 23.0926 22.4499 22.889C22.8592 22.4779 23.4151 22.2462 23.9953 22.2449C24.5754 22.2436 25.1323 22.4729 25.5435 22.8822C25.9546 23.2915 26.1863 23.8474 26.1876 24.4276L26.5835 24.0316C26.6484 23.966 26.7324 23.9225 26.8235 23.9075C26.9146 23.8925 27.0081 23.9067 27.0907 23.9481C27.1732 23.9894 27.2406 24.0559 27.2831 24.1378C27.3255 24.2198 27.341 24.3131 27.3273 24.4044C27.2758 24.7679 27.34 25.1383 27.5107 25.4633C27.6814 25.7883 27.95 26.0514 28.2784 26.2154C28.6069 26.3793 28.9785 26.4358 29.3409 26.3769C29.7032 26.318 30.0379 26.1466 30.2974 25.8871C30.557 25.6275 30.7284 25.2928 30.7873 24.9305C30.8462 24.5682 30.7897 24.1965 30.6258 23.868C30.4618 23.5396 30.1987 23.271 29.8737 23.1003C29.5487 22.9296 29.1783 22.8654 28.8148 22.9169C28.7235 22.9306 28.6302 22.9152 28.5482 22.8727C28.4663 22.8302 28.3998 22.7628 28.3585 22.6803C28.3171 22.5978 28.3029 22.5042 28.3179 22.4131C28.3329 22.3221 28.3764 22.238 28.442 22.1731L31.2258 19.3849L29.265 17.4245C29.084 17.8035 28.8147 18.1335 28.4798 18.3868C28.1449 18.6401 27.754 18.8094 27.3401 18.8804C26.9262 18.9514 26.5013 18.9221 26.1011 18.7949C25.7009 18.6677 25.337 18.4463 25.0401 18.1494C24.7431 17.8524 24.5218 17.4886 24.3946 17.0884C24.2674 16.6881 24.238 16.2632 24.309 15.8493C24.3801 15.4354 24.5493 15.0446 24.8027 14.7097C25.056 14.3748 25.386 14.1055 25.765 13.9245L23.7988 11.9658L21.0106 14.7496C20.9457 14.8153 20.8617 14.8587 20.7706 14.8737C20.6795 14.8887 20.586 14.8745 20.5035 14.8332C20.421 14.7918 20.3536 14.7254 20.3111 14.6434C20.2686 14.5615 20.2531 14.4682 20.2669 14.3769C20.3051 14.1085 20.2804 13.8349 20.1947 13.5776C20.1091 13.3204 19.9649 13.0866 19.7734 12.8946C19.4398 12.5769 18.9968 12.3996 18.5361 12.3996C18.0755 12.3996 17.6325 12.5769 17.2989 12.8946C17.0402 13.1545 16.8697 13.489 16.8114 13.8509C16.7531 14.2129 16.81 14.5841 16.9739 14.912C17.1379 15.2399 17.4008 15.508 17.7253 15.6785C18.0499 15.849 18.4198 15.9133 18.7829 15.8622C18.8742 15.8484 18.9675 15.8639 19.0495 15.9064C19.1314 15.9489 19.1978 16.0163 19.2392 16.0988C19.2806 16.1813 19.2948 16.2748 19.2798 16.3659C19.2647 16.457 19.2213 16.541 19.1556 16.6059L16.3714 19.3884L19.1561 22.1766C19.2218 22.2416 19.2653 22.3256 19.2803 22.4168C19.2953 22.5079 19.2811 22.6015 19.2396 22.6841C19.1982 22.7666 19.1317 22.834 19.0497 22.8764C18.9676 22.9189 18.8742 22.9343 18.7829 22.9204C18.4194 22.8689 18.049 22.9331 17.724 23.1038C17.399 23.2745 17.1359 23.5431 16.9719 23.8715C16.808 24.2 16.7514 24.5717 16.8104 24.934C16.8693 25.2963 17.0407 25.631 17.3002 25.8906C17.5598 26.1501 17.8944 26.3215 18.2568 26.3804C18.6191 26.4393 18.9908 26.3828 19.3193 26.2189C19.6477 26.0549 19.9163 25.7918 20.087 25.4668C20.2577 25.1418 20.3218 24.7714 20.2704 24.4079C20.2561 24.3165 20.2711 24.223 20.3132 24.1407C20.3553 24.0584 20.4224 23.9916 20.5049 23.9498Z" fill="#FF5078"/>
<path d="M25.4508 35.4318L25.8883 34.5568C26.1 34.1314 26.2102 33.6627 26.2102 33.1875C26.2102 32.7123 26.1 32.2435 25.8883 31.8181L25.7282 31.497C25.4556 30.9498 25.3133 30.3469 25.3126 29.7356V24.437C25.3126 24.0889 25.1743 23.7551 24.9282 23.5089C24.682 23.2628 24.3482 23.1245 24.0001 23.1245C23.652 23.1245 23.3182 23.2628 23.072 23.5089C22.8259 23.7551 22.6876 24.0889 22.6876 24.437V30.562C22.6876 30.6781 22.6415 30.7893 22.5595 30.8714C22.4774 30.9534 22.3661 30.9995 22.2501 30.9995C22.1341 30.9995 22.0228 30.9534 21.9407 30.8714C21.8587 30.7893 21.8126 30.6781 21.8126 30.562V26.0707L21.0715 25.33C20.9223 25.8878 20.5931 26.3807 20.1349 26.7322C19.6767 27.0836 19.1153 27.2738 18.5379 27.2733C18.4915 27.2733 18.4465 27.269 18.4005 27.2668L17.3304 30.3468C17.2421 30.5358 17.1995 30.7431 17.2062 30.9516C17.2129 31.1602 17.2686 31.3643 17.3689 31.5473C17.3768 31.5614 17.3838 31.576 17.3899 31.591L18.9251 35.224C19.097 35.5448 19.1871 35.9031 19.1876 36.267V36.687H25.3126V36.0185C25.3128 35.8149 25.3601 35.6141 25.4508 35.4318ZM36.6876 20.062H34.0626C33.9466 20.062 33.8353 20.0159 33.7532 19.9339C33.6712 19.8518 33.6251 19.7406 33.6251 19.6245C33.6251 19.5085 33.6712 19.3972 33.7532 19.3152C33.8353 19.2331 33.9466 19.187 34.0626 19.187H36.6876C36.8036 19.187 36.9149 19.2331 36.997 19.3152C37.079 19.3972 37.1251 19.5085 37.1251 19.6245C37.1251 19.7406 37.079 19.8518 36.997 19.9339C36.9149 20.0159 36.8036 20.062 36.6876 20.062ZM33.5897 15.0308C33.4933 15.0308 33.3997 14.999 33.3233 14.9404C33.2469 14.8817 33.192 14.7995 33.1671 14.7065C33.1422 14.6135 33.1486 14.5148 33.1855 14.4259C33.2223 14.3369 33.2875 14.2626 33.3709 14.2144L35.6459 12.9019C35.7463 12.8448 35.8653 12.8297 35.9768 12.86C36.0883 12.8903 36.1833 12.9634 36.241 13.0635C36.2988 13.1635 36.3146 13.2824 36.2851 13.3941C36.2556 13.5057 36.1831 13.6012 36.0834 13.6597L33.8084 14.9722C33.742 15.0107 33.6665 15.0309 33.5897 15.0308ZM35.8625 26.4058C35.7856 26.4059 35.7102 26.3857 35.6437 26.3472L33.3687 25.0347C33.3186 25.0061 33.2745 24.968 33.2392 24.9224C33.2038 24.8768 33.1779 24.8246 33.1627 24.769C33.1476 24.7133 33.1437 24.6552 33.1511 24.5979C33.1585 24.5407 33.1772 24.4855 33.2061 24.4356C33.2349 24.3856 33.2734 24.3418 33.3192 24.3068C33.365 24.2717 33.4173 24.2461 33.4731 24.2314C33.5289 24.2166 33.5871 24.213 33.6442 24.2209C33.7014 24.2287 33.7564 24.2477 33.8062 24.2769L36.0812 25.5894C36.1646 25.6376 36.2298 25.7119 36.2666 25.8009C36.3035 25.8898 36.31 25.9885 36.285 26.0815C36.2601 26.1745 36.2052 26.2567 36.1288 26.3154C36.0524 26.374 35.9588 26.4058 35.8625 26.4058ZM13.9376 20.062H11.3126C11.1966 20.062 11.0853 20.0159 11.0032 19.9339C10.9212 19.8518 10.8751 19.7406 10.8751 19.6245C10.8751 19.5085 10.9212 19.3972 11.0032 19.3152C11.0853 19.2331 11.1966 19.187 11.3126 19.187H13.9376C14.0536 19.187 14.1649 19.2331 14.247 19.3152C14.329 19.3972 14.3751 19.5085 14.3751 19.6245C14.3751 19.7406 14.329 19.8518 14.247 19.9339C14.1649 20.0159 14.0536 20.062 13.9376 20.062ZM14.4105 15.0308C14.3337 15.0309 14.2582 15.0107 14.1918 14.9722L11.9168 13.6597C11.8171 13.6012 11.7446 13.5057 11.7151 13.3941C11.6855 13.2824 11.7014 13.1635 11.7592 13.0635C11.8169 12.9634 11.9119 12.8903 12.0234 12.86C12.1349 12.8297 12.2538 12.8448 12.3543 12.9019L14.6293 14.2144C14.7127 14.2626 14.7779 14.3369 14.8147 14.4259C14.8516 14.5148 14.858 14.6135 14.8331 14.7065C14.8082 14.7995 14.7533 14.8817 14.6768 14.9404C14.6004 14.999 14.5068 15.0308 14.4105 15.0308ZM12.1377 26.4058C12.0414 26.4058 11.9478 26.374 11.8714 26.3154C11.795 26.2567 11.7401 26.1745 11.7151 26.0815C11.6902 25.9885 11.6967 25.8898 11.7335 25.8009C11.7704 25.7119 11.8356 25.6376 11.919 25.5894L14.194 24.2769C14.2437 24.2477 14.2988 24.2287 14.356 24.2209C14.4131 24.213 14.4713 24.2166 14.5271 24.2314C14.5828 24.2461 14.6351 24.2717 14.681 24.3068C14.7268 24.3418 14.7653 24.3856 14.7941 24.4356C14.823 24.4855 14.8416 24.5407 14.8491 24.5979C14.8565 24.6552 14.8526 24.7133 14.8374 24.769C14.8223 24.8246 14.7963 24.8768 14.761 24.9224C14.7256 24.968 14.6816 25.0061 14.6315 25.0347L12.3565 26.3472C12.29 26.3857 12.2145 26.4059 12.1377 26.4058Z" fill="#FF5078"/>
</g>
<defs>
<linearGradient id="paint0_linear_1189_1724" x1="41.8333" y1="-5.18436e-08" x2="4.33334" y2="45.5" gradientUnits="userSpaceOnUse">
<stop stop-color="#FFD0DB"/>
<stop offset="1" stop-color="white"/>
</linearGradient>
<clipPath id="clip0_1189_1724">
<rect width="28" height="28" fill="white" transform="translate(10.0001 10)"/>
</clipPath>
</defs>
</svg>
