<svg width="48" height="49" viewBox="0 0 48 49" fill="none" xmlns="http://www.w3.org/2000/svg">
<rect y="0.5" width="48" height="48" rx="11.6667" fill="url(#paint0_linear_1189_1778)"/>
<g clip-path="url(#clip0_1189_1778)">
<path d="M21.375 34.5206C21.375 35.2168 21.6516 35.8845 22.1438 36.3767C22.6361 36.869 23.3038 37.1456 24 37.1456C24.6962 37.1456 25.3639 36.869 25.8562 36.3767C26.3484 35.8845 26.625 35.2168 26.625 34.5206V33.1871H21.375V34.5206ZM36.25 22.6871C35.9795 22.6882 35.716 22.7729 35.4954 22.9295C35.2749 23.0861 35.1082 23.3071 35.018 23.5621H32.75V24.4371H35.018C35.0986 24.6633 35.2398 24.8631 35.4263 25.0145C35.6127 25.1659 35.8372 25.2632 36.0752 25.2957C36.3132 25.3281 36.5555 25.2946 36.7757 25.1986C36.9959 25.1027 37.1855 24.9481 37.3238 24.7517C37.462 24.5553 37.5437 24.3246 37.5597 24.085C37.5758 23.8453 37.5257 23.6059 37.4148 23.3928C37.304 23.1797 37.1367 23.0012 36.9313 22.8767C36.7259 22.7522 36.4902 22.6866 36.25 22.6871ZM11.75 22.6871C11.5091 22.6861 11.2727 22.7514 11.0665 22.8758C10.8602 23.0003 10.6922 23.179 10.5809 23.3926C10.4695 23.6061 10.419 23.8462 10.435 24.0865C10.4509 24.3269 10.5327 24.5582 10.6713 24.7551C10.81 24.9521 11.0002 25.1071 11.221 25.2031C11.4419 25.2992 11.6849 25.3326 11.9235 25.2998C12.1621 25.267 12.3871 25.1691 12.5738 25.0169C12.7605 24.8648 12.9017 24.6642 12.982 24.4371H15.25V23.5621H12.982C12.8918 23.3071 12.7251 23.0861 12.5046 22.9295C12.284 22.7729 12.0205 22.6882 11.75 22.6871ZM30.4964 18.1218L32.1003 16.5183C32.3797 16.6517 32.6972 16.682 32.9968 16.6039C33.2964 16.5258 33.5587 16.3443 33.7374 16.0915C33.9162 15.8387 33.9998 15.5309 33.9735 15.2224C33.9472 14.9139 33.8127 14.6247 33.5938 14.4058C33.3749 14.1869 33.0856 14.0524 32.7772 14.0261C32.4687 13.9998 32.1609 14.0834 31.9081 14.2621C31.6553 14.4408 31.4738 14.7032 31.3957 15.0028C31.3176 15.3023 31.3479 15.6199 31.4813 15.8993L29.8774 17.5031L30.4964 18.1218ZM17.5036 29.8774L15.8997 31.4808C15.6203 31.3475 15.3028 31.3171 15.0032 31.3952C14.7036 31.4733 14.4413 31.6548 14.2626 31.9076C14.0838 32.1604 14.0002 32.4683 14.0265 32.7767C14.0528 33.0852 14.1873 33.3745 14.4062 33.5934C14.6251 33.8123 14.9144 33.9468 15.2228 33.9731C15.5313 33.9993 15.8391 33.9157 16.0919 33.737C16.3447 33.5583 16.5262 33.296 16.6043 32.9964C16.6824 32.6968 16.6521 32.3793 16.5188 32.0999L18.1226 30.496L17.5036 29.8774ZM31.7341 33.5896C31.9037 33.7606 32.1171 33.8817 32.3509 33.9396C32.5848 33.9974 32.83 33.9898 33.0598 33.9176C33.2896 33.8454 33.495 33.7113 33.6537 33.5301C33.8124 33.3488 33.9181 33.1274 33.9593 32.8901C34.0006 32.6528 33.9757 32.4087 33.8874 32.1846C33.7991 31.9605 33.6509 31.7649 33.4589 31.6195C33.267 31.474 33.0387 31.3841 32.799 31.3597C32.5594 31.3354 32.3177 31.3774 32.1003 31.4813L30.4964 29.8774L29.8778 30.496L31.4813 32.0999C31.3643 32.3439 31.3259 32.6181 31.3711 32.8849C31.4164 33.1516 31.5432 33.3978 31.7341 33.5896ZM16.2659 14.4096C16.0963 14.2385 15.8829 14.1174 15.6491 14.0596C15.4153 14.0017 15.17 14.0093 14.9402 14.0815C14.7104 14.1538 14.505 14.2879 14.3463 14.4691C14.1876 14.6503 14.0819 14.8717 14.0407 15.109C13.9994 15.3464 14.0243 15.5905 14.1126 15.8146C14.2009 16.0387 14.3491 16.2342 14.5411 16.3797C14.733 16.5252 14.9613 16.615 15.201 16.6394C15.4406 16.6638 15.6824 16.6217 15.8997 16.5179L17.5036 18.1218L18.1222 17.5031L16.5188 15.8993C16.6357 15.6553 16.6741 15.381 16.6289 15.1143C16.5836 14.8475 16.4568 14.6013 16.2659 14.4096ZM24.4375 15.2496V12.9816C24.7294 12.8784 24.9754 12.6753 25.1321 12.4082C25.2887 12.1412 25.346 11.8273 25.2936 11.5222C25.2412 11.217 25.0827 10.9402 24.846 10.7407C24.6093 10.5411 24.3096 10.4316 24 10.4316C23.6904 10.4316 23.3907 10.5411 23.154 10.7407C22.9173 10.9402 22.7588 11.217 22.7064 11.5222C22.654 11.8273 22.7113 12.1412 22.8679 12.4082C23.0246 12.6753 23.2706 12.8784 23.5625 12.9816V15.2496H24.4375ZM16.5625 23.9996C16.5634 25.5101 17.0244 26.9844 17.8841 28.2264C18.7438 29.4683 19.9615 30.4189 21.375 30.9515V32.3121H23.5625V27.3158L20.7188 25.6918C20.6521 25.6534 20.5968 25.598 20.5584 25.5313C20.52 25.4646 20.4998 25.389 20.5 25.3121V24.3566C20.2081 24.2534 19.9621 24.0503 19.8054 23.7832C19.6488 23.5162 19.5915 23.2023 19.6439 22.8972C19.6963 22.592 19.8548 22.3152 20.0915 22.1157C20.3282 21.9161 20.6279 21.8066 20.9375 21.8066C21.2471 21.8066 21.5468 21.9161 21.7835 22.1157C22.0202 22.3152 22.1787 22.592 22.2311 22.8972C22.2835 23.2023 22.2262 23.5162 22.0696 23.7832C21.9129 24.0503 21.6669 24.2534 21.375 24.3566V25.0566L23.5625 26.3065V22.6066C23.2706 22.5034 23.0246 22.3003 22.8679 22.0332C22.7113 21.7662 22.654 21.4523 22.7064 21.1472C22.7588 20.842 22.9173 20.5652 23.154 20.3657C23.3907 20.1661 23.6904 20.0566 24 20.0566C24.3096 20.0566 24.6093 20.1661 24.846 20.3657C25.0827 20.5652 25.2412 20.842 25.2936 21.1472C25.346 21.4523 25.2887 21.7662 25.1321 22.0332C24.9754 22.3003 24.7294 22.5034 24.4375 22.6066V27.861L26.625 25.9858V25.2316C26.3331 25.1284 26.0871 24.9253 25.9304 24.6582C25.7738 24.3912 25.7165 24.0773 25.7689 23.7722C25.8213 23.467 25.9798 23.1902 26.2165 22.9907C26.4532 22.7911 26.7529 22.6816 27.0625 22.6816C27.3721 22.6816 27.6718 22.7911 27.9085 22.9907C28.1452 23.1902 28.3037 23.467 28.3561 23.7722C28.4085 24.0773 28.3512 24.3912 28.1946 24.6582C28.0379 24.9253 27.7919 25.1284 27.5 25.2316V26.1871C27.4999 26.2502 27.4862 26.3126 27.4598 26.3699C27.4334 26.4272 27.3948 26.4781 27.3469 26.5191L24.4375 29.0133V32.3121H26.625V30.9515C27.8937 30.472 29.0071 29.6546 29.8447 28.5878C30.6822 27.521 31.2119 26.2453 31.3765 24.8991C31.541 23.5528 31.3342 22.1871 30.7783 20.95C30.2224 19.7128 29.3386 18.6513 28.2227 17.8804C27.1069 17.1094 25.8013 16.6584 24.4475 16.5762C23.0937 16.494 21.7432 16.7838 20.5422 17.414C19.3413 18.0443 18.3356 18.9911 17.6341 20.1519C16.9326 21.3127 16.562 22.6433 16.5625 23.9996Z" fill="#F15D2A"/>
</g>
<defs>
<linearGradient id="paint0_linear_1189_1778" x1="46" y1="0.500001" x2="6" y2="46.5" gradientUnits="userSpaceOnUse">
<stop stop-color="#FFE6D4"/>
<stop offset="1" stop-color="white"/>
</linearGradient>
<clipPath id="clip0_1189_1778">
<rect width="28" height="28" fill="white" transform="translate(10 10)"/>
</clipPath>
</defs>
</svg>
