<svg width="49" height="49" viewBox="0 0 49 49" fill="none" xmlns="http://www.w3.org/2000/svg">
<rect x="0.666626" y="0.5" width="48" height="48" rx="11.6667" fill="url(#paint0_linear_1189_1804)"/>
<g clip-path="url(#clip0_1189_1804)">
<path d="M16.025 29.8955C17.2637 29.8955 18.3835 30.4032 19.1884 31.2216C18.7959 31.9759 18.555 32.7997 18.4794 33.6466L18.4758 33.6858V34.6639H11.6062V33.9296C11.81 31.668 13.7104 29.8955 16.025 29.8955V29.8955ZM33.9752 29.8955C32.7366 29.8955 31.6168 30.4031 30.8119 31.2216C31.2044 31.9759 31.4452 32.7997 31.5209 33.6466L31.5245 33.6858V34.6639H38.3941V33.9296C38.1903 31.668 36.2899 29.8955 33.9752 29.8955L33.9752 29.8955ZM16.0251 29.4464C17.189 29.4464 18.1383 28.4971 18.1383 27.3332C18.1383 26.1693 17.189 25.2199 16.0251 25.2199C14.8612 25.2199 13.9119 26.1692 13.9119 27.3332C13.9119 28.4972 14.8612 29.4464 16.0251 29.4464ZM31.862 27.3332C31.862 28.4971 32.8113 29.4464 33.9752 29.4464C35.1391 29.4464 36.0885 28.4971 36.0885 27.3332C36.0885 26.1693 35.1392 25.2199 33.9752 25.2199C32.8113 25.2199 31.862 26.1692 31.862 27.3332ZM25.0001 28.5677C22.0409 28.5677 19.6113 30.8337 19.3508 33.7251V34.6639H30.6495V33.7251C30.389 30.8337 27.9594 28.5677 25.0001 28.5677ZM22.2985 25.3544C22.2985 26.8424 23.5121 28.0561 25.0002 28.0561C26.4882 28.0561 27.7019 26.8424 27.7019 25.3544C27.7019 23.8664 26.4883 22.6527 25.0002 22.6527C23.5121 22.6527 22.2985 23.8664 22.2985 25.3544ZM19.6198 26.0264C19.6494 26.2661 19.868 26.4364 20.1076 26.4069C20.2228 26.3926 20.3276 26.3331 20.3989 26.2416C20.4702 26.1501 20.5023 26.0339 20.4881 25.9188C20.4651 25.7316 20.4535 25.5431 20.4535 25.3545C20.4535 22.8473 22.4931 20.8075 25.0002 20.8075C27.5072 20.8075 29.547 22.8473 29.547 25.3545C29.547 25.5433 29.5352 25.7329 29.5122 25.9188C29.498 26.0339 29.5301 26.1501 29.6014 26.2416C29.6728 26.3331 29.7775 26.3926 29.8927 26.4069C29.9109 26.409 29.9291 26.41 29.9469 26.41C30.1645 26.41 30.3532 26.2479 30.3806 26.0264C30.408 25.8052 30.4218 25.5789 30.4218 25.3546C30.4218 22.3651 27.9897 19.9327 25.0001 19.9327C22.0106 19.9327 19.5784 22.3651 19.5784 25.3546C19.5784 25.5787 19.5924 25.8049 19.6198 26.0264ZM24.6577 18.5506C24.7407 18.6552 24.8668 18.7159 25.0002 18.7159C25.1336 18.7159 25.2596 18.6552 25.3426 18.5508L26.2964 17.3512C26.3321 17.3062 26.3587 17.2546 26.3745 17.1994C26.3904 17.1442 26.3952 17.0864 26.3887 17.0293C26.3822 16.9723 26.3645 16.917 26.3366 16.8668C26.3088 16.8165 26.2713 16.7723 26.2263 16.7365C26.1814 16.7008 26.1298 16.6742 26.0746 16.6584C26.0193 16.6425 25.9615 16.6377 25.9044 16.6442C25.8473 16.6508 25.7921 16.6685 25.7418 16.6963C25.6916 16.7242 25.6473 16.7617 25.6116 16.8067L25.4377 17.0253V13.7734C25.4384 13.7156 25.4275 13.6582 25.4059 13.6045C25.3842 13.5509 25.352 13.5021 25.3113 13.4609C25.2707 13.4198 25.2222 13.3871 25.1688 13.3648C25.1154 13.3425 25.0581 13.3311 25.0003 13.3311C24.9424 13.3311 24.8851 13.3425 24.8317 13.3648C24.7783 13.3871 24.7299 13.4198 24.6892 13.4609C24.6485 13.5021 24.6164 13.5509 24.5947 13.6045C24.573 13.6582 24.5621 13.7156 24.5628 13.7734V17.0253L24.3889 16.8067C24.2384 16.6176 23.9634 16.586 23.7743 16.7365C23.7293 16.7723 23.6918 16.8165 23.6639 16.8667C23.636 16.917 23.6183 16.9722 23.6118 17.0293C23.6053 17.0864 23.6101 17.1442 23.6259 17.1994C23.6417 17.2546 23.6683 17.3062 23.704 17.3512L24.6578 18.5506H24.6577ZM18.4523 19.9187L18.1749 19.8871C18.1178 19.8806 18.06 19.8853 18.0048 19.9012C17.9496 19.917 17.898 19.9435 17.8531 19.9792C17.8081 20.015 17.7706 20.0592 17.7428 20.1095C17.7149 20.1597 17.6972 20.2149 17.6907 20.272C17.6842 20.329 17.689 20.3868 17.7048 20.442C17.7206 20.4972 17.7471 20.5488 17.7829 20.5937C17.8186 20.6387 17.8629 20.6762 17.9131 20.704C17.9633 20.7319 18.0185 20.7496 18.0756 20.7561L19.5983 20.9301C19.6149 20.932 19.6315 20.9328 19.648 20.9328C19.7096 20.9328 19.7705 20.9197 19.8268 20.8945C19.883 20.8694 19.9333 20.8326 19.9744 20.7866C20.0154 20.7406 20.0463 20.6865 20.0649 20.6277C20.0836 20.569 20.0896 20.507 20.0826 20.4458L19.9089 18.923C19.8957 18.8078 19.8373 18.7025 19.7464 18.6303C19.6556 18.5581 19.5398 18.5249 19.4246 18.5381C19.1845 18.5653 19.0121 18.7823 19.0395 19.0225L19.0712 19.2998L16.7717 17.0004C16.7311 16.9598 16.6828 16.9275 16.6297 16.9056C16.5766 16.8836 16.5197 16.8723 16.4623 16.8723C16.4048 16.8723 16.3479 16.8836 16.2948 16.9056C16.2418 16.9276 16.1935 16.9598 16.1529 17.0004C16.1123 17.0411 16.08 17.0893 16.0581 17.1424C16.0361 17.1955 16.0248 17.2524 16.0248 17.3099C16.0248 17.3673 16.0361 17.4242 16.0581 17.4773C16.0801 17.5304 16.1123 17.5786 16.153 17.6192L18.4523 19.9187L18.4523 19.9187ZM30.3524 20.9328C30.369 20.9328 30.3856 20.932 30.4022 20.9302L31.9248 20.7562C31.9819 20.7497 32.0372 20.732 32.0874 20.7042C32.1377 20.6764 32.1819 20.6389 32.2177 20.5939C32.2535 20.549 32.28 20.4974 32.2959 20.4422C32.3117 20.387 32.3165 20.3291 32.3099 20.2721C32.2825 20.0322 32.0659 19.8592 31.8256 19.8871L31.5481 19.9188L33.8475 17.6193C33.9281 17.537 33.973 17.4262 33.9724 17.3109C33.9718 17.1957 33.9258 17.0853 33.8443 17.0038C33.7628 16.9223 33.6525 16.8762 33.5372 16.8756C33.422 16.875 33.3112 16.9199 33.2288 17.0005L30.9294 19.2999L30.961 19.0226C30.9733 18.9077 30.9398 18.7926 30.8676 18.7025C30.7954 18.6123 30.6905 18.5543 30.5757 18.5412C30.461 18.5281 30.3457 18.5608 30.255 18.6324C30.1643 18.704 30.1056 18.8085 30.0917 18.9231L29.918 20.4459C29.911 20.5071 29.917 20.5691 29.9357 20.6278C29.9543 20.6865 29.9852 20.7406 30.0262 20.7866C30.0672 20.8326 30.1175 20.8694 30.1737 20.8946C30.2299 20.9198 30.2908 20.9328 30.3524 20.9329V20.9328Z" fill="#F1B22A"/>
</g>
<defs>
<linearGradient id="paint0_linear_1189_1804" x1="44.1666" y1="0.500001" x2="6.66663" y2="48.5" gradientUnits="userSpaceOnUse">
<stop stop-color="#FFF1D2"/>
<stop offset="1" stop-color="white"/>
</linearGradient>
<clipPath id="clip0_1189_1804">
<rect width="28" height="28" fill="white" transform="translate(11.0001 10)"/>
</clipPath>
</defs>
</svg>
