<svg width="26" height="24" viewBox="0 0 26 24" fill="none" xmlns="http://www.w3.org/2000/svg">
<path d="M24.346 12.0811C23.4143 10.9592 22.1759 10.177 20.7647 9.82368C20.7356 9.81592 20.6987 9.80233 20.6657 9.79456L20.6366 9.79068L20.6192 9.7868L20.5997 9.77709C19.8738 9.60046 19.2332 9.19478 18.7499 8.61052C18.2705 8.03597 17.9871 7.33525 17.9424 6.59376C17.9386 6.53165 17.9327 6.46566 17.925 6.40354C17.8299 4.95551 17.2864 3.59872 16.3547 2.47873C15.0406 0.904532 13.115 0 11.0672 0C9.46197 0.00388211 7.90136 0.566788 6.67267 1.59167C5.26152 2.76794 4.38999 4.42172 4.22306 6.2502C4.21141 6.37831 4.20365 6.50448 4.19977 6.63259C4.17841 7.23819 4.78596 7.66911 5.34305 7.43036C5.34887 7.42842 5.35469 7.42648 5.36052 7.4226C5.65362 7.29837 5.85354 7.01886 5.86519 6.70246C5.91566 5.27191 6.55233 3.86464 7.74025 2.8747C8.70884 2.06334 9.89288 1.67125 11.0692 1.66737C12.5599 1.66737 14.0429 2.30986 15.0716 3.54437C15.8092 4.42755 16.2013 5.4796 16.2673 6.53941C16.2712 6.586 16.2751 6.63647 16.2751 6.68111C16.3411 7.74481 16.737 8.79686 17.4669 9.67616C18.2045 10.5593 19.1672 11.1378 20.1999 11.3921C20.2484 11.4095 20.295 11.4173 20.3358 11.4309C21.3684 11.689 22.337 12.2675 23.0629 13.1468C24.9089 15.3576 24.6061 18.6419 22.3913 20.482C21.4227 21.2895 20.2387 21.6855 19.0624 21.6855C18.2647 21.6855 17.4688 21.503 16.7448 21.1459C16.2984 20.9246 15.7607 21.1614 15.6073 21.635L15.6035 21.6466C15.4754 22.0368 15.6559 22.4619 16.0247 22.6444C16.9564 23.1044 17.9948 23.3528 19.0624 23.3528C20.6677 23.3528 22.2244 22.7899 23.457 21.7612C24.8701 20.5849 25.7397 18.9311 25.9085 17.1065C26.0735 15.278 25.5203 13.4923 24.344 12.0792L24.346 12.0811Z" fill="#DDECF4"/>
<path d="M0.851408 16.9025C0.851408 16.9025 2.01216 22.2715 5.6167 18.9833C9.27947 15.6428 6.75416 10.334 6.75416 10.334C6.75416 10.334 9.34352 13.5523 10.2151 13.8376C10.8692 14.0511 12.0047 10.7319 12.0047 10.7319C12.0047 10.7319 12.3871 18.5311 7.06473 21.398C4.28902 22.8926 2.59059 21.5533 1.83941 20.7031C0.641774 19.3482 0.849467 16.9025 0.849467 16.9025H0.851408Z" fill="#7CC242"/>
<path d="M11.5642 7.66882L11.2555 7.95804L11.3953 8.68399L11.4496 9.00621L11.7369 9.48953L11.5777 9.50118C11.5777 9.50118 11.5836 9.56911 11.5079 9.56717C11.4419 9.57494 11.4166 9.51671 11.4166 9.51671L11.2575 9.52059L11.3293 8.99262L11.1313 8.07062L10.6751 8.49765L10.6635 9.30319C10.6635 9.30319 10.2811 8.75193 9.40958 8.92274C8.73992 9.05473 8.3847 9.60017 8.3847 9.60017L8.18284 8.92274L7.00073 8.47436L9.02525 7.02051L11.5622 7.66688L11.5642 7.66882Z" fill="#7CC242"/>
<path d="M11.2204 9.98228C10.7662 9.1651 9.79569 8.839 9.05032 9.25245C8.30496 9.66589 8.06815 10.6636 8.52236 11.4808C8.97656 12.298 9.94903 12.6241 10.6925 12.2106C11.4359 11.7972 11.6746 10.7995 11.2204 9.98228Z" fill="#7CC242"/>
<path d="M1.3328 15.5936C1.3328 15.5936 -0.594669 21.9544 5.15085 20.5938C10.9876 19.2117 11.436 12.1152 11.436 12.1152C11.436 12.1152 12.2842 17.0416 13.0374 17.853C13.6041 18.4625 16.7545 15.6188 16.7545 15.6188C16.7545 15.6188 12.5773 24.0935 5.26538 23.9984C1.4512 23.9498 0.441854 21.5332 0.146814 20.1939C-0.322921 18.0568 1.33474 15.5917 1.33474 15.5917L1.3328 15.5936Z" fill="#DDECF4"/>
<path d="M18.0879 12.1232L17.591 12.2474L17.3115 13.0956L17.1795 13.4683L17.1989 14.1496L17.0242 14.0681C17.0242 14.0681 16.9912 14.1438 16.9116 14.0972C16.8359 14.0681 16.8456 13.9905 16.8456 13.9905L16.6748 13.9012L17.0611 13.3849L17.393 12.294L16.6593 12.4784L16.174 13.3227C16.174 13.3227 16.0925 12.5153 15.0715 12.1833C14.2854 11.9291 13.5885 12.2979 13.5885 12.2979L13.7729 11.4632L12.7869 10.2928L15.7819 9.94531L18.0859 12.1193L18.0879 12.1232Z" fill="#DDECF4"/>
<path d="M16.3642 14.3652C16.3642 13.2355 15.5276 12.3174 14.4969 12.3174C13.4662 12.3174 12.6296 13.2336 12.6296 14.3652C12.6296 15.4968 13.4662 16.413 14.4969 16.413C15.5276 16.413 16.3642 15.4968 16.3642 14.3652Z" fill="#DDECF4"/>
</svg>
