<svg width="20" height="20" viewBox="0 0 20 20" fill="none" xmlns="http://www.w3.org/2000/svg">
<path d="M15.8917 15.8917C19.15 12.6334 19.15 7.3584 15.8917 4.1084" stroke="#F15D2A" stroke-width="1.5" stroke-linecap="round" stroke-linejoin="round"/>
<path d="M4.1083 4.1084C0.849967 7.36673 0.849967 12.6417 4.1083 15.8917" stroke="#F15D2A" stroke-width="1.5" stroke-linecap="round" stroke-linejoin="round"/>
<path d="M7.25 17.8418C8.14167 18.1501 9.06666 18.3002 9.99999 18.3002C10.9333 18.2918 11.8583 18.1501 12.75 17.8418" stroke="#F15D2A" stroke-width="1.5" stroke-linecap="round" stroke-linejoin="round"/>
<path d="M7.25 2.15857C8.14167 1.85024 9.06666 1.7002 9.99999 1.7002C10.9333 1.7002 11.8583 1.85024 12.75 2.15857" stroke="#F15D2A" stroke-width="1.5" stroke-linecap="round" stroke-linejoin="round"/>
<path d="M7.28333 9.99979V8.60814C7.28333 6.8748 8.50834 6.16646 10.0083 7.03313L11.2167 7.73315L12.425 8.43312C13.925 9.29979 13.925 10.7165 12.425 11.5831L11.2167 12.2831L10.0083 12.9831C8.50834 13.8498 7.28333 13.1415 7.28333 11.4081V9.99979Z" stroke="#F15D2A" stroke-width="1.5" stroke-miterlimit="10" stroke-linecap="round" stroke-linejoin="round"/>
</svg>
