<svg width="49" height="48" viewBox="0 0 49 48" fill="none" xmlns="http://www.w3.org/2000/svg">
<rect x="0.666626" width="48" height="48" rx="11.6667" fill="url(#paint0_linear_1189_1734)"/>
<g clip-path="url(#clip0_1189_1734)">
<path d="M21.0207 28.0005L21.9795 27.4151C22.3147 27.6187 22.688 27.7714 23.0825 27.8733L23.3456 28.9678H24.8389L25.1019 27.8733C25.4965 27.7714 25.8656 27.6187 26.2007 27.4151L27.1638 28.0005L28.2201 26.9442L27.6347 25.9854C27.8341 25.646 27.991 25.2769 28.0886 24.8823L29.1831 24.6193V23.126L28.0886 22.8629C27.991 22.4684 27.8341 22.0993 27.6347 21.7599L28.2201 20.8011L27.1638 19.7448L26.2007 20.3302C25.858 20.1261 25.4881 19.9719 25.1019 19.872L24.8389 18.7817H23.3456L23.0825 19.872C22.688 19.9739 22.3147 20.1266 21.9795 20.3302L21.0207 19.7448L19.9601 20.8011L20.5498 21.7599C20.3462 22.0993 20.1935 22.4684 20.0916 22.8629L18.9971 23.126V24.6193L20.0916 24.8823C20.1935 25.2769 20.3462 25.646 20.5498 25.9854L19.9601 26.9442L21.0207 28.0005ZM24.0965 21.9932C25.1359 21.9932 25.9759 22.8332 25.9759 23.8726C25.9759 24.9163 25.1359 25.7563 24.0965 25.7563C23.0528 25.7563 22.2128 24.912 22.2128 23.8726C22.2086 22.8375 23.0528 21.9932 24.0965 21.9932ZM33.8413 19.3078C35.7589 19.3078 37.3116 17.7551 37.3116 15.8375C37.3116 13.9199 35.7589 12.3672 33.8413 12.3672C31.9238 12.3672 30.371 13.9199 30.371 15.8375C30.371 17.7551 31.9238 19.3078 33.8413 19.3078ZM32.2844 15.8036C32.3236 15.7642 32.3702 15.733 32.4215 15.7117C32.4729 15.6904 32.5279 15.6795 32.5835 15.6795C32.639 15.6795 32.694 15.6904 32.7454 15.7117C32.7967 15.733 32.8433 15.7642 32.8825 15.8036L33.2389 16.1642L34.7916 14.6114C34.871 14.5321 34.9785 14.4875 35.0907 14.4875C35.2029 14.4875 35.3105 14.5321 35.3898 14.6114C35.4691 14.6908 35.5137 14.7983 35.5137 14.9105C35.5137 15.0227 35.4691 15.1303 35.3898 15.2096L33.5359 17.0636C33.4553 17.1442 33.3492 17.1866 33.2347 17.1866C33.1201 17.1866 33.0141 17.1399 32.9335 17.0636L32.2759 16.406C32.1189 16.2405 32.1189 15.969 32.2844 15.8036ZM15.4928 31.3775C15.3359 31.1993 15.1916 31.0084 15.0474 30.8217H11.8486V34.449H19.7947C18.1406 33.775 16.6674 32.7231 15.4928 31.3775Z" fill="#0BAE80"/>
<path d="M38.1516 32.6289L34.6644 29.638V30.8174H24.0922C22.7347 30.8174 21.4747 30.4229 20.4056 29.7441C18.4541 28.5138 17.1474 26.3459 17.1474 23.8768C17.1474 21.3992 18.4541 19.2314 20.4098 18.0011C21.4747 17.3265 22.7389 16.932 24.0922 16.932C27.9231 16.932 31.0371 20.0417 31.0371 23.8768C31.0371 26.4944 29.5734 28.7811 27.4225 29.9647H32.7256C33.9474 28.2423 34.6644 26.138 34.6644 23.8768C34.6644 22.5617 34.4225 21.3059 33.9813 20.1435C33.9347 20.1435 33.888 20.152 33.8371 20.152C31.4571 20.152 29.5183 18.2174 29.5183 15.8332C29.5183 15.5023 29.5607 15.1841 29.6286 14.8744C28.0165 13.8774 26.1201 13.3047 24.088 13.3047C18.2589 13.3047 13.5159 18.0435 13.5159 23.8768C13.5159 26.5283 14.5044 28.9592 16.125 30.8174C18.068 33.0362 20.9147 34.4447 24.088 34.4447H34.6601V35.6283L38.1516 32.6289Z" fill="#0BAE80"/>
</g>
<defs>
<linearGradient id="paint0_linear_1189_1734" x1="45.1666" y1="2.56424e-06" x2="4.16663" y2="44.5" gradientUnits="userSpaceOnUse">
<stop stop-color="#D1FFF2"/>
<stop offset="1" stop-color="white"/>
</linearGradient>
<clipPath id="clip0_1189_1734">
<rect width="28" height="28" fill="white" transform="translate(11.0001 10)"/>
</clipPath>
</defs>
</svg>
