<svg width="49" height="49" viewBox="0 0 49 49" fill="none" xmlns="http://www.w3.org/2000/svg">
<rect x="0.333344" y="0.5" width="48" height="48" rx="11.6667" fill="url(#paint0_linear_1189_1795)"/>
<g clip-path="url(#clip0_1189_1795)">
<path d="M37.7233 22.3608C37.2628 24.7213 36.2525 26.994 34.8144 28.9522C34.6504 29.1756 34.3019 29.1259 34.2061 28.8658C34.0233 28.3694 34.1377 28.594 30.2375 23.0304C30.0963 22.8289 30.2021 22.5507 30.4405 22.4895C31.1337 22.3114 31.743 21.9827 32.2516 21.5056C32.4401 21.3294 32.4494 21.0342 32.2732 20.8458C32.097 20.6579 31.8018 20.6486 31.6134 20.8248C31.0576 21.3459 30.3543 21.6387 29.5131 21.702C29.3907 21.7112 29.2725 21.6539 29.2021 21.5534L27.7787 19.5226C27.4571 19.0619 26.8167 19.4331 26.8313 19.9485C26.8359 20.1089 26.7454 20.2639 26.5962 20.3493C22.1139 22.9126 22.4324 22.734 22.3427 22.778C21.6734 23.1054 20.8924 23.1568 20.1806 22.9232C18.1891 22.2637 17.5901 19.83 18.9251 18.2777C19.0836 18.0938 18.7308 18.4158 23.3099 14.4208C23.8126 13.9823 24.199 13.6255 24.8997 13.1811C30.6257 9.50524 39.7011 12.2085 37.7233 22.3608Z" fill="#0B88AE"/>
<path d="M32.3508 31.6938C32.1828 31.7853 31.975 31.7617 31.8289 31.6381L24.3011 25.2726C24.1027 25.1053 23.8206 25.1408 23.6611 25.3076C23.4855 25.4911 23.4889 25.81 23.6979 25.9855C25.1365 27.1936 20.9923 23.6974 30.3947 31.648C30.5362 31.7676 30.5951 31.9604 30.5414 32.1377C30.3693 32.7055 29.9656 33.1783 29.4556 33.4448C29.2933 33.5296 29.0959 33.5085 28.9526 33.3946C26.8663 31.7361 21.8127 27.7071 21.7097 27.6506C21.535 27.5544 21.3068 27.581 21.1578 27.7299C21.1111 27.7764 21.0747 27.8322 21.0511 27.8937C21.0274 27.9552 21.0171 28.0211 21.0207 28.0869C21.0244 28.1527 21.0419 28.217 21.0722 28.2755C21.1024 28.334 21.1448 28.3855 21.1963 28.4265C28.0451 33.868 27.7429 33.622 27.7403 33.6322C27.6444 34.2485 27.2487 34.8171 26.7171 35.1363C26.6339 35.1863 26.5372 35.2093 26.4403 35.202C26.3435 35.1947 26.2513 35.1576 26.1765 35.0956L19.7559 29.763C19.6647 29.6869 19.5477 29.6489 19.4292 29.6568C19.4114 29.6568 19.3648 29.6635 19.3434 29.6702C18.9817 29.7464 18.8625 30.2338 19.1591 30.4811L24.4097 34.8414C24.5746 34.9783 24.626 35.2105 24.5323 35.4033C24.1104 36.2717 23.0171 36.7512 21.992 36.0345C19.0417 33.9712 12.1402 30.4091 10.3445 22.3731C8.17552 12.6647 16.7258 9.61623 22.6807 12.8986C22.9651 13.0554 23.008 13.4468 22.7631 13.6601C21.5471 14.7192 18.4679 17.4042 18.4141 17.458C16.9918 18.8803 16.8926 21.1719 18.1878 22.6753C19.3686 24.0462 21.3792 24.4123 22.9763 23.4979C27.4212 20.953 27.0934 21.1431 27.172 21.088C27.3813 20.9408 27.6712 20.9954 27.8181 21.205C33.4377 29.2239 33.2123 28.8458 33.3456 29.2192C33.6979 30.1922 33.192 31.2355 32.3508 31.6938Z" fill="#0B88AE"/>
</g>
<defs>
<linearGradient id="paint0_linear_1189_1795" x1="43.8333" y1="0.500001" x2="6.33335" y2="48.5" gradientUnits="userSpaceOnUse">
<stop stop-color="#CDF3FF"/>
<stop offset="1" stop-color="white"/>
</linearGradient>
<clipPath id="clip0_1189_1795">
<rect width="28" height="28" fill="white" transform="translate(10.0001 10)"/>
</clipPath>
</defs>
</svg>
