<svg width="20" height="20" viewBox="0 0 20 20" fill="none" xmlns="http://www.w3.org/2000/svg">
<path d="M15.9833 5.94333L12.4783 2.35499C12.0517 1.92749 11.4533 1.67166 10.77 1.67166H5.72583C4.44417 1.58582 3.33333 2.69666 3.33333 3.97832V15.9408C3.33278 16.2552 3.39432 16.5667 3.51441 16.8572C3.6345 17.1478 3.81079 17.4118 4.03315 17.6341C4.25551 17.8564 4.51957 18.0326 4.81019 18.1526C5.10081 18.2726 5.41225 18.334 5.72667 18.3333H14.2733C14.5877 18.334 14.8992 18.2726 15.1898 18.1526C15.4804 18.0326 15.7445 17.8564 15.9668 17.6341C16.1892 17.4118 16.3655 17.1478 16.4856 16.8572C16.6057 16.5667 16.6672 16.2552 16.6667 15.9408V7.56749C16.6667 6.96916 16.41 6.37082 15.9833 5.94333ZM7.43583 8.42166H10C10.3417 8.42166 10.6833 8.67833 10.6833 9.10499C10.6833 9.53249 10.4275 9.78833 10 9.78833H7.43583C7.34575 9.78956 7.25634 9.77273 7.17288 9.73882C7.08942 9.70492 7.0136 9.65463 6.94989 9.59093C6.88619 9.52723 6.83591 9.45141 6.802 9.36794C6.7681 9.28448 6.75127 9.19507 6.7525 9.10499C6.7525 8.67749 7.09417 8.42166 7.43583 8.42166ZM12.5642 13.2067H7.43583C7.09417 13.2067 6.7525 12.95 6.7525 12.5233C6.7525 12.0967 7.00833 11.84 7.43583 11.84H12.5642C12.9058 11.84 13.2475 12.0958 13.2475 12.5233C13.2475 12.9508 12.9058 13.2067 12.5642 13.2067Z" fill="#F15D2A"/>
</svg>
