<svg width="28" height="28" viewBox="0 0 28 28" fill="none" xmlns="http://www.w3.org/2000/svg">
<path d="M17.1168 1.09375H6.125C5.66087 1.09375 5.21575 1.27812 4.88756 1.60631C4.55937 1.9345 4.375 2.37962 4.375 2.84375V24.7188C4.375 25.1829 4.55937 25.628 4.88756 25.9562C5.21575 26.2844 5.66087 26.4688 6.125 26.4688H21.875C22.3391 26.4688 22.7842 26.2844 23.1124 25.9562C23.4406 25.628 23.625 25.1829 23.625 24.7188V7.602L17.1168 1.09375Z" fill="#EDEDED"/>
<path d="M23.4968 7.47372L17.2449 1.22184C17.1838 1.16068 17.1058 1.11902 17.021 1.10215C16.9361 1.08528 16.8481 1.09394 16.7682 1.12705C16.6883 1.16015 16.62 1.21621 16.5719 1.28814C16.5238 1.36007 16.4981 1.44464 16.4981 1.53116V6.47053C16.4981 6.93466 16.6825 7.37978 17.0107 7.70797C17.3389 8.03616 17.784 8.22053 18.2481 8.22053H23.1875C23.274 8.22051 23.3586 8.19484 23.4305 8.14677C23.5024 8.09869 23.5585 8.03037 23.5916 7.95044C23.6247 7.87051 23.6334 7.78256 23.6165 7.69771C23.5996 7.61285 23.558 7.5349 23.4968 7.47372Z" fill="#C6C6C6"/>
<path d="M23.1875 18.9841H13.1626L12.1126 17.7832C12.0305 17.6893 11.9293 17.6141 11.8157 17.5626C11.7022 17.5111 11.5789 17.4844 11.4542 17.4844H4.8125C4.58044 17.4844 4.35788 17.5766 4.19378 17.7407C4.02969 17.9048 3.9375 18.1273 3.9375 18.3594V24.7184C3.93819 25.2984 4.16889 25.8544 4.57897 26.2645C4.98906 26.6746 5.54505 26.9052 6.125 26.9059H21.875C22.4549 26.9052 23.0109 26.6746 23.421 26.2645C23.8311 25.8544 24.0618 25.2984 24.0625 24.7184V19.8591C24.0625 19.6271 23.9703 19.4045 23.8062 19.2404C23.6421 19.0763 23.4196 18.9841 23.1875 18.9841Z" fill="#F15D2A"/>
<path d="M7 7.46387H14.7481V8.33887H7V7.46387ZM13.2519 13.2332H21V14.1082H13.2519V13.2332ZM7 9.38624H21V10.2612H7V9.38624ZM7 11.3095H21V12.1845H7V11.3095Z" fill="#C6C6C6"/>
<path d="M10.9169 23.1877H10.3198V24.719H9.485V20.816H10.9235C11.1093 20.8145 11.2945 20.8357 11.4752 20.879C11.6349 20.9165 11.7852 20.9862 11.9171 21.0838C12.0446 21.1809 12.1462 21.308 12.2128 21.4539C12.2885 21.628 12.3251 21.8167 12.32 22.0065C12.3304 22.1722 12.3023 22.3381 12.2379 22.4911C12.1734 22.6441 12.0744 22.7801 11.9486 22.8885C11.6503 23.1058 11.2852 23.2117 10.9169 23.1877ZM10.8526 21.5287H10.3198V22.4737H10.8526C10.9329 22.4739 11.013 22.4679 11.0924 22.4558C11.1627 22.4458 11.2306 22.4231 11.2928 22.3888C11.3511 22.3562 11.3993 22.3082 11.4323 22.2502C11.4706 22.1784 11.4888 22.0977 11.4853 22.0165C11.4881 21.937 11.4754 21.8576 11.4481 21.7829C11.4267 21.7271 11.3904 21.6782 11.3431 21.6416C11.1953 21.5541 11.0237 21.5151 10.8526 21.53V21.5287ZM14.0324 24.722H12.7453V20.816H14.0219C14.2961 20.8095 14.569 20.8568 14.8251 20.9552C15.04 21.0407 15.2311 21.1767 15.3825 21.3515C15.5334 21.5316 15.6439 21.742 15.7067 21.9684C15.7794 22.2308 15.8146 22.5021 15.8113 22.7743C15.8156 23.0538 15.7785 23.3324 15.7014 23.6012C15.6351 23.8292 15.517 24.0388 15.3563 24.2137C15.1858 24.3896 14.9791 24.5262 14.7504 24.614C14.5218 24.7018 14.2767 24.7387 14.0324 24.722ZM14.0227 21.5283H13.58V24.0063H14.0123C14.1768 24.0123 14.3403 23.9787 14.4891 23.9083C14.61 23.8466 14.7119 23.7533 14.784 23.6383C14.8587 23.5166 14.9098 23.3818 14.9345 23.2411C14.9638 23.0831 14.9784 22.9227 14.9783 22.762C14.9812 22.5794 14.9609 22.3971 14.9179 22.2195C14.8851 22.0813 14.8257 21.9508 14.7429 21.8354C14.6566 21.7299 14.546 21.6469 14.4205 21.5937C14.2951 21.5405 14.1586 21.5187 14.0227 21.53V21.5283ZM17.0818 22.328H18.347L18.3523 23.042L17.0835 23.0473V24.722H16.247V20.816H18.7775V21.53H17.0818V22.328Z" fill="white"/>
</svg>
